<?xml version="1.0" encoding="UTF-8" standalone="no"?><svg xmlns="http://www.w3.org/2000/svg" xmlns:xlink="http://www.w3.org/1999/xlink" clip-rule="evenodd" stroke-miterlimit="10" viewBox="0 0 1024 768"><desc>SVG generated by Keynote</desc><defs></defs><g transform="matrix(1.00, 0.00, -0.00, -1.00, 0.0, 768.0)"><path d="M 0.0 768.0 L 1024.0 768.0 L 1024.0 0.0 L 0.0 0.0 Z M 0.0 768.0 " fill="#FEFFFF"></path><path d="M -11.0 786.0 L 1036.0 786.0 L 1036.0 -11.0 L -11.0 -11.0 Z M -11.0 786.0 " fill="#000000"></path><path d="M 0.0 0.0 L 1047.0 0.0 L 1047.0 797.0 L 0.0 797.0 Z M 0.0 0.0 " fill="none" stroke="#000000" stroke-width="2.00" transform="matrix(1.00, 0.00, 0.00, -1.00, -11.0, 786.0)"></path><text xml:space="preserve" font-family="CourierNewPS-BoldMT,Courier New" font-weight="bold" font-size="80.0" fill="#76BA40" transform="matrix(1.00, 0.00, -0.00, -1.00, 163.8, 670.0)">B</text><text xml:space="preserve" font-family="CourierNewPS-BoldMT,Courier New" font-weight="bold" font-size="80.0" fill="#76BA40" transform="matrix(1.00, 0.00, -0.00, -1.00, 215.8, 670.0)">Y</text><text xml:space="preserve" font-family="CourierNewPS-BoldMT,Courier New" font-weight="bold" font-size="80.0" fill="#76BA40" transform="matrix(1.00, 0.00, -0.00, -1.00, 267.8, 670.0)">T</text><text xml:space="preserve" font-family="CourierNewPS-BoldMT,Courier New" font-weight="bold" font-size="80.0" fill="#76BA40" transform="matrix(1.00, 0.00, -0.00, -1.00, 319.9, 670.0)">E</text><text xml:space="preserve" font-family="CourierNewPS-BoldMT,Courier New" font-weight="bold" font-size="80.0" fill="#76BA40" transform="matrix(1.00, 0.00, -0.00, -1.00, 371.9, 670.0)"> </text><text xml:space="preserve" font-family="CourierNewPS-BoldMT,Courier New" font-weight="bold" font-size="80.0" fill="#76BA40" transform="matrix(1.00, 0.00, -0.00, -1.00, 423.9, 670.0)">C</text><text xml:space="preserve" font-family="CourierNewPS-BoldMT,Courier New" font-weight="bold" font-size="80.0" fill="#76BA40" transform="matrix(1.00, 0.00, -0.00, -1.00, 475.9, 670.0)">U</text><text xml:space="preserve" font-family="CourierNewPS-BoldMT,Courier New" font-weight="bold" font-size="80.0" fill="#76BA40" transform="matrix(1.00, 0.00, -0.00, -1.00, 527.9, 670.0)">R</text><text xml:space="preserve" font-family="CourierNewPS-BoldMT,Courier New" font-weight="bold" font-size="80.0" fill="#76BA40" transform="matrix(1.00, 0.00, -0.00, -1.00, 579.9, 670.0)">A</text><text xml:space="preserve" font-family="CourierNewPS-BoldMT,Courier New" font-weight="bold" font-size="80.0" fill="#76BA40" transform="matrix(1.00, 0.00, -0.00, -1.00, 632.0, 670.0)">T</text><text xml:space="preserve" font-family="CourierNewPS-BoldMT,Courier New" font-weight="bold" font-size="80.0" fill="#76BA40" transform="matrix(1.00, 0.00, -0.00, -1.00, 684.0, 670.0)">I</text><text xml:space="preserve" font-family="CourierNewPS-BoldMT,Courier New" font-weight="bold" font-size="80.0" fill="#76BA40" transform="matrix(1.00, 0.00, -0.00, -1.00, 736.0, 670.0)">O</text><text xml:space="preserve" font-family="CourierNewPS-BoldMT,Courier New" font-weight="bold" font-size="80.0" fill="#76BA40" transform="matrix(1.00, 0.00, -0.00, -1.00, 788.0, 670.0)">N</text><text xml:space="preserve" font-family="CourierNewPS-BoldMT,Courier New" font-weight="bold" font-size="80.0" fill="#76BA40" transform="matrix(1.00, 0.00, -0.00, -1.00, 840.0, 670.0)"> </text><text xml:space="preserve" font-family="CourierNewPS-BoldMT,Courier New" font-weight="bold" font-size="80.0" fill="#76BA40" transform="matrix(1.00, 0.00, -0.00, -1.00, 319.8, 488.0)">0</text><text xml:space="preserve" font-family="CourierNewPS-BoldMT,Courier New" font-weight="bold" font-size="80.0" fill="#76BA40" transform="matrix(1.00, 0.00, -0.00, -1.00, 371.9, 488.0)"> </text><text xml:space="preserve" font-family="CourierNewPS-BoldMT,Courier New" font-weight="bold" font-size="80.0" fill="#76BA40" transform="matrix(1.00, 0.00, -0.00, -1.00, 423.9, 488.0)">-</text><text xml:space="preserve" font-family="CourierNewPS-BoldMT,Courier New" font-weight="bold" font-size="80.0" fill="#76BA40" transform="matrix(1.00, 0.00, -0.00, -1.00, 475.9, 488.0)"> </text><text xml:space="preserve" font-family="CourierNewPS-BoldMT,Courier New" font-weight="bold" font-size="80.0" fill="#76BA40" transform="matrix(1.00, 0.00, -0.00, -1.00, 527.9, 488.0)">2</text><text xml:space="preserve" font-family="CourierNewPS-BoldMT,Courier New" font-weight="bold" font-size="80.0" fill="#76BA40" transform="matrix(1.00, 0.00, -0.00, -1.00, 579.9, 488.0)">5</text><text xml:space="preserve" font-family="CourierNewPS-BoldMT,Courier New" font-weight="bold" font-size="80.0" fill="#76BA40" transform="matrix(1.00, 0.00, -0.00, -1.00, 631.9, 488.0)">5</text></g></svg>