<?xml version="1.0" encoding="UTF-8" standalone="no"?><svg xmlns="http://www.w3.org/2000/svg" xmlns:xlink="http://www.w3.org/1999/xlink" clip-rule="evenodd" stroke-miterlimit="10" viewBox="0 0 1024 768"><desc>SVG generated by Keynote</desc><defs></defs><g transform="matrix(1.00, 0.00, -0.00, -1.00, 0.0, 768.0)"><path d="M 0.0 768.0 L 1024.0 768.0 L 1024.0 0.0 L 0.0 0.0 Z M 0.0 768.0 " fill="#FEFFFF"></path><path d="M -11.0 786.0 L 1036.0 786.0 L 1036.0 -11.0 L -11.0 -11.0 Z M -11.0 786.0 " fill="#000000"></path><path d="M 0.0 0.0 L 1047.0 0.0 L 1047.0 797.0 L 0.0 797.0 Z M 0.0 0.0 " fill="none" stroke="#000000" stroke-width="2.00" transform="matrix(1.00, 0.00, 0.00, -1.00, -11.0, 786.0)"></path><text xml:space="preserve" font-family="CourierNewPS-BoldMT,Courier New" font-weight="bold" font-size="72.0" fill="#76BA40" transform="matrix(1.00, 0.00, -0.00, -1.00, 44.4, 683.1)">B</text><text xml:space="preserve" font-family="CourierNewPS-BoldMT,Courier New" font-weight="bold" font-size="72.0" fill="#76BA40" transform="matrix(1.00, 0.00, -0.00, -1.00, 87.6, 683.1)">U</text><text xml:space="preserve" font-family="CourierNewPS-BoldMT,Courier New" font-weight="bold" font-size="72.0" fill="#76BA40" transform="matrix(1.00, 0.00, -0.00, -1.00, 130.8, 683.1)">F</text><text xml:space="preserve" font-family="CourierNewPS-BoldMT,Courier New" font-weight="bold" font-size="72.0" fill="#76BA40" transform="matrix(1.00, 0.00, -0.00, -1.00, 174.0, 683.1)">F</text><text xml:space="preserve" font-family="CourierNewPS-BoldMT,Courier New" font-weight="bold" font-size="72.0" fill="#76BA40" transform="matrix(1.00, 0.00, -0.00, -1.00, 217.2, 683.1)">E</text><text xml:space="preserve" font-family="CourierNewPS-BoldMT,Courier New" font-weight="bold" font-size="72.0" fill="#76BA40" transform="matrix(1.00, 0.00, -0.00, -1.00, 260.4, 683.1)">R</text><text xml:space="preserve" font-family="CourierNewPS-BoldMT,Courier New" font-weight="bold" font-size="72.0" fill="#76BA40" transform="matrix(1.00, 0.00, -0.00, -1.00, 303.6, 683.1)">?</text><text xml:space="preserve" font-family="CourierNewPS-BoldMT,Courier New" font-weight="bold" font-size="42.0" fill="#76BA40" transform="matrix(1.00, 0.00, -0.00, -1.00, 44.1, 568.1)">+</text><text xml:space="preserve" font-family="CourierNewPS-BoldMT,Courier New" font-weight="bold" font-size="42.0" fill="#76BA40" transform="matrix(1.00, 0.00, -0.00, -1.00, 69.3, 568.1)"> </text><text xml:space="preserve" font-family="CourierNewPS-BoldMT,Courier New" font-weight="bold" font-size="42.0" fill="#76BA40" transform="matrix(1.00, 0.00, -0.00, -1.00, 94.5, 568.1)">B</text><text xml:space="preserve" font-family="CourierNewPS-BoldMT,Courier New" font-weight="bold" font-size="42.0" fill="#76BA40" transform="matrix(1.00, 0.00, -0.00, -1.00, 119.7, 568.1)">u</text><text xml:space="preserve" font-family="CourierNewPS-BoldMT,Courier New" font-weight="bold" font-size="42.0" fill="#76BA40" transform="matrix(1.00, 0.00, -0.00, -1.00, 144.9, 568.1)">f</text><text xml:space="preserve" font-family="CourierNewPS-BoldMT,Courier New" font-weight="bold" font-size="42.0" fill="#76BA40" transform="matrix(1.00, 0.00, -0.00, -1.00, 170.1, 568.1)">f</text><text xml:space="preserve" font-family="CourierNewPS-BoldMT,Courier New" font-weight="bold" font-size="42.0" fill="#76BA40" transform="matrix(1.00, 0.00, -0.00, -1.00, 195.3, 568.1)">e</text><text xml:space="preserve" font-family="CourierNewPS-BoldMT,Courier New" font-weight="bold" font-size="42.0" fill="#76BA40" transform="matrix(1.00, 0.00, -0.00, -1.00, 220.5, 568.1)">r</text><text xml:space="preserve" font-family="CourierNewPS-BoldMT,Courier New" font-weight="bold" font-size="42.0" fill="#76BA40" transform="matrix(1.00, 0.00, -0.00, -1.00, 245.7, 568.1)">s</text><text xml:space="preserve" font-family="CourierNewPS-BoldMT,Courier New" font-weight="bold" font-size="42.0" fill="#76BA40" transform="matrix(1.00, 0.00, -0.00, -1.00, 271.0, 568.1)"> </text><text xml:space="preserve" font-family="CourierNewPS-BoldMT,Courier New" font-weight="bold" font-size="42.0" fill="#76BA40" transform="matrix(1.00, 0.00, -0.00, -1.00, 296.2, 568.1)">i</text><text xml:space="preserve" font-family="CourierNewPS-BoldMT,Courier New" font-weight="bold" font-size="42.0" fill="#76BA40" transform="matrix(1.00, 0.00, -0.00, -1.00, 321.4, 568.1)">n</text><text xml:space="preserve" font-family="CourierNewPS-BoldMT,Courier New" font-weight="bold" font-size="42.0" fill="#76BA40" transform="matrix(1.00, 0.00, -0.00, -1.00, 346.6, 568.1)"> </text><text xml:space="preserve" font-family="CourierNewPS-BoldMT,Courier New" font-weight="bold" font-size="42.0" fill="#76BA40" transform="matrix(1.00, 0.00, -0.00, -1.00, 371.8, 568.1)">N</text><text xml:space="preserve" font-family="CourierNewPS-BoldMT,Courier New" font-weight="bold" font-size="42.0" fill="#76BA40" transform="matrix(1.00, 0.00, -0.00, -1.00, 397.0, 568.1)">o</text><text xml:space="preserve" font-family="CourierNewPS-BoldMT,Courier New" font-weight="bold" font-size="42.0" fill="#76BA40" transform="matrix(1.00, 0.00, -0.00, -1.00, 422.2, 568.1)">d</text><text xml:space="preserve" font-family="CourierNewPS-BoldMT,Courier New" font-weight="bold" font-size="42.0" fill="#76BA40" transform="matrix(1.00, 0.00, -0.00, -1.00, 447.4, 568.1)">e</text><text xml:space="preserve" font-family="CourierNewPS-BoldMT,Courier New" font-weight="bold" font-size="42.0" fill="#76BA40" transform="matrix(1.00, 0.00, -0.00, -1.00, 472.6, 568.1)">J</text><text xml:space="preserve" font-family="CourierNewPS-BoldMT,Courier New" font-weight="bold" font-size="42.0" fill="#76BA40" transform="matrix(1.00, 0.00, -0.00, -1.00, 497.8, 568.1)">S</text><text xml:space="preserve" font-family="CourierNewPS-BoldMT,Courier New" font-weight="bold" font-size="42.0" fill="#76BA40" transform="matrix(1.00, 0.00, -0.00, -1.00, 523.0, 568.1)"> </text><text xml:space="preserve" font-family="CourierNewPS-BoldMT,Courier New" font-weight="bold" font-size="42.0" fill="#76BA40" transform="matrix(1.00, 0.00, -0.00, -1.00, 548.2, 568.1)">a</text><text xml:space="preserve" font-family="CourierNewPS-BoldMT,Courier New" font-weight="bold" font-size="42.0" fill="#76BA40" transform="matrix(1.00, 0.00, -0.00, -1.00, 573.5, 568.1)">r</text><text xml:space="preserve" font-family="CourierNewPS-BoldMT,Courier New" font-weight="bold" font-size="42.0" fill="#76BA40" transform="matrix(1.00, 0.00, -0.00, -1.00, 598.7, 568.1)">e</text><text xml:space="preserve" font-family="CourierNewPS-BoldMT,Courier New" font-weight="bold" font-size="42.0" fill="#76BA40" transform="matrix(1.00, 0.00, -0.00, -1.00, 623.9, 568.1)"> </text><text xml:space="preserve" font-family="CourierNewPS-BoldMT,Courier New" font-weight="bold" font-size="42.0" fill="#76BA40" transform="matrix(1.00, 0.00, -0.00, -1.00, 649.1, 568.1)">a</text><text xml:space="preserve" font-family="CourierNewPS-BoldMT,Courier New" font-weight="bold" font-size="42.0" fill="#76BA40" transform="matrix(1.00, 0.00, -0.00, -1.00, 674.3, 568.1)">n</text><text xml:space="preserve" font-family="CourierNewPS-BoldMT,Courier New" font-weight="bold" font-size="42.0" fill="#76BA40" transform="matrix(1.00, 0.00, -0.00, -1.00, 699.5, 568.1)"> </text><text xml:space="preserve" font-family="CourierNewPS-BoldMT,Courier New" font-weight="bold" font-size="42.0" fill="#76BA40" transform="matrix(1.00, 0.00, -0.00, -1.00, 724.7, 568.1)">o</text><text xml:space="preserve" font-family="CourierNewPS-BoldMT,Courier New" font-weight="bold" font-size="42.0" fill="#76BA40" transform="matrix(1.00, 0.00, -0.00, -1.00, 749.9, 568.1)">b</text><text xml:space="preserve" font-family="CourierNewPS-BoldMT,Courier New" font-weight="bold" font-size="42.0" fill="#76BA40" transform="matrix(1.00, 0.00, -0.00, -1.00, 775.1, 568.1)">j</text><text xml:space="preserve" font-family="CourierNewPS-BoldMT,Courier New" font-weight="bold" font-size="42.0" fill="#76BA40" transform="matrix(1.00, 0.00, -0.00, -1.00, 800.3, 568.1)">e</text><text xml:space="preserve" font-family="CourierNewPS-BoldMT,Courier New" font-weight="bold" font-size="42.0" fill="#76BA40" transform="matrix(1.00, 0.00, -0.00, -1.00, 825.5, 568.1)">c</text><text xml:space="preserve" font-family="CourierNewPS-BoldMT,Courier New" font-weight="bold" font-size="42.0" fill="#76BA40" transform="matrix(1.00, 0.00, -0.00, -1.00, 850.7, 568.1)">t</text><text xml:space="preserve" font-family="CourierNewPS-BoldMT,Courier New" font-weight="bold" font-size="42.0" fill="#76BA40" transform="matrix(1.00, 0.00, -0.00, -1.00, 44.0, 332.6)">+</text><text xml:space="preserve" font-family="CourierNewPS-BoldMT,Courier New" font-weight="bold" font-size="42.0" fill="#76BA40" transform="matrix(1.00, 0.00, -0.00, -1.00, 69.2, 332.6)"> </text><text xml:space="preserve" font-family="CourierNewPS-BoldMT,Courier New" font-weight="bold" font-size="42.0" fill="#76BA40" transform="matrix(1.00, 0.00, -0.00, -1.00, 94.4, 332.6)">E</text><text xml:space="preserve" font-family="CourierNewPS-BoldMT,Courier New" font-weight="bold" font-size="42.0" fill="#76BA40" transform="matrix(1.00, 0.00, -0.00, -1.00, 119.6, 332.6)">a</text><text xml:space="preserve" font-family="CourierNewPS-BoldMT,Courier New" font-weight="bold" font-size="42.0" fill="#76BA40" transform="matrix(1.00, 0.00, -0.00, -1.00, 144.8, 332.6)">c</text><text xml:space="preserve" font-family="CourierNewPS-BoldMT,Courier New" font-weight="bold" font-size="42.0" fill="#76BA40" transform="matrix(1.00, 0.00, -0.00, -1.00, 170.0, 332.6)">h</text><text xml:space="preserve" font-family="CourierNewPS-BoldMT,Courier New" font-weight="bold" font-size="42.0" fill="#76BA40" transform="matrix(1.00, 0.00, -0.00, -1.00, 195.2, 332.6)"> </text><text xml:space="preserve" font-family="CourierNewPS-BoldMT,Courier New" font-weight="bold" font-size="42.0" fill="#76BA40" transform="matrix(1.00, 0.00, -0.00, -1.00, 220.4, 332.6)">i</text><text xml:space="preserve" font-family="CourierNewPS-BoldMT,Courier New" font-weight="bold" font-size="42.0" fill="#76BA40" transform="matrix(1.00, 0.00, -0.00, -1.00, 245.7, 332.6)">t</text><text xml:space="preserve" font-family="CourierNewPS-BoldMT,Courier New" font-weight="bold" font-size="42.0" fill="#76BA40" transform="matrix(1.00, 0.00, -0.00, -1.00, 270.9, 332.6)">e</text><text xml:space="preserve" font-family="CourierNewPS-BoldMT,Courier New" font-weight="bold" font-size="42.0" fill="#76BA40" transform="matrix(1.00, 0.00, -0.00, -1.00, 296.1, 332.6)">m</text><text xml:space="preserve" font-family="CourierNewPS-BoldMT,Courier New" font-weight="bold" font-size="42.0" fill="#76BA40" transform="matrix(1.00, 0.00, -0.00, -1.00, 321.3, 332.6)"> </text><text xml:space="preserve" font-family="CourierNewPS-BoldMT,Courier New" font-weight="bold" font-size="42.0" fill="#76BA40" transform="matrix(1.00, 0.00, -0.00, -1.00, 346.5, 332.6)">i</text><text xml:space="preserve" font-family="CourierNewPS-BoldMT,Courier New" font-weight="bold" font-size="42.0" fill="#76BA40" transform="matrix(1.00, 0.00, -0.00, -1.00, 371.7, 332.6)">n</text><text xml:space="preserve" font-family="CourierNewPS-BoldMT,Courier New" font-weight="bold" font-size="42.0" fill="#76BA40" transform="matrix(1.00, 0.00, -0.00, -1.00, 396.9, 332.6)"> </text><text xml:space="preserve" font-family="CourierNewPS-BoldMT,Courier New" font-weight="bold" font-size="42.0" fill="#76BA40" transform="matrix(1.00, 0.00, -0.00, -1.00, 422.1, 332.6)">b</text><text xml:space="preserve" font-family="CourierNewPS-BoldMT,Courier New" font-weight="bold" font-size="42.0" fill="#76BA40" transform="matrix(1.00, 0.00, -0.00, -1.00, 447.3, 332.6)">u</text><text xml:space="preserve" font-family="CourierNewPS-BoldMT,Courier New" font-weight="bold" font-size="42.0" fill="#76BA40" transform="matrix(1.00, 0.00, -0.00, -1.00, 472.5, 332.6)">f</text><text xml:space="preserve" font-family="CourierNewPS-BoldMT,Courier New" font-weight="bold" font-size="42.0" fill="#76BA40" transform="matrix(1.00, 0.00, -0.00, -1.00, 497.7, 332.6)">f</text><text xml:space="preserve" font-family="CourierNewPS-BoldMT,Courier New" font-weight="bold" font-size="42.0" fill="#76BA40" transform="matrix(1.00, 0.00, -0.00, -1.00, 522.9, 332.6)">e</text><text xml:space="preserve" font-family="CourierNewPS-BoldMT,Courier New" font-weight="bold" font-size="42.0" fill="#76BA40" transform="matrix(1.00, 0.00, -0.00, -1.00, 548.2, 332.6)">r</text><text xml:space="preserve" font-family="CourierNewPS-BoldMT,Courier New" font-weight="bold" font-size="42.0" fill="#76BA40" transform="matrix(1.00, 0.00, -0.00, -1.00, 573.4, 332.6)"> </text><text xml:space="preserve" font-family="CourierNewPS-BoldMT,Courier New" font-weight="bold" font-size="42.0" fill="#76BA40" transform="matrix(1.00, 0.00, -0.00, -1.00, 598.6, 332.6)">i</text><text xml:space="preserve" font-family="CourierNewPS-BoldMT,Courier New" font-weight="bold" font-size="42.0" fill="#76BA40" transform="matrix(1.00, 0.00, -0.00, -1.00, 623.8, 332.6)">s</text><text xml:space="preserve" font-family="CourierNewPS-BoldMT,Courier New" font-weight="bold" font-size="42.0" fill="#76BA40" transform="matrix(1.00, 0.00, -0.00, -1.00, 649.0, 332.6)"> </text><text xml:space="preserve" font-family="CourierNewPS-BoldMT,Courier New" font-weight="bold" font-size="42.0" fill="#76BA40" transform="matrix(1.00, 0.00, -0.00, -1.00, 674.2, 332.6)">a</text><text xml:space="preserve" font-family="CourierNewPS-BoldMT,Courier New" font-weight="bold" font-size="42.0" fill="#76BA40" transform="matrix(1.00, 0.00, -0.00, -1.00, 699.4, 332.6)"> </text><text xml:space="preserve" font-family="CourierNewPS-BoldMT,Courier New" font-weight="bold" font-size="42.0" fill="#76BA40" transform="matrix(1.00, 0.00, -0.00, -1.00, 724.6, 332.6)">b</text><text xml:space="preserve" font-family="CourierNewPS-BoldMT,Courier New" font-weight="bold" font-size="42.0" fill="#76BA40" transform="matrix(1.00, 0.00, -0.00, -1.00, 749.8, 332.6)">y</text><text xml:space="preserve" font-family="CourierNewPS-BoldMT,Courier New" font-weight="bold" font-size="42.0" fill="#76BA40" transform="matrix(1.00, 0.00, -0.00, -1.00, 775.0, 332.6)">t</text><text xml:space="preserve" font-family="CourierNewPS-BoldMT,Courier New" font-weight="bold" font-size="42.0" fill="#76BA40" transform="matrix(1.00, 0.00, -0.00, -1.00, 800.2, 332.6)">e</text><text xml:space="preserve" font-family="CourierNewPS-BoldMT,Courier New" font-weight="bold" font-size="42.0" fill="#76BA40" transform="matrix(1.00, 0.00, -0.00, -1.00, 44.0, 452.6)">+</text><text xml:space="preserve" font-family="CourierNewPS-BoldMT,Courier New" font-weight="bold" font-size="42.0" fill="#76BA40" transform="matrix(1.00, 0.00, -0.00, -1.00, 69.2, 452.6)"> </text><text xml:space="preserve" font-family="CourierNewPS-BoldMT,Courier New" font-weight="bold" font-size="42.0" fill="#76BA40" transform="matrix(1.00, 0.00, -0.00, -1.00, 94.4, 452.6)">S</text><text xml:space="preserve" font-family="CourierNewPS-BoldMT,Courier New" font-weight="bold" font-size="42.0" fill="#76BA40" transform="matrix(1.00, 0.00, -0.00, -1.00, 119.6, 452.6)">t</text><text xml:space="preserve" font-family="CourierNewPS-BoldMT,Courier New" font-weight="bold" font-size="42.0" fill="#76BA40" transform="matrix(1.00, 0.00, -0.00, -1.00, 144.8, 452.6)">o</text><text xml:space="preserve" font-family="CourierNewPS-BoldMT,Courier New" font-weight="bold" font-size="42.0" fill="#76BA40" transform="matrix(1.00, 0.00, -0.00, -1.00, 170.0, 452.6)">r</text><text xml:space="preserve" font-family="CourierNewPS-BoldMT,Courier New" font-weight="bold" font-size="42.0" fill="#76BA40" transform="matrix(1.00, 0.00, -0.00, -1.00, 195.2, 452.6)">e</text><text xml:space="preserve" font-family="CourierNewPS-BoldMT,Courier New" font-weight="bold" font-size="42.0" fill="#76BA40" transform="matrix(1.00, 0.00, -0.00, -1.00, 220.4, 452.6)"> </text><text xml:space="preserve" font-family="CourierNewPS-BoldMT,Courier New" font-weight="bold" font-size="42.0" fill="#76BA40" transform="matrix(1.00, 0.00, -0.00, -1.00, 245.7, 452.6)">r</text><text xml:space="preserve" font-family="CourierNewPS-BoldMT,Courier New" font-weight="bold" font-size="42.0" fill="#76BA40" transform="matrix(1.00, 0.00, -0.00, -1.00, 270.9, 452.6)">a</text><text xml:space="preserve" font-family="CourierNewPS-BoldMT,Courier New" font-weight="bold" font-size="42.0" fill="#76BA40" transform="matrix(1.00, 0.00, -0.00, -1.00, 296.1, 452.6)">w</text><text xml:space="preserve" font-family="CourierNewPS-BoldMT,Courier New" font-weight="bold" font-size="42.0" fill="#76BA40" transform="matrix(1.00, 0.00, -0.00, -1.00, 321.3, 452.6)"> </text><text xml:space="preserve" font-family="CourierNewPS-BoldMT,Courier New" font-weight="bold" font-size="42.0" fill="#76BA40" transform="matrix(1.00, 0.00, -0.00, -1.00, 346.5, 452.6)">b</text><text xml:space="preserve" font-family="CourierNewPS-BoldMT,Courier New" font-weight="bold" font-size="42.0" fill="#76BA40" transform="matrix(1.00, 0.00, -0.00, -1.00, 371.7, 452.6)">i</text><text xml:space="preserve" font-family="CourierNewPS-BoldMT,Courier New" font-weight="bold" font-size="42.0" fill="#76BA40" transform="matrix(1.00, 0.00, -0.00, -1.00, 396.9, 452.6)">n</text><text xml:space="preserve" font-family="CourierNewPS-BoldMT,Courier New" font-weight="bold" font-size="42.0" fill="#76BA40" transform="matrix(1.00, 0.00, -0.00, -1.00, 422.1, 452.6)">a</text><text xml:space="preserve" font-family="CourierNewPS-BoldMT,Courier New" font-weight="bold" font-size="42.0" fill="#76BA40" transform="matrix(1.00, 0.00, -0.00, -1.00, 447.3, 452.6)">r</text><text xml:space="preserve" font-family="CourierNewPS-BoldMT,Courier New" font-weight="bold" font-size="42.0" fill="#76BA40" transform="matrix(1.00, 0.00, -0.00, -1.00, 472.5, 452.6)">y</text><text xml:space="preserve" font-family="CourierNewPS-BoldMT,Courier New" font-weight="bold" font-size="42.0" fill="#76BA40" transform="matrix(1.00, 0.00, -0.00, -1.00, 497.7, 452.6)"> </text><text xml:space="preserve" font-family="CourierNewPS-BoldMT,Courier New" font-weight="bold" font-size="42.0" fill="#76BA40" transform="matrix(1.00, 0.00, -0.00, -1.00, 522.9, 452.6)">d</text><text xml:space="preserve" font-family="CourierNewPS-BoldMT,Courier New" font-weight="bold" font-size="42.0" fill="#76BA40" transform="matrix(1.00, 0.00, -0.00, -1.00, 548.2, 452.6)">a</text><text xml:space="preserve" font-family="CourierNewPS-BoldMT,Courier New" font-weight="bold" font-size="42.0" fill="#76BA40" transform="matrix(1.00, 0.00, -0.00, -1.00, 573.4, 452.6)">t</text><text xml:space="preserve" font-family="CourierNewPS-BoldMT,Courier New" font-weight="bold" font-size="42.0" fill="#76BA40" transform="matrix(1.00, 0.00, -0.00, -1.00, 598.6, 452.6)">a</text><text xml:space="preserve" font-family="CourierNewPS-BoldMT,Courier New" font-weight="bold" font-size="42.0" fill="#76BA40" transform="matrix(1.00, 0.00, -0.00, -1.00, 623.8, 452.6)"> </text><text xml:space="preserve" font-family="CourierNewPS-BoldMT,Courier New" font-weight="bold" font-size="42.0" fill="#76BA40" transform="matrix(1.00, 0.00, -0.00, -1.00, 649.0, 452.6)">i</text><text xml:space="preserve" font-family="CourierNewPS-BoldMT,Courier New" font-weight="bold" font-size="42.0" fill="#76BA40" transform="matrix(1.00, 0.00, -0.00, -1.00, 674.2, 452.6)">n</text><text xml:space="preserve" font-family="CourierNewPS-BoldMT,Courier New" font-weight="bold" font-size="42.0" fill="#76BA40" transform="matrix(1.00, 0.00, -0.00, -1.00, 699.4, 452.6)"> </text><text xml:space="preserve" font-family="CourierNewPS-BoldMT,Courier New" font-weight="bold" font-size="42.0" fill="#76BA40" transform="matrix(1.00, 0.00, -0.00, -1.00, 724.6, 452.6)">t</text><text xml:space="preserve" font-family="CourierNewPS-BoldMT,Courier New" font-weight="bold" font-size="42.0" fill="#76BA40" transform="matrix(1.00, 0.00, -0.00, -1.00, 749.8, 452.6)">h</text><text xml:space="preserve" font-family="CourierNewPS-BoldMT,Courier New" font-weight="bold" font-size="42.0" fill="#76BA40" transform="matrix(1.00, 0.00, -0.00, -1.00, 775.0, 452.6)">e</text><text xml:space="preserve" font-family="CourierNewPS-BoldMT,Courier New" font-weight="bold" font-size="42.0" fill="#76BA40" transform="matrix(1.00, 0.00, -0.00, -1.00, 800.2, 452.6)">m</text><text xml:space="preserve" font-family="CourierNewPS-BoldMT,Courier New" font-weight="bold" font-size="42.0" fill="#76BA40" transform="matrix(1.00, 0.00, -0.00, -1.00, 44.0, 209.6)">v</text><text xml:space="preserve" font-family="CourierNewPS-BoldMT,Courier New" font-weight="bold" font-size="42.0" fill="#76BA40" transform="matrix(1.00, 0.00, -0.00, -1.00, 69.2, 209.6)">a</text><text xml:space="preserve" font-family="CourierNewPS-BoldMT,Courier New" font-weight="bold" font-size="42.0" fill="#76BA40" transform="matrix(1.00, 0.00, -0.00, -1.00, 94.4, 209.6)">r</text><text xml:space="preserve" font-family="CourierNewPS-BoldMT,Courier New" font-weight="bold" font-size="42.0" fill="#76BA40" transform="matrix(1.00, 0.00, -0.00, -1.00, 119.6, 209.6)"> </text><text xml:space="preserve" font-family="CourierNewPS-BoldMT,Courier New" font-weight="bold" font-size="42.0" fill="#76BA40" transform="matrix(1.00, 0.00, -0.00, -1.00, 144.8, 209.6)">m</text><text xml:space="preserve" font-family="CourierNewPS-BoldMT,Courier New" font-weight="bold" font-size="42.0" fill="#76BA40" transform="matrix(1.00, 0.00, -0.00, -1.00, 170.0, 209.6)">y</text><text xml:space="preserve" font-family="CourierNewPS-BoldMT,Courier New" font-weight="bold" font-size="42.0" fill="#76BA40" transform="matrix(1.00, 0.00, -0.00, -1.00, 195.2, 209.6)">B</text><text xml:space="preserve" font-family="CourierNewPS-BoldMT,Courier New" font-weight="bold" font-size="42.0" fill="#76BA40" transform="matrix(1.00, 0.00, -0.00, -1.00, 220.5, 209.6)">u</text><text xml:space="preserve" font-family="CourierNewPS-BoldMT,Courier New" font-weight="bold" font-size="42.0" fill="#76BA40" transform="matrix(1.00, 0.00, -0.00, -1.00, 245.7, 209.6)">f</text><text xml:space="preserve" font-family="CourierNewPS-BoldMT,Courier New" font-weight="bold" font-size="42.0" fill="#76BA40" transform="matrix(1.00, 0.00, -0.00, -1.00, 270.9, 209.6)">f</text><text xml:space="preserve" font-family="CourierNewPS-BoldMT,Courier New" font-weight="bold" font-size="42.0" fill="#76BA40" transform="matrix(1.00, 0.00, -0.00, -1.00, 296.1, 209.6)">e</text><text xml:space="preserve" font-family="CourierNewPS-BoldMT,Courier New" font-weight="bold" font-size="42.0" fill="#76BA40" transform="matrix(1.00, 0.00, -0.00, -1.00, 321.3, 209.6)">r</text><text xml:space="preserve" font-family="CourierNewPS-BoldMT,Courier New" font-weight="bold" font-size="42.0" fill="#76BA40" transform="matrix(1.00, 0.00, -0.00, -1.00, 346.5, 209.6)"> </text><text xml:space="preserve" font-family="CourierNewPS-BoldMT,Courier New" font-weight="bold" font-size="42.0" fill="#76BA40" transform="matrix(1.00, 0.00, -0.00, -1.00, 371.7, 209.6)">=</text><text xml:space="preserve" font-family="CourierNewPS-BoldMT,Courier New" font-weight="bold" font-size="42.0" fill="#76BA40" transform="matrix(1.00, 0.00, -0.00, -1.00, 396.9, 209.6)"> </text><text xml:space="preserve" font-family="CourierNewPS-BoldMT,Courier New" font-weight="bold" font-size="42.0" fill="#76BA40" transform="matrix(1.00, 0.00, -0.00, -1.00, 422.1, 209.6)">n</text><text xml:space="preserve" font-family="CourierNewPS-BoldMT,Courier New" font-weight="bold" font-size="42.0" fill="#76BA40" transform="matrix(1.00, 0.00, -0.00, -1.00, 447.3, 209.6)">e</text><text xml:space="preserve" font-family="CourierNewPS-BoldMT,Courier New" font-weight="bold" font-size="42.0" fill="#76BA40" transform="matrix(1.00, 0.00, -0.00, -1.00, 472.5, 209.6)">w</text><text xml:space="preserve" font-family="CourierNewPS-BoldMT,Courier New" font-weight="bold" font-size="42.0" fill="#76BA40" transform="matrix(1.00, 0.00, -0.00, -1.00, 497.7, 209.6)"> </text><text xml:space="preserve" font-family="CourierNewPS-BoldMT,Courier New" font-weight="bold" font-size="42.0" fill="#76BA40" transform="matrix(1.00, 0.00, -0.00, -1.00, 523.0, 209.6)">B</text><text xml:space="preserve" font-family="CourierNewPS-BoldMT,Courier New" font-weight="bold" font-size="42.0" fill="#76BA40" transform="matrix(1.00, 0.00, -0.00, -1.00, 548.2, 209.6)">u</text><text xml:space="preserve" font-family="CourierNewPS-BoldMT,Courier New" font-weight="bold" font-size="42.0" fill="#76BA40" transform="matrix(1.00, 0.00, -0.00, -1.00, 573.4, 209.6)">f</text><text xml:space="preserve" font-family="CourierNewPS-BoldMT,Courier New" font-weight="bold" font-size="42.0" fill="#76BA40" transform="matrix(1.00, 0.00, -0.00, -1.00, 598.6, 209.6)">f</text><text xml:space="preserve" font-family="CourierNewPS-BoldMT,Courier New" font-weight="bold" font-size="42.0" fill="#76BA40" transform="matrix(1.00, 0.00, -0.00, -1.00, 623.8, 209.6)">e</text><text xml:space="preserve" font-family="CourierNewPS-BoldMT,Courier New" font-weight="bold" font-size="42.0" fill="#76BA40" transform="matrix(1.00, 0.00, -0.00, -1.00, 649.0, 209.6)">r</text><text xml:space="preserve" font-family="CourierNewPS-BoldMT,Courier New" font-weight="bold" font-size="42.0" fill="#76BA40" transform="matrix(1.00, 0.00, -0.00, -1.00, 674.2, 209.6)">(</text><text xml:space="preserve" font-family="CourierNewPS-BoldMT,Courier New" font-weight="bold" font-size="42.0" fill="#76BA40" transform="matrix(1.00, 0.00, -0.00, -1.00, 699.4, 209.6)">5</text><text xml:space="preserve" font-family="CourierNewPS-BoldMT,Courier New" font-weight="bold" font-size="42.0" fill="#76BA40" transform="matrix(1.00, 0.00, -0.00, -1.00, 724.6, 209.6)">1</text><text xml:space="preserve" font-family="CourierNewPS-BoldMT,Courier New" font-weight="bold" font-size="42.0" fill="#76BA40" transform="matrix(1.00, 0.00, -0.00, -1.00, 749.8, 209.6)">2</text><text xml:space="preserve" font-family="CourierNewPS-BoldMT,Courier New" font-weight="bold" font-size="42.0" fill="#76BA40" transform="matrix(1.00, 0.00, -0.00, -1.00, 775.0, 209.6)">)</text><text xml:space="preserve" font-family="CourierNewPS-BoldMT,Courier New" font-weight="bold" font-size="42.0" fill="#76BA40" transform="matrix(1.00, 0.00, -0.00, -1.00, 800.2, 209.6)">;</text></g></svg>