<?xml version="1.0" encoding="UTF-8" standalone="no"?><svg xmlns="http://www.w3.org/2000/svg" xmlns:xlink="http://www.w3.org/1999/xlink" clip-rule="evenodd" stroke-miterlimit="10" viewBox="0 0 781 39"><desc>SVG generated by Keynote</desc><defs></defs><g transform="matrix(1.00, 0.00, -0.00, -1.00, 0.0, 39.0)"><text xml:space="preserve" font-family="CourierNewPS-BoldMT,Courier New" font-weight="bold" font-size="42.0" fill="#76BA40" transform="matrix(1.00, 0.00, -0.00, -1.00, 0.0, 10.6)">+</text><text xml:space="preserve" font-family="CourierNewPS-BoldMT,Courier New" font-weight="bold" font-size="42.0" fill="#76BA40" transform="matrix(1.00, 0.00, -0.00, -1.00, 25.2, 10.6)"> </text><text xml:space="preserve" font-family="CourierNewPS-BoldMT,Courier New" font-weight="bold" font-size="42.0" fill="#76BA40" transform="matrix(1.00, 0.00, -0.00, -1.00, 50.4, 10.6)">E</text><text xml:space="preserve" font-family="CourierNewPS-BoldMT,Courier New" font-weight="bold" font-size="42.0" fill="#76BA40" transform="matrix(1.00, 0.00, -0.00, -1.00, 75.6, 10.6)">a</text><text xml:space="preserve" font-family="CourierNewPS-BoldMT,Courier New" font-weight="bold" font-size="42.0" fill="#76BA40" transform="matrix(1.00, 0.00, -0.00, -1.00, 100.8, 10.6)">c</text><text xml:space="preserve" font-family="CourierNewPS-BoldMT,Courier New" font-weight="bold" font-size="42.0" fill="#76BA40" transform="matrix(1.00, 0.00, -0.00, -1.00, 126.0, 10.6)">h</text><text xml:space="preserve" font-family="CourierNewPS-BoldMT,Courier New" font-weight="bold" font-size="42.0" fill="#76BA40" transform="matrix(1.00, 0.00, -0.00, -1.00, 151.2, 10.6)"> </text><text xml:space="preserve" font-family="CourierNewPS-BoldMT,Courier New" font-weight="bold" font-size="42.0" fill="#76BA40" transform="matrix(1.00, 0.00, -0.00, -1.00, 176.4, 10.6)">i</text><text xml:space="preserve" font-family="CourierNewPS-BoldMT,Courier New" font-weight="bold" font-size="42.0" fill="#76BA40" transform="matrix(1.00, 0.00, -0.00, -1.00, 201.7, 10.6)">t</text><text xml:space="preserve" font-family="CourierNewPS-BoldMT,Courier New" font-weight="bold" font-size="42.0" fill="#76BA40" transform="matrix(1.00, 0.00, -0.00, -1.00, 226.9, 10.6)">e</text><text xml:space="preserve" font-family="CourierNewPS-BoldMT,Courier New" font-weight="bold" font-size="42.0" fill="#76BA40" transform="matrix(1.00, 0.00, -0.00, -1.00, 252.1, 10.6)">m</text><text xml:space="preserve" font-family="CourierNewPS-BoldMT,Courier New" font-weight="bold" font-size="42.0" fill="#76BA40" transform="matrix(1.00, 0.00, -0.00, -1.00, 277.3, 10.6)"> </text><text xml:space="preserve" font-family="CourierNewPS-BoldMT,Courier New" font-weight="bold" font-size="42.0" fill="#76BA40" transform="matrix(1.00, 0.00, -0.00, -1.00, 302.5, 10.6)">i</text><text xml:space="preserve" font-family="CourierNewPS-BoldMT,Courier New" font-weight="bold" font-size="42.0" fill="#76BA40" transform="matrix(1.00, 0.00, -0.00, -1.00, 327.7, 10.6)">n</text><text xml:space="preserve" font-family="CourierNewPS-BoldMT,Courier New" font-weight="bold" font-size="42.0" fill="#76BA40" transform="matrix(1.00, 0.00, -0.00, -1.00, 352.9, 10.6)"> </text><text xml:space="preserve" font-family="CourierNewPS-BoldMT,Courier New" font-weight="bold" font-size="42.0" fill="#76BA40" transform="matrix(1.00, 0.00, -0.00, -1.00, 378.1, 10.6)">b</text><text xml:space="preserve" font-family="CourierNewPS-BoldMT,Courier New" font-weight="bold" font-size="42.0" fill="#76BA40" transform="matrix(1.00, 0.00, -0.00, -1.00, 403.3, 10.6)">u</text><text xml:space="preserve" font-family="CourierNewPS-BoldMT,Courier New" font-weight="bold" font-size="42.0" fill="#76BA40" transform="matrix(1.00, 0.00, -0.00, -1.00, 428.5, 10.6)">f</text><text xml:space="preserve" font-family="CourierNewPS-BoldMT,Courier New" font-weight="bold" font-size="42.0" fill="#76BA40" transform="matrix(1.00, 0.00, -0.00, -1.00, 453.7, 10.6)">f</text><text xml:space="preserve" font-family="CourierNewPS-BoldMT,Courier New" font-weight="bold" font-size="42.0" fill="#76BA40" transform="matrix(1.00, 0.00, -0.00, -1.00, 478.9, 10.6)">e</text><text xml:space="preserve" font-family="CourierNewPS-BoldMT,Courier New" font-weight="bold" font-size="42.0" fill="#76BA40" transform="matrix(1.00, 0.00, -0.00, -1.00, 504.2, 10.6)">r</text><text xml:space="preserve" font-family="CourierNewPS-BoldMT,Courier New" font-weight="bold" font-size="42.0" fill="#76BA40" transform="matrix(1.00, 0.00, -0.00, -1.00, 529.4, 10.6)"> </text><text xml:space="preserve" font-family="CourierNewPS-BoldMT,Courier New" font-weight="bold" font-size="42.0" fill="#76BA40" transform="matrix(1.00, 0.00, -0.00, -1.00, 554.6, 10.6)">i</text><text xml:space="preserve" font-family="CourierNewPS-BoldMT,Courier New" font-weight="bold" font-size="42.0" fill="#76BA40" transform="matrix(1.00, 0.00, -0.00, -1.00, 579.8, 10.6)">s</text><text xml:space="preserve" font-family="CourierNewPS-BoldMT,Courier New" font-weight="bold" font-size="42.0" fill="#76BA40" transform="matrix(1.00, 0.00, -0.00, -1.00, 605.0, 10.6)"> </text><text xml:space="preserve" font-family="CourierNewPS-BoldMT,Courier New" font-weight="bold" font-size="42.0" fill="#76BA40" transform="matrix(1.00, 0.00, -0.00, -1.00, 630.2, 10.6)">a</text><text xml:space="preserve" font-family="CourierNewPS-BoldMT,Courier New" font-weight="bold" font-size="42.0" fill="#76BA40" transform="matrix(1.00, 0.00, -0.00, -1.00, 655.4, 10.6)"> </text><text xml:space="preserve" font-family="CourierNewPS-BoldMT,Courier New" font-weight="bold" font-size="42.0" fill="#76BA40" transform="matrix(1.00, 0.00, -0.00, -1.00, 680.6, 10.6)">b</text><text xml:space="preserve" font-family="CourierNewPS-BoldMT,Courier New" font-weight="bold" font-size="42.0" fill="#76BA40" transform="matrix(1.00, 0.00, -0.00, -1.00, 705.8, 10.6)">y</text><text xml:space="preserve" font-family="CourierNewPS-BoldMT,Courier New" font-weight="bold" font-size="42.0" fill="#76BA40" transform="matrix(1.00, 0.00, -0.00, -1.00, 731.0, 10.6)">t</text><text xml:space="preserve" font-family="CourierNewPS-BoldMT,Courier New" font-weight="bold" font-size="42.0" fill="#76BA40" transform="matrix(1.00, 0.00, -0.00, -1.00, 756.2, 10.6)">e</text></g></svg>