<?xml version="1.0" encoding="UTF-8" standalone="no"?><svg xmlns="http://www.w3.org/2000/svg" xmlns:xlink="http://www.w3.org/1999/xlink" clip-rule="evenodd" stroke-miterlimit="10" viewBox="0 0 1024 768"><desc>SVG generated by Keynote</desc><defs></defs><g transform="matrix(1.00, 0.00, -0.00, -1.00, 0.0, 768.0)"><path d="M 0.0 768.0 L 1024.0 768.0 L 1024.0 0.0 L 0.0 0.0 Z M 0.0 768.0 " fill="#FEFFFF"></path><text xml:space="preserve" font-family="Arial-Black,Arial Black" font-weight="bold" font-size="64.0" fill="#000000" transform="matrix(1.00, 0.00, -0.00, -1.00, 99.1, 457.3)">N</text><text xml:space="preserve" font-family="Arial-Black,Arial Black" font-weight="bold" font-size="64.0" fill="#000000" transform="matrix(1.00, 0.00, -0.00, -1.00, 152.4, 457.3)">O</text><text xml:space="preserve" font-family="Arial-Black,Arial Black" font-weight="bold" font-size="64.0" fill="#000000" transform="matrix(1.00, 0.00, -0.00, -1.00, 205.7, 457.3)">P</text><text xml:space="preserve" font-family="Arial-Black,Arial Black" font-weight="bold" font-size="64.0" fill="#000000" transform="matrix(1.00, 0.00, -0.00, -1.00, 251.9, 457.3)">E</text><g><clipPath id="clip0x6080008ac4e0"><path d="M 522.6 739.9 L 978.2 650.7 L 854.6 19.6 L 399.1 108.9 Z M 522.6 739.9 "></path></clipPath><g clip-path="url(#clip0x6080008ac4e0)"><image xlink:href="../../F869E6A8-18AB-4610-A8E2-85BE58725259/assets/EB8048E60360B015D44709A8DD89FDB6.png" width="464.00" height="643.00" transform="matrix(0.98, -0.19, -0.19, -0.98, 522.6, 739.9)" opacity="0.75"></image><image xlink:href="../../F869E6A8-18AB-4610-A8E2-85BE58725259/assets/D85B1E57943D4841CF20BDFEA5524949.png" width="590.00" height="828.00" transform="matrix(0.74, -0.14, -0.14, -0.74, 526.7, 731.8)"></image><path d="M 0.0 0.0 L 443.2 0.0 L 443.2 622.0 L 0.0 622.0 Z M 0.0 0.0 " fill="none" stroke="#000000" stroke-width="1.00" transform="matrix(0.98, -0.19, -0.19, -0.98, 526.7, 731.8)"></path></g></g><g><clipPath id="clip0x6180006bd460"><path d="M 606.0 531.0 L 700.0 531.0 L 700.0 625.0 L 606.0 625.0 Z M 606.0 531.0 "></path></clipPath><g clip-path="url(#clip0x6180006bd460)"><path d="M 683.4 608.4 C 700.2 591.6 700.2 564.4 683.4 547.6 C 666.6 530.8 639.4 530.8 622.6 547.6 C 605.8 564.4 605.8 591.6 622.6 608.4 C 639.4 625.2 666.6 625.2 683.4 608.4 " fill="#FFFFFF"></path><path d="M 73.4 12.6 C 90.2 29.4 90.2 56.6 73.4 73.4 C 56.6 90.2 29.4 90.2 12.6 73.4 C -4.2 56.6 -4.2 29.4 12.6 12.6 C 29.4 -4.2 56.6 -4.2 73.4 12.6 " fill="none" stroke="#000000" stroke-width="6.00" transform="matrix(1.00, 0.00, 0.00, -1.00, 610.0, 621.0)"></path></g></g><g><clipPath id="clip0x6180006bd760"><path d="M 736.0 506.0 L 830.0 506.0 L 830.0 600.0 L 736.0 600.0 Z M 736.0 506.0 "></path></clipPath><g clip-path="url(#clip0x6180006bd760)"><path d="M 813.4 583.4 C 830.2 566.6 830.2 539.4 813.4 522.6 C 796.6 505.8 769.4 505.8 752.6 522.6 C 735.8 539.4 735.8 566.6 752.6 583.4 C 769.4 600.2 796.6 600.2 813.4 583.4 " fill="#FFFFFF"></path><path d="M 73.4 12.6 C 90.2 29.4 90.2 56.6 73.4 73.4 C 56.6 90.2 29.4 90.2 12.6 73.4 C -4.2 56.6 -4.2 29.4 12.6 12.6 C 29.4 -4.2 56.6 -4.2 73.4 12.6 " fill="none" stroke="#000000" stroke-width="6.00" transform="matrix(1.00, 0.00, 0.00, -1.00, 740.0, 596.0)"></path></g></g><g><clipPath id="clip0x6180006bdb20"><path d="M 632.2 587.3 L 678.2 577.7 L 668.8 532.7 L 622.8 542.3 Z M 632.2 587.3 "></path></clipPath><g clip-path="url(#clip0x6180006bdb20)"><path d="M 633.7 584.9 L 675.8 576.2 L 667.3 535.1 L 625.2 543.8 Z M 633.7 584.9 " fill="#000000"></path><path d="M 0.0 0.0 L 43.0 0.0 L 43.0 42.0 L 0.0 42.0 Z M 0.0 0.0 " fill="none" stroke="#000000" stroke-width="2.00" transform="matrix(0.98, -0.20, -0.20, -0.98, 633.7, 584.9)"></path></g></g><g><clipPath id="clip0x6180006bdca0"><path d="M 759.0 562.4 L 805.0 552.8 L 795.6 507.7 L 749.6 517.3 Z M 759.0 562.4 "></path></clipPath><g clip-path="url(#clip0x6180006bdca0)"><path d="M 760.6 560.0 L 802.7 551.2 L 794.1 510.1 L 752.0 518.9 Z M 760.6 560.0 " fill="#000000"></path><path d="M 0.0 0.0 L 43.0 0.0 L 43.0 42.0 L 0.0 42.0 Z M 0.0 0.0 " fill="none" stroke="#000000" stroke-width="2.00" transform="matrix(0.98, -0.20, -0.20, -0.98, 760.6, 560.0)"></path></g></g><g><clipPath id="clip0x6180006be060"><path d="M 634.9 604.2 L 681.7 596.9 L 677.9 572.7 L 631.1 580.0 Z M 634.9 604.2 "></path></clipPath><g clip-path="url(#clip0x6180006be060)"><path d="M 633.4 581.6 L 676.8 574.9 L 636.4 601.4 Z M 633.4 581.6 " fill="#000000"></path><path d="M 0.0 20.0 L 44.0 20.0 L 0.0 0.0 Z M 0.0 20.0 " fill="none" stroke="#000000" stroke-width="2.00" transform="matrix(0.99, -0.15, -0.15, -0.99, 636.4, 601.4)"></path></g></g><g><clipPath id="clip0x6180006be420"><path d="M 762.5 584.0 L 809.4 576.7 L 805.3 550.4 L 758.4 557.7 Z M 762.5 584.0 "></path></clipPath><g clip-path="url(#clip0x6180006be420)"><path d="M 803.6 552.7 L 760.2 559.5 L 807.0 574.5 Z M 803.6 552.7 " fill="#000000"></path><path d="M 44.0 22.0 L 0.0 22.0 L 44.0 0.0 Z M 44.0 22.0 " fill="none" stroke="#000000" stroke-width="2.00" transform="matrix(0.99, -0.15, -0.15, -0.99, 763.6, 581.2)"></path></g></g><g><clipPath id="clip0x6180006be660"><path d="M 584.0 502.0 L 821.0 453.2 L 805.5 377.8 L 568.5 426.6 Z M 584.0 502.0 "></path></clipPath><g clip-path="url(#clip0x6180006be660)"><path d="M 585.5 499.6 L 818.6 451.7 L 803.9 380.2 L 570.8 428.1 Z M 585.5 499.6 " fill="#000000"></path><path d="M 0.0 0.0 L 238.0 0.0 L 238.0 73.0 L 0.0 73.0 Z M 0.0 0.0 " fill="none" stroke="#000000" stroke-width="2.00" transform="matrix(0.98, -0.20, -0.20, -0.98, 585.5, 499.6)"></path></g></g><g><clipPath id="clip0x6180006be960"><path d="M 596.0 417.8 L 790.4 417.8 L 790.4 462.1 L 596.0 462.1 Z M 596.0 417.8 "></path></clipPath><g clip-path="url(#clip0x6180006be960)"><path d="M 0.0 0.0 L 190.9 33.5 " fill="none" stroke="#FFFFFF" stroke-width="9.00" transform="matrix(1.00, 0.00, 0.00, -1.00, 597.7, 456.7)"></path></g></g><g><clipPath id="clip0x6180006beba0"><path d="M 610.9 430.8 L 625.0 430.8 L 625.0 471.5 L 610.9 471.5 Z M 610.9 430.8 "></path></clipPath><g clip-path="url(#clip0x6180006beba0)"><path d="M 6.2 0.0 L 0.0 37.7 " fill="none" stroke="#FFFFFF" stroke-width="6.00" transform="matrix(1.00, 0.00, 0.00, -1.00, 614.8, 470.0)"></path></g></g><g><clipPath id="clip0x6180006bede0"><path d="M 636.0 427.8 L 650.1 427.8 L 650.1 468.5 L 636.0 468.5 Z M 636.0 427.8 "></path></clipPath><g clip-path="url(#clip0x6180006bede0)"><path d="M 6.2 0.0 L 0.0 37.7 " fill="none" stroke="#FFFFFF" stroke-width="6.00" transform="matrix(1.00, 0.00, 0.00, -1.00, 640.0, 467.0)"></path></g></g><g><clipPath id="clip0x6180006bf020"><path d="M 661.0 422.8 L 675.1 422.8 L 675.1 463.5 L 661.0 463.5 Z M 661.0 422.8 "></path></clipPath><g clip-path="url(#clip0x6180006bf020)"><path d="M 6.2 0.0 L 0.0 37.7 " fill="none" stroke="#FFFFFF" stroke-width="6.00" transform="matrix(1.00, 0.00, 0.00, -1.00, 665.0, 462.0)"></path></g></g><g><clipPath id="clip0x6180006bf260"><path d="M 686.0 417.8 L 700.1 417.8 L 700.1 458.5 L 686.0 458.5 Z M 686.0 417.8 "></path></clipPath><g clip-path="url(#clip0x6180006bf260)"><path d="M 6.2 0.0 L 0.0 37.7 " fill="none" stroke="#FFFFFF" stroke-width="6.00" transform="matrix(1.00, 0.00, 0.00, -1.00, 690.0, 457.0)"></path></g></g><g><clipPath id="clip0x6180006bf4a0"><path d="M 712.0 412.8 L 726.1 412.8 L 726.1 453.5 L 712.0 453.5 Z M 712.0 412.8 "></path></clipPath><g clip-path="url(#clip0x6180006bf4a0)"><path d="M 6.2 0.0 L 0.0 37.7 " fill="none" stroke="#FFFFFF" stroke-width="6.00" transform="matrix(1.00, 0.00, 0.00, -1.00, 716.0, 452.0)"></path></g></g><g><clipPath id="clip0x6180006bf6e0"><path d="M 739.0 408.8 L 753.1 408.8 L 753.1 449.5 L 739.0 449.5 Z M 739.0 408.8 "></path></clipPath><g clip-path="url(#clip0x6180006bf6e0)"><path d="M 6.2 0.0 L 0.0 37.7 " fill="none" stroke="#FFFFFF" stroke-width="6.00" transform="matrix(1.00, 0.00, 0.00, -1.00, 743.0, 448.0)"></path></g></g><g><clipPath id="clip0x6180006bf920"><path d="M 765.0 402.8 L 779.1 402.8 L 779.1 443.5 L 765.0 443.5 Z M 765.0 402.8 "></path></clipPath><g clip-path="url(#clip0x6180006bf920)"><path d="M 6.2 0.0 L 0.0 37.7 " fill="none" stroke="#FFFFFF" stroke-width="6.00" transform="matrix(1.00, 0.00, 0.00, -1.00, 769.0, 442.0)"></path></g></g><g><clipPath id="clip0x6180006bfb60"><path d="M 658.6 614.4 L 697.0 614.4 L 697.0 657.0 L 658.6 657.0 Z M 658.6 614.4 "></path></clipPath><g clip-path="url(#clip0x6180006bfb60)"><path d="M 0.0 0.0 L 30.4 35.4 " fill="none" stroke="#000000" stroke-width="8.00" transform="matrix(1.00, 0.00, 0.00, -1.00, 662.6, 653.4)"></path></g></g><g><clipPath id="clip0x6180006bfda0"><path d="M 758.9 602.8 L 813.8 602.8 L 813.8 632.6 L 758.9 632.6 Z M 758.9 602.8 "></path></clipPath><g clip-path="url(#clip0x6180006bfda0)"><path d="M 49.9 0.0 L 0.0 20.3 " fill="none" stroke="#000000" stroke-width="8.00" transform="matrix(1.00, 0.00, 0.00, -1.00, 761.4, 627.9)"></path></g></g></g></svg>