<?xml version="1.0" encoding="UTF-8" standalone="no"?><svg xmlns="http://www.w3.org/2000/svg" xmlns:xlink="http://www.w3.org/1999/xlink" clip-rule="evenodd" stroke-miterlimit="10" viewBox="0 0 1024 768"><desc>SVG generated by Keynote</desc><defs></defs><g transform="matrix(1.00, 0.00, -0.00, -1.00, 0.0, 768.0)"><path d="M 0.0 768.0 L 1024.0 768.0 L 1024.0 0.0 L 0.0 0.0 Z M 0.0 768.0 " fill="#FEFFFF"></path><path d="M 146.0 457.0 L 862.0 457.0 L 862.0 396.0 L 146.0 396.0 Z M 146.0 457.0 " fill="#76BA40"></path><path d="M -122.0 479.0 L 147.0 479.0 L 147.0 379.0 L -122.0 379.0 Z M -122.0 479.0 " fill="#FFFFFF"></path><text xml:space="preserve" font-family="Vipond-Octic,Vipond Octic" font-size="96.0" fill="#000000" transform="matrix(1.00, 0.00, -0.00, -1.00, 152.6, 471.5)">E</text><text xml:space="preserve" font-family="Vipond-Octic,Vipond Octic" font-size="96.0" fill="#000000" transform="matrix(1.00, 0.00, -0.00, -1.00, 212.6, 471.5)">G</text><text xml:space="preserve" font-family="Vipond-Octic,Vipond Octic" font-size="96.0" fill="#000000" transform="matrix(1.00, 0.00, -0.00, -1.00, 272.6, 471.5)">O</text><g opacity="0.00"><g><clipPath id="clip0x6100008ac900"><path d="M 145.0 395.0 L 341.0 395.0 L 341.0 459.0 L 145.0 459.0 Z M 145.0 395.0 "></path></clipPath><g clip-path="url(#clip0x6100008ac900)"><path d="M 146.0 458.0 L 340.0 458.0 L 340.0 396.0 L 146.0 396.0 Z M 146.0 458.0 " fill="#B51A00"></path></g></g></g><path d="M 0.0 0.0 L 716.0 0.0 L 716.0 61.0 L 0.0 61.0 Z M 0.0 0.0 " fill="none" stroke="#000000" stroke-width="2.00" transform="matrix(1.00, 0.00, 0.00, -1.00, 146.0, 457.0)"></path></g></svg>