<?xml version="1.0" encoding="UTF-8" standalone="no"?><svg xmlns="http://www.w3.org/2000/svg" xmlns:xlink="http://www.w3.org/1999/xlink" clip-rule="evenodd" stroke-miterlimit="10" viewBox="0 0 580 721"><desc>SVG generated by Keynote</desc><defs></defs><g transform="matrix(1.00, 0.00, -0.00, -1.00, 0.0, 721.0)"><g><clipPath id="clip0x600000ca6600"><path d="M 123.6 720.9 L 579.2 631.7 L 455.6 0.6 L 0.1 89.9 Z M 123.6 720.9 "></path></clipPath><g clip-path="url(#clip0x600000ca6600)"><image xlink:href="../../F869E6A8-18AB-4610-A8E2-85BE58725259/assets/EB8048E60360B015D44709A8DD89FDB6.png" width="464.00" height="643.00" transform="matrix(0.98, -0.19, -0.19, -0.98, 123.6, 720.9)" opacity="0.75"></image><image xlink:href="../../F869E6A8-18AB-4610-A8E2-85BE58725259/assets/D85B1E57943D4841CF20BDFEA5524949.png" width="590.00" height="828.00" transform="matrix(0.74, -0.14, -0.14, -0.74, 127.7, 712.8)"></image><path d="M 0.0 0.0 L 443.2 0.0 L 443.2 622.0 L 0.0 622.0 Z M 0.0 0.0 " fill="none" stroke="#000000" stroke-width="1.00" transform="matrix(0.98, -0.19, -0.19, -0.98, 127.7, 712.8)"></path></g></g><g><clipPath id="clip0x600000ca68a0"><path d="M 207.0 512.0 L 301.0 512.0 L 301.0 606.0 L 207.0 606.0 Z M 207.0 512.0 "></path></clipPath><g clip-path="url(#clip0x600000ca68a0)"><path d="M 284.4 589.4 C 301.2 572.6 301.2 545.4 284.4 528.6 C 267.6 511.8 240.4 511.8 223.6 528.6 C 206.8 545.4 206.8 572.6 223.6 589.4 C 240.4 606.2 267.6 606.2 284.4 589.4 " fill="#FFFFFF"></path><path d="M 73.4 12.6 C 90.2 29.4 90.2 56.6 73.4 73.4 C 56.6 90.2 29.4 90.2 12.6 73.4 C -4.2 56.6 -4.2 29.4 12.6 12.6 C 29.4 -4.2 56.6 -4.2 73.4 12.6 " fill="none" stroke="#000000" stroke-width="6.00" transform="matrix(1.00, 0.00, 0.00, -1.00, 211.0, 602.0)"></path></g></g><g><clipPath id="clip0x600000ca6ba0"><path d="M 337.0 487.0 L 431.0 487.0 L 431.0 581.0 L 337.0 581.0 Z M 337.0 487.0 "></path></clipPath><g clip-path="url(#clip0x600000ca6ba0)"><path d="M 414.4 564.4 C 431.2 547.6 431.2 520.4 414.4 503.6 C 397.6 486.8 370.4 486.8 353.6 503.6 C 336.8 520.4 336.8 547.6 353.6 564.4 C 370.4 581.2 397.6 581.2 414.4 564.4 " fill="#FFFFFF"></path><path d="M 73.4 12.6 C 90.2 29.4 90.2 56.6 73.4 73.4 C 56.6 90.2 29.4 90.2 12.6 73.4 C -4.2 56.6 -4.2 29.4 12.6 12.6 C 29.4 -4.2 56.6 -4.2 73.4 12.6 " fill="none" stroke="#000000" stroke-width="6.00" transform="matrix(1.00, 0.00, 0.00, -1.00, 341.0, 577.0)"></path></g></g><g><clipPath id="clip0x600000ca6ea0"><path d="M 233.2 568.3 L 279.2 558.7 L 269.8 513.7 L 223.8 523.3 Z M 233.2 568.3 "></path></clipPath><g clip-path="url(#clip0x600000ca6ea0)"><path d="M 234.7 565.9 L 276.8 557.2 L 268.3 516.1 L 226.2 524.8 Z M 234.7 565.9 " fill="#000000"></path><path d="M 0.0 0.0 L 43.0 0.0 L 43.0 42.0 L 0.0 42.0 Z M 0.0 0.0 " fill="none" stroke="#000000" stroke-width="2.00" transform="matrix(0.98, -0.20, -0.20, -0.98, 234.7, 565.9)"></path></g></g><g><clipPath id="clip0x600000ca71a0"><path d="M 360.0 543.4 L 406.0 533.8 L 396.6 488.7 L 350.6 498.3 Z M 360.0 543.4 "></path></clipPath><g clip-path="url(#clip0x600000ca71a0)"><path d="M 361.6 541.0 L 403.7 532.2 L 395.1 491.1 L 353.0 499.9 Z M 361.6 541.0 " fill="#000000"></path><path d="M 0.0 0.0 L 43.0 0.0 L 43.0 42.0 L 0.0 42.0 Z M 0.0 0.0 " fill="none" stroke="#000000" stroke-width="2.00" transform="matrix(0.98, -0.20, -0.20, -0.98, 361.6, 541.0)"></path></g></g><g><clipPath id="clip0x600000ca74a0"><path d="M 235.9 585.2 L 282.7 577.9 L 278.9 553.7 L 232.1 561.0 Z M 235.9 585.2 "></path></clipPath><g clip-path="url(#clip0x600000ca74a0)"><path d="M 234.4 562.6 L 277.8 555.9 L 237.4 582.4 Z M 234.4 562.6 " fill="#000000"></path><path d="M 0.0 20.0 L 44.0 20.0 L 0.0 0.0 Z M 0.0 20.0 " fill="none" stroke="#000000" stroke-width="2.00" transform="matrix(0.99, -0.15, -0.15, -0.99, 237.4, 582.4)"></path></g></g><g><clipPath id="clip0x600000ca77a0"><path d="M 363.5 565.0 L 410.4 557.7 L 406.3 531.4 L 359.4 538.7 Z M 363.5 565.0 "></path></clipPath><g clip-path="url(#clip0x600000ca77a0)"><path d="M 404.6 533.7 L 361.2 540.5 L 408.0 555.5 Z M 404.6 533.7 " fill="#000000"></path><path d="M 44.0 22.0 L 0.0 22.0 L 44.0 0.0 Z M 44.0 22.0 " fill="none" stroke="#000000" stroke-width="2.00" transform="matrix(0.99, -0.15, -0.15, -0.99, 364.6, 562.2)"></path></g></g><g><clipPath id="clip0x600000ca7aa0"><path d="M 185.0 483.0 L 422.0 434.2 L 406.5 358.8 L 169.5 407.6 Z M 185.0 483.0 "></path></clipPath><g clip-path="url(#clip0x600000ca7aa0)"><path d="M 186.5 480.6 L 419.6 432.7 L 404.9 361.2 L 171.8 409.1 Z M 186.5 480.6 " fill="#000000"></path><path d="M 0.0 0.0 L 238.0 0.0 L 238.0 73.0 L 0.0 73.0 Z M 0.0 0.0 " fill="none" stroke="#000000" stroke-width="2.00" transform="matrix(0.98, -0.20, -0.20, -0.98, 186.5, 480.6)"></path></g></g><g><clipPath id="clip0x600000ca7da0"><path d="M 197.0 398.8 L 391.4 398.8 L 391.4 443.1 L 197.0 443.1 Z M 197.0 398.8 "></path></clipPath><g clip-path="url(#clip0x600000ca7da0)"><path d="M 0.0 0.0 L 190.9 33.5 " fill="none" stroke="#FFFFFF" stroke-width="9.00" transform="matrix(1.00, 0.00, 0.00, -1.00, 198.7, 437.7)"></path></g></g><g><clipPath id="clip0x600000ca7fe0"><path d="M 211.9 411.8 L 226.0 411.8 L 226.0 452.5 L 211.9 452.5 Z M 211.9 411.8 "></path></clipPath><g clip-path="url(#clip0x600000ca7fe0)"><path d="M 6.2 0.0 L 0.0 37.7 " fill="none" stroke="#FFFFFF" stroke-width="6.00" transform="matrix(1.00, 0.00, 0.00, -1.00, 215.8, 451.0)"></path></g></g><g><clipPath id="clip0x600000ca8220"><path d="M 237.0 408.8 L 251.1 408.8 L 251.1 449.5 L 237.0 449.5 Z M 237.0 408.8 "></path></clipPath><g clip-path="url(#clip0x600000ca8220)"><path d="M 6.2 0.0 L 0.0 37.7 " fill="none" stroke="#FFFFFF" stroke-width="6.00" transform="matrix(1.00, 0.00, 0.00, -1.00, 241.0, 448.0)"></path></g></g><g><clipPath id="clip0x600000ca8460"><path d="M 262.0 403.8 L 276.1 403.8 L 276.1 444.5 L 262.0 444.5 Z M 262.0 403.8 "></path></clipPath><g clip-path="url(#clip0x600000ca8460)"><path d="M 6.2 0.0 L 0.0 37.7 " fill="none" stroke="#FFFFFF" stroke-width="6.00" transform="matrix(1.00, 0.00, 0.00, -1.00, 266.0, 443.0)"></path></g></g><g><clipPath id="clip0x600000ca86a0"><path d="M 287.0 398.8 L 301.1 398.8 L 301.1 439.5 L 287.0 439.5 Z M 287.0 398.8 "></path></clipPath><g clip-path="url(#clip0x600000ca86a0)"><path d="M 6.2 0.0 L 0.0 37.7 " fill="none" stroke="#FFFFFF" stroke-width="6.00" transform="matrix(1.00, 0.00, 0.00, -1.00, 291.0, 438.0)"></path></g></g><g><clipPath id="clip0x600000ca88e0"><path d="M 313.0 393.8 L 327.1 393.8 L 327.1 434.5 L 313.0 434.5 Z M 313.0 393.8 "></path></clipPath><g clip-path="url(#clip0x600000ca88e0)"><path d="M 6.2 0.0 L 0.0 37.7 " fill="none" stroke="#FFFFFF" stroke-width="6.00" transform="matrix(1.00, 0.00, 0.00, -1.00, 317.0, 433.0)"></path></g></g><g><clipPath id="clip0x600000ca8b20"><path d="M 340.0 389.8 L 354.1 389.8 L 354.1 430.5 L 340.0 430.5 Z M 340.0 389.8 "></path></clipPath><g clip-path="url(#clip0x600000ca8b20)"><path d="M 6.2 0.0 L 0.0 37.7 " fill="none" stroke="#FFFFFF" stroke-width="6.00" transform="matrix(1.00, 0.00, 0.00, -1.00, 344.0, 429.0)"></path></g></g><g><clipPath id="clip0x600000ca8d60"><path d="M 366.0 383.8 L 380.1 383.8 L 380.1 424.5 L 366.0 424.5 Z M 366.0 383.8 "></path></clipPath><g clip-path="url(#clip0x600000ca8d60)"><path d="M 6.2 0.0 L 0.0 37.7 " fill="none" stroke="#FFFFFF" stroke-width="6.00" transform="matrix(1.00, 0.00, 0.00, -1.00, 370.0, 423.0)"></path></g></g><g><clipPath id="clip0x600000ca8fa0"><path d="M 259.6 595.4 L 298.0 595.4 L 298.0 638.0 L 259.6 638.0 Z M 259.6 595.4 "></path></clipPath><g clip-path="url(#clip0x600000ca8fa0)"><path d="M 0.0 0.0 L 30.4 35.4 " fill="none" stroke="#000000" stroke-width="8.00" transform="matrix(1.00, 0.00, 0.00, -1.00, 263.6, 634.4)"></path></g></g><g><clipPath id="clip0x600000ca91e0"><path d="M 359.9 583.8 L 414.8 583.8 L 414.8 613.6 L 359.9 613.6 Z M 359.9 583.8 "></path></clipPath><g clip-path="url(#clip0x600000ca91e0)"><path d="M 49.9 0.0 L 0.0 20.3 " fill="none" stroke="#000000" stroke-width="8.00" transform="matrix(1.00, 0.00, 0.00, -1.00, 362.4, 608.9)"></path></g></g></g></svg>