<?xml version="1.0" encoding="UTF-8" standalone="no"?><svg xmlns="http://www.w3.org/2000/svg" xmlns:xlink="http://www.w3.org/1999/xlink" clip-rule="evenodd" stroke-miterlimit="10" viewBox="0 0 1024 768"><desc>SVG generated by Keynote</desc><defs></defs><g transform="matrix(1.00, 0.00, -0.00, -1.00, 0.0, 768.0)"><path d="M 0.0 768.0 L 1024.0 768.0 L 1024.0 0.0 L 0.0 0.0 Z M 0.0 768.0 " fill="#FEFFFF"></path><g><clipPath id="clip0x6080006bdca0"><path d="M 529.6 751.9 L 985.2 662.7 L 861.6 31.6 L 406.1 120.9 Z M 529.6 751.9 "></path></clipPath><g clip-path="url(#clip0x6080006bdca0)"><image xlink:href="../../F869E6A8-18AB-4610-A8E2-85BE58725259/assets/EB8048E60360B015D44709A8DD89FDB6.png" width="464.00" height="643.00" transform="matrix(0.98, -0.19, -0.19, -0.98, 529.6, 751.9)" opacity="0.75"></image><image xlink:href="../../F869E6A8-18AB-4610-A8E2-85BE58725259/assets/D85B1E57943D4841CF20BDFEA5524949.png" width="590.00" height="828.00" transform="matrix(0.74, -0.14, -0.14, -0.74, 533.7, 743.8)"></image><path d="M 0.0 0.0 L 443.2 0.0 L 443.2 622.0 L 0.0 622.0 Z M 0.0 0.0 " fill="none" stroke="#000000" stroke-width="1.00" transform="matrix(0.98, -0.19, -0.19, -0.98, 533.7, 743.8)"></path></g></g><g><clipPath id="clip0x6080006be0c0"><path d="M 613.0 543.0 L 707.0 543.0 L 707.0 637.0 L 613.0 637.0 Z M 613.0 543.0 "></path></clipPath><g clip-path="url(#clip0x6080006be0c0)"><path d="M 690.4 620.4 C 707.2 603.6 707.2 576.4 690.4 559.6 C 673.6 542.8 646.4 542.8 629.6 559.6 C 612.8 576.4 612.8 603.6 629.6 620.4 C 646.4 637.2 673.6 637.2 690.4 620.4 " fill="#FFFFFF"></path><path d="M 73.4 12.6 C 90.2 29.4 90.2 56.6 73.4 73.4 C 56.6 90.2 29.4 90.2 12.6 73.4 C -4.2 56.6 -4.2 29.4 12.6 12.6 C 29.4 -4.2 56.6 -4.2 73.4 12.6 " fill="none" stroke="#000000" stroke-width="6.00" transform="matrix(1.00, 0.00, 0.00, -1.00, 617.0, 633.0)"></path></g></g><g><clipPath id="clip0x6080006be3c0"><path d="M 743.0 518.0 L 837.0 518.0 L 837.0 612.0 L 743.0 612.0 Z M 743.0 518.0 "></path></clipPath><g clip-path="url(#clip0x6080006be3c0)"><path d="M 820.4 595.4 C 837.2 578.6 837.2 551.4 820.4 534.6 C 803.6 517.8 776.4 517.8 759.6 534.6 C 742.8 551.4 742.8 578.6 759.6 595.4 C 776.4 612.2 803.6 612.2 820.4 595.4 " fill="#FFFFFF"></path><path d="M 73.4 12.6 C 90.2 29.4 90.2 56.6 73.4 73.4 C 56.6 90.2 29.4 90.2 12.6 73.4 C -4.2 56.6 -4.2 29.4 12.6 12.6 C 29.4 -4.2 56.6 -4.2 73.4 12.6 " fill="none" stroke="#000000" stroke-width="6.00" transform="matrix(1.00, 0.00, 0.00, -1.00, 747.0, 608.0)"></path></g></g><g><clipPath id="clip0x6080006be6c0"><path d="M 639.2 599.3 L 685.2 589.7 L 675.8 544.7 L 629.8 554.3 Z M 639.2 599.3 "></path></clipPath><g clip-path="url(#clip0x6080006be6c0)"><path d="M 640.7 596.9 L 682.8 588.2 L 674.3 547.1 L 632.2 555.8 Z M 640.7 596.9 " fill="#000000"></path><path d="M 0.0 0.0 L 43.0 0.0 L 43.0 42.0 L 0.0 42.0 Z M 0.0 0.0 " fill="none" stroke="#000000" stroke-width="2.00" transform="matrix(0.98, -0.20, -0.20, -0.98, 640.7, 596.9)"></path></g></g><g><clipPath id="clip0x6080006be9c0"><path d="M 766.0 574.4 L 812.0 564.8 L 802.6 519.7 L 756.6 529.3 Z M 766.0 574.4 "></path></clipPath><g clip-path="url(#clip0x6080006be9c0)"><path d="M 767.6 572.0 L 809.7 563.2 L 801.1 522.1 L 759.0 530.9 Z M 767.6 572.0 " fill="#000000"></path><path d="M 0.0 0.0 L 43.0 0.0 L 43.0 42.0 L 0.0 42.0 Z M 0.0 0.0 " fill="none" stroke="#000000" stroke-width="2.00" transform="matrix(0.98, -0.20, -0.20, -0.98, 767.6, 572.0)"></path></g></g><g><clipPath id="clip0x6080006becc0"><path d="M 641.9 616.2 L 688.7 608.9 L 684.9 584.7 L 638.1 592.0 Z M 641.9 616.2 "></path></clipPath><g clip-path="url(#clip0x6080006becc0)"><path d="M 640.4 593.6 L 683.8 586.9 L 643.4 613.4 Z M 640.4 593.6 " fill="#000000"></path><path d="M 0.0 20.0 L 44.0 20.0 L 0.0 0.0 Z M 0.0 20.0 " fill="none" stroke="#000000" stroke-width="2.00" transform="matrix(0.99, -0.15, -0.15, -0.99, 643.4, 613.4)"></path></g></g><g><clipPath id="clip0x6080006befc0"><path d="M 769.5 596.0 L 816.4 588.7 L 812.3 562.4 L 765.4 569.7 Z M 769.5 596.0 "></path></clipPath><g clip-path="url(#clip0x6080006befc0)"><path d="M 810.6 564.7 L 767.2 571.5 L 814.0 586.5 Z M 810.6 564.7 " fill="#000000"></path><path d="M 44.0 22.0 L 0.0 22.0 L 44.0 0.0 Z M 44.0 22.0 " fill="none" stroke="#000000" stroke-width="2.00" transform="matrix(0.99, -0.15, -0.15, -0.99, 770.6, 593.2)"></path></g></g><g><clipPath id="clip0x6080006bf2c0"><path d="M 591.0 514.0 L 828.0 465.2 L 812.5 389.8 L 575.5 438.6 Z M 591.0 514.0 "></path></clipPath><g clip-path="url(#clip0x6080006bf2c0)"><path d="M 592.5 511.6 L 825.6 463.7 L 810.9 392.2 L 577.8 440.1 Z M 592.5 511.6 " fill="#000000"></path><path d="M 0.0 0.0 L 238.0 0.0 L 238.0 73.0 L 0.0 73.0 Z M 0.0 0.0 " fill="none" stroke="#000000" stroke-width="2.00" transform="matrix(0.98, -0.20, -0.20, -0.98, 592.5, 511.6)"></path></g></g><g><clipPath id="clip0x6080006bf5c0"><path d="M 603.0 429.8 L 797.4 429.8 L 797.4 474.1 L 603.0 474.1 Z M 603.0 429.8 "></path></clipPath><g clip-path="url(#clip0x6080006bf5c0)"><path d="M 0.0 0.0 L 190.9 33.5 " fill="none" stroke="#FFFFFF" stroke-width="9.00" transform="matrix(1.00, 0.00, 0.00, -1.00, 604.7, 468.7)"></path></g></g><g><clipPath id="clip0x6080006bf800"><path d="M 617.9 442.8 L 632.0 442.8 L 632.0 483.5 L 617.9 483.5 Z M 617.9 442.8 "></path></clipPath><g clip-path="url(#clip0x6080006bf800)"><path d="M 6.2 0.0 L 0.0 37.7 " fill="none" stroke="#FFFFFF" stroke-width="6.00" transform="matrix(1.00, 0.00, 0.00, -1.00, 621.8, 482.0)"></path></g></g><g><clipPath id="clip0x6080006bfa40"><path d="M 643.0 439.8 L 657.1 439.8 L 657.1 480.5 L 643.0 480.5 Z M 643.0 439.8 "></path></clipPath><g clip-path="url(#clip0x6080006bfa40)"><path d="M 6.2 0.0 L 0.0 37.7 " fill="none" stroke="#FFFFFF" stroke-width="6.00" transform="matrix(1.00, 0.00, 0.00, -1.00, 647.0, 479.0)"></path></g></g><g><clipPath id="clip0x6080006bfc80"><path d="M 668.0 434.8 L 682.1 434.8 L 682.1 475.5 L 668.0 475.5 Z M 668.0 434.8 "></path></clipPath><g clip-path="url(#clip0x6080006bfc80)"><path d="M 6.2 0.0 L 0.0 37.7 " fill="none" stroke="#FFFFFF" stroke-width="6.00" transform="matrix(1.00, 0.00, 0.00, -1.00, 672.0, 474.0)"></path></g></g><g><clipPath id="clip0x6080006bfec0"><path d="M 693.0 429.8 L 707.1 429.8 L 707.1 470.5 L 693.0 470.5 Z M 693.0 429.8 "></path></clipPath><g clip-path="url(#clip0x6080006bfec0)"><path d="M 6.2 0.0 L 0.0 37.7 " fill="none" stroke="#FFFFFF" stroke-width="6.00" transform="matrix(1.00, 0.00, 0.00, -1.00, 697.0, 469.0)"></path></g></g><g><clipPath id="clip0x6080008a0120"><path d="M 719.0 424.8 L 733.1 424.8 L 733.1 465.5 L 719.0 465.5 Z M 719.0 424.8 "></path></clipPath><g clip-path="url(#clip0x6080008a0120)"><path d="M 6.2 0.0 L 0.0 37.7 " fill="none" stroke="#FFFFFF" stroke-width="6.00" transform="matrix(1.00, 0.00, 0.00, -1.00, 723.0, 464.0)"></path></g></g><g><clipPath id="clip0x6080008a0360"><path d="M 746.0 420.8 L 760.1 420.8 L 760.1 461.5 L 746.0 461.5 Z M 746.0 420.8 "></path></clipPath><g clip-path="url(#clip0x6080008a0360)"><path d="M 6.2 0.0 L 0.0 37.7 " fill="none" stroke="#FFFFFF" stroke-width="6.00" transform="matrix(1.00, 0.00, 0.00, -1.00, 750.0, 460.0)"></path></g></g><g><clipPath id="clip0x6080008a05a0"><path d="M 772.0 414.8 L 786.1 414.8 L 786.1 455.5 L 772.0 455.5 Z M 772.0 414.8 "></path></clipPath><g clip-path="url(#clip0x6080008a05a0)"><path d="M 6.2 0.0 L 0.0 37.7 " fill="none" stroke="#FFFFFF" stroke-width="6.00" transform="matrix(1.00, 0.00, 0.00, -1.00, 776.0, 454.0)"></path></g></g><g><clipPath id="clip0x6080008a07e0"><path d="M 665.6 626.4 L 704.0 626.4 L 704.0 669.0 L 665.6 669.0 Z M 665.6 626.4 "></path></clipPath><g clip-path="url(#clip0x6080008a07e0)"><path d="M 0.0 0.0 L 30.4 35.4 " fill="none" stroke="#000000" stroke-width="8.00" transform="matrix(1.00, 0.00, 0.00, -1.00, 669.6, 665.4)"></path></g></g><g><clipPath id="clip0x6080008a0a20"><path d="M 765.9 614.8 L 820.8 614.8 L 820.8 644.6 L 765.9 644.6 Z M 765.9 614.8 "></path></clipPath><g clip-path="url(#clip0x6080008a0a20)"><path d="M 49.9 0.0 L 0.0 20.3 " fill="none" stroke="#000000" stroke-width="8.00" transform="matrix(1.00, 0.00, 0.00, -1.00, 768.4, 639.9)"></path></g></g><text xml:space="preserve" font-family="Vipond-Octic,Vipond Octic" font-size="72.0" fill="#000000" transform="matrix(1.00, 0.00, -0.00, -1.00, 113.6, 560.0)">A</text><text xml:space="preserve" font-family="Vipond-Octic,Vipond Octic" font-size="72.0" fill="#000000" transform="matrix(1.00, 0.00, -0.00, -1.00, 176.6, 560.0)">W</text><text xml:space="preserve" font-family="Vipond-Octic,Vipond Octic" font-size="72.0" fill="#000000" transform="matrix(1.00, 0.00, -0.00, -1.00, 239.6, 560.0)">I</text><text xml:space="preserve" font-family="Vipond-Octic,Vipond Octic" font-size="72.0" fill="#000000" transform="matrix(1.00, 0.00, -0.00, -1.00, 266.6, 560.0)">L</text><text xml:space="preserve" font-family="Vipond-Octic,Vipond Octic" font-size="72.0" fill="#000000" transform="matrix(1.00, 0.00, -0.00, -1.00, 311.6, 560.0)">D</text><text xml:space="preserve" font-family="Vipond-Octic,Vipond Octic" font-size="72.0" fill="#000000" transform="matrix(1.00, 0.00, -0.00, -1.00, 32.6, 497.0)">D</text><text xml:space="preserve" font-family="Vipond-Octic,Vipond Octic" font-size="72.0" fill="#000000" transform="matrix(1.00, 0.00, -0.00, -1.00, 77.6, 497.0)">A</text><text xml:space="preserve" font-family="Vipond-Octic,Vipond Octic" font-size="72.0" fill="#000000" transform="matrix(1.00, 0.00, -0.00, -1.00, 122.6, 497.0)">T</text><text xml:space="preserve" font-family="Vipond-Octic,Vipond Octic" font-size="72.0" fill="#000000" transform="matrix(1.00, 0.00, -0.00, -1.00, 167.6, 497.0)">A</text><text xml:space="preserve" font-family="Vipond-Octic,Vipond Octic" font-size="72.0" fill="#000000" transform="matrix(1.00, 0.00, -0.00, -1.00, 212.6, 497.0)">S</text><text xml:space="preserve" font-family="Vipond-Octic,Vipond Octic" font-size="72.0" fill="#000000" transform="matrix(1.00, 0.00, -0.00, -1.00, 257.6, 497.0)">H</text><text xml:space="preserve" font-family="Vipond-Octic,Vipond Octic" font-size="72.0" fill="#000000" transform="matrix(1.00, 0.00, -0.00, -1.00, 302.6, 497.0)">E</text><text xml:space="preserve" font-family="Vipond-Octic,Vipond Octic" font-size="72.0" fill="#000000" transform="matrix(1.00, 0.00, -0.00, -1.00, 347.6, 497.0)">E</text><text xml:space="preserve" font-family="Vipond-Octic,Vipond Octic" font-size="72.0" fill="#000000" transform="matrix(1.00, 0.00, -0.00, -1.00, 392.6, 497.0)">T</text><text xml:space="preserve" font-family="Vipond-Octic,Vipond Octic" font-size="72.0" fill="#000000" transform="matrix(1.00, 0.00, -0.00, -1.00, 64.1, 434.0)">A</text><text xml:space="preserve" font-family="Vipond-Octic,Vipond Octic" font-size="72.0" fill="#000000" transform="matrix(1.00, 0.00, -0.00, -1.00, 109.1, 434.0)">P</text><text xml:space="preserve" font-family="Vipond-Octic,Vipond Octic" font-size="72.0" fill="#000000" transform="matrix(1.00, 0.00, -0.00, -1.00, 154.1, 434.0)">P</text><text xml:space="preserve" font-family="Vipond-Octic,Vipond Octic" font-size="72.0" fill="#000000" transform="matrix(1.00, 0.00, -0.00, -1.00, 199.1, 434.0)">E</text><text xml:space="preserve" font-family="Vipond-Octic,Vipond Octic" font-size="72.0" fill="#000000" transform="matrix(1.00, 0.00, -0.00, -1.00, 244.1, 434.0)">A</text><text xml:space="preserve" font-family="Vipond-Octic,Vipond Octic" font-size="72.0" fill="#000000" transform="matrix(1.00, 0.00, -0.00, -1.00, 289.1, 434.0)">R</text><text xml:space="preserve" font-family="Vipond-Octic,Vipond Octic" font-size="72.0" fill="#000000" transform="matrix(1.00, 0.00, -0.00, -1.00, 334.1, 434.0)">S</text><text xml:space="preserve" font-family="Vipond-Octic,Vipond Octic" font-size="72.0" fill="#000000" transform="matrix(1.00, 0.00, -0.00, -1.00, 379.1, 434.0)">!</text></g></svg>