<?xml version="1.0" encoding="UTF-8" standalone="no"?><svg xmlns="http://www.w3.org/2000/svg" xmlns:xlink="http://www.w3.org/1999/xlink" clip-rule="evenodd" stroke-miterlimit="10" viewBox="0 0 205 379"><desc>SVG generated by Keynote</desc><defs></defs><g transform="matrix(1.00, 0.00, -0.00, -1.00, 0.0, 379.0)"><g><clipPath id="clip0x610000eae820"><path d="M 1.0 378.0 L 204.0 378.0 L 204.0 2.0 L 1.0 2.0 Z M 1.0 378.0 "></path></clipPath><g clip-path="url(#clip0x610000eae820)"><g><clipPath id="clip0x610000eae940"><path d="M 1.0 2.0 L 204.0 2.0 L 204.0 378.0 L 1.0 378.0 Z M 1.0 2.0 "></path></clipPath><g clip-path="url(#clip0x610000eae940)"><path d="M 0.0 0.0 L 13.2 -19.0 L -0.5 -31.0 L -0.5 -37.0 " fill="none" stroke="#29ABE1" stroke-width="3.00" transform="matrix(3.01, 0.00, 0.00, 2.98, 79.3, 115.3)"></path><path d="M 0.0 0.0 L 10.0 -18.5 L 0.0 -31.0 L 5.0 -37.0 " fill="none" stroke="#29ABE1" stroke-width="3.00" transform="matrix(3.01, 0.00, 0.00, 2.98, 133.3, 115.3)"></path><path d="M 199.5 322.7 C 199.5 307.0 186.7 294.3 170.9 294.3 C 155.1 294.3 142.3 307.0 142.3 322.7 C 142.3 338.4 155.1 351.0 170.9 351.0 C 186.7 351.0 199.5 338.4 199.5 322.7 " fill="#FFFFFF"></path><path d="M 0.0 0.0 C 0.0 -5.2 -4.3 -9.5 -9.5 -9.5 C -14.7 -9.5 -19.0 -5.2 -19.0 0.0 C -19.0 5.2 -14.7 9.5 -9.5 9.5 C -4.3 9.5 0.0 5.2 0.0 0.0 Z M 0.0 0.0 " fill="none" stroke="#29ABE1" stroke-width="3.00" transform="matrix(3.01, 0.00, 0.00, 2.98, 199.5, 322.7)"></path><path d="M 154.4 319.7 C 154.4 304.0 141.6 291.4 125.8 291.4 C 110.0 291.4 97.2 304.0 97.2 319.7 C 97.2 335.4 110.0 348.1 125.8 348.1 C 141.6 348.1 154.4 335.4 154.4 319.7 " fill="#FFFFFF"></path><path d="M 0.0 0.0 C 0.0 -5.2 -4.3 -9.5 -9.5 -9.5 C -14.7 -9.5 -19.0 -5.2 -19.0 0.0 C -19.0 5.2 -14.7 9.5 -9.5 9.5 C -4.3 9.5 0.0 5.2 0.0 0.0 Z M 0.0 0.0 " fill="none" stroke="#29ABE1" stroke-width="3.00" transform="matrix(3.01, 0.00, 0.00, 2.98, 154.4, 319.7)"></path><path d="M 124.3 328.5 C 124.3 322.6 119.5 317.8 113.5 317.8 C 107.6 317.8 102.8 322.6 102.8 328.5 C 102.8 334.4 107.6 339.2 113.5 339.2 C 119.5 339.2 124.3 334.4 124.3 328.5 " fill="#29ABE1"></path><path d="M 175.4 334.5 C 175.4 328.6 170.6 323.8 164.7 323.8 C 158.7 323.8 153.9 328.6 153.9 334.5 C 153.9 340.4 158.7 345.2 164.7 345.2 C 170.6 345.2 175.4 340.4 175.4 334.5 " fill="#29ABE1"></path><path d="M 62.0 38.0 L 2.0 38.0 L 2.0 97.0 L 62.0 97.0 Z M 62.0 38.0 " fill="#FFFFFF" stroke="#666666" stroke-width="4.00" transform="matrix(3.01, 0.00, 0.00, 2.98, 1.0, 2.0)"></path></g></g></g></g><g><clipPath id="clip0x610000eaf0c0"><path d="M 1.0 2.0 L 204.0 2.0 L 204.0 378.0 L 1.0 378.0 Z M 1.0 2.0 "></path></clipPath><g clip-path="url(#clip0x610000eaf0c0)"><text xml:space="preserve" font-family="MyriadPro-Regular,Myriad Pro" font-size="50.9" fill="#009245" transform="matrix(3.01, 0.00, -0.00, -2.98, 56.9, 154.2)">1</text></g></g><g><clipPath id="clip0x610000eaf300"><path d="M 1.0 378.0 L 204.0 378.0 L 204.0 2.0 L 1.0 2.0 Z M 1.0 378.0 "></path></clipPath><g clip-path="url(#clip0x610000eaf300)"><g><clipPath id="clip0x610000eaf480"><path d="M 1.0 2.0 L 204.0 2.0 L 204.0 378.0 L 1.0 378.0 Z M 1.0 2.0 "></path></clipPath><g clip-path="url(#clip0x610000eaf480)"><path d="M 0.0 0.0 C 0.0 0.0 -7.0 -6.5 -9.0 -5.3 " fill="none" stroke="#29ABE1" stroke-width="2.00" transform="matrix(3.01, 0.00, 0.00, 2.98, 111.8, 367.0)"></path><path d="M 0.0 0.0 C 0.0 0.0 6.7 -6.8 10.0 -5.5 " fill="none" stroke="#29ABE1" stroke-width="2.00" transform="matrix(3.01, 0.00, 0.00, 2.98, 167.9, 375.9)"></path><path d="M 0.0 0.0 C 0.0 0.0 8.2 6.2 9.5 0.0 " fill="none" stroke="#29ABE1" stroke-width="3.00" transform="matrix(3.01, 0.00, 0.00, 2.98, 142.3, 257.8)"></path></g></g></g></g></g></svg>