<?xml version="1.0" encoding="UTF-8" standalone="no"?><svg xmlns="http://www.w3.org/2000/svg" xmlns:xlink="http://www.w3.org/1999/xlink" clip-rule="evenodd" stroke-miterlimit="10" viewBox="0 0 1024 768"><desc>SVG generated by Keynote</desc><defs></defs><g transform="matrix(1.00, 0.00, -0.00, -1.00, 0.0, 768.0)"><path d="M 0.0 768.0 L 1024.0 768.0 L 1024.0 0.0 L 0.0 0.0 Z M 0.0 768.0 " fill="#FEFFFF"></path><g><clipPath id="clip0x6000012b4f40"><path d="M 56.0 127.0 L 912.0 127.0 L 912.0 684.0 L 56.0 684.0 Z M 56.0 127.0 "></path></clipPath><g clip-path="url(#clip0x6000012b4f40)"><path d="M 0.0 0.0 L 66.5 -135.0 " fill="none" stroke="#CCCCCC" stroke-width="4.74" transform="matrix(1.20, 0.00, 0.00, 1.20, 748.4, 447.2)"></path><path d="M 840.3 260.6 L 808.4 288.9 L 827.0 287.6 L 837.3 303.1 Z M 840.3 260.6 " fill="#CCCCCC"></path></g></g><g><clipPath id="clip0x6000012b54e0"><path d="M 56.0 684.0 L 912.0 684.0 L 912.0 127.0 L 56.0 127.0 Z M 56.0 684.0 "></path></clipPath><g clip-path="url(#clip0x6000012b54e0)"><g><clipPath id="clip0x6000012b5660"><path d="M 56.0 127.0 L 912.0 127.0 L 912.0 684.0 L 56.0 684.0 Z M 56.0 127.0 "></path></clipPath><g clip-path="url(#clip0x6000012b5660)"><path d="M 0.0 0.0 L 13.2 -19.0 L -0.5 -31.0 L -0.5 -37.0 " fill="none" stroke="#29ABE1" stroke-width="3.00" transform="matrix(1.20, 0.00, 0.00, 1.20, 862.4, 172.4)"></path><path d="M 0.0 0.0 L 10.0 -18.5 L 0.0 -31.0 L 5.0 -37.0 " fill="none" stroke="#29ABE1" stroke-width="3.00" transform="matrix(1.20, 0.00, 0.00, 1.20, 883.9, 172.4)"></path><path d="M 910.2 255.6 C 910.2 249.3 905.1 244.2 898.8 244.2 C 892.6 244.2 887.5 249.3 887.5 255.6 C 887.5 261.8 892.6 266.9 898.8 266.9 C 905.1 266.9 910.2 261.8 910.2 255.6 " fill="#FFFFFF"></path><path d="M 0.0 0.0 C 0.0 -5.2 -4.3 -9.5 -9.5 -9.5 C -14.7 -9.5 -19.0 -5.2 -19.0 0.0 C -19.0 5.2 -14.7 9.5 -9.5 9.5 C -4.3 9.5 0.0 5.2 0.0 0.0 Z M 0.0 0.0 " fill="none" stroke="#29ABE1" stroke-width="3.00" transform="matrix(1.20, 0.00, 0.00, 1.20, 910.2, 255.6)"></path><path d="M 892.3 254.4 C 892.3 248.1 887.2 243.0 880.9 243.0 C 874.6 243.0 869.5 248.1 869.5 254.4 C 869.5 260.6 874.6 265.7 880.9 265.7 C 887.2 265.7 892.3 260.6 892.3 254.4 " fill="#FFFFFF"></path><path d="M 0.0 0.0 C 0.0 -5.2 -4.3 -9.5 -9.5 -9.5 C -14.7 -9.5 -19.0 -5.2 -19.0 0.0 C -19.0 5.2 -14.7 9.5 -9.5 9.5 C -4.3 9.5 0.0 5.2 0.0 0.0 Z M 0.0 0.0 " fill="none" stroke="#29ABE1" stroke-width="3.00" transform="matrix(1.20, 0.00, 0.00, 1.20, 892.3, 254.4)"></path><path d="M 880.3 257.9 C 880.3 255.5 878.4 253.6 876.0 253.6 C 873.6 253.6 871.7 255.5 871.7 257.9 C 871.7 260.3 873.6 262.2 876.0 262.2 C 878.4 262.2 880.3 260.3 880.3 257.9 " fill="#29ABE1"></path><path d="M 900.6 260.3 C 900.6 257.9 898.7 256.0 896.3 256.0 C 894.0 256.0 892.1 257.9 892.1 260.3 C 892.1 262.7 894.0 264.6 896.3 264.6 C 898.7 264.6 900.6 262.7 900.6 260.3 " fill="#29ABE1"></path><path d="M 186.0 268.0 L 126.0 268.0 L 126.0 327.0 L 186.0 327.0 Z M 186.0 268.0 " fill="none" stroke="#666666" stroke-width="4.00" transform="matrix(1.20, 0.00, 0.00, 1.20, 56.0, 127.0)"></path><path d="M 247.0 268.0 L 186.0 268.0 L 186.0 327.0 L 247.0 327.0 Z M 247.0 268.0 " fill="none" stroke="#666666" stroke-width="4.00" transform="matrix(1.20, 0.00, 0.00, 1.20, 56.0, 127.0)"></path><path d="M 307.0 268.0 L 247.0 268.0 L 247.0 327.0 L 307.0 327.0 Z M 307.0 268.0 " fill="none" stroke="#666666" stroke-width="4.00" transform="matrix(1.20, 0.00, 0.00, 1.20, 56.0, 127.0)"></path><path d="M 367.0 268.0 L 307.0 268.0 L 307.0 327.0 L 367.0 327.0 Z M 367.0 268.0 " fill="none" stroke="#666666" stroke-width="4.00" transform="matrix(1.20, 0.00, 0.00, 1.20, 56.0, 127.0)"></path><path d="M 428.0 268.0 L 367.0 268.0 L 367.0 327.0 L 428.0 327.0 Z M 428.0 268.0 " fill="none" stroke="#666666" stroke-width="4.00" transform="matrix(1.20, 0.00, 0.00, 1.20, 56.0, 127.0)"></path><path d="M 488.0 268.0 L 428.0 268.0 L 428.0 327.0 L 488.0 327.0 Z M 488.0 268.0 " fill="none" stroke="#666666" stroke-width="4.00" transform="matrix(1.20, 0.00, 0.00, 1.20, 56.0, 127.0)"></path><path d="M 549.0 268.0 L 488.0 268.0 L 488.0 327.0 L 549.0 327.0 Z M 549.0 268.0 " fill="none" stroke="#666666" stroke-width="4.00" transform="matrix(1.20, 0.00, 0.00, 1.20, 56.0, 127.0)"></path><path d="M 609.0 268.0 L 549.0 268.0 L 549.0 327.0 L 609.0 327.0 Z M 609.0 268.0 " fill="none" stroke="#666666" stroke-width="4.00" transform="matrix(1.20, 0.00, 0.00, 1.20, 56.0, 127.0)"></path></g></g></g></g><g><clipPath id="clip0x6000012b5f60"><path d="M 56.0 127.0 L 912.0 127.0 L 912.0 684.0 L 56.0 684.0 Z M 56.0 127.0 "></path></clipPath><g clip-path="url(#clip0x6000012b5f60)"><text xml:space="preserve" font-family="MyriadPro-Regular,Myriad Pro" font-size="50.9" fill="#009245" transform="matrix(1.20, 0.00, -0.00, -1.20, 225.5, 463.5)">0</text><text xml:space="preserve" font-family="MyriadPro-Regular,Myriad Pro" font-size="50.9" fill="#009245" transform="matrix(1.20, 0.00, -0.00, -1.20, 297.8, 463.5)">0</text><text xml:space="preserve" font-family="MyriadPro-Regular,Myriad Pro" font-size="50.9" fill="#009245" transform="matrix(1.20, 0.00, -0.00, -1.20, 370.1, 463.5)">0</text><text xml:space="preserve" font-family="MyriadPro-Regular,Myriad Pro" font-size="50.9" fill="#009245" transform="matrix(1.20, 0.00, -0.00, -1.20, 442.3, 463.5)">1</text><text xml:space="preserve" font-family="MyriadPro-Regular,Myriad Pro" font-size="50.9" fill="#009245" transform="matrix(1.20, 0.00, -0.00, -1.20, 514.6, 463.5)">0</text><text xml:space="preserve" font-family="MyriadPro-Regular,Myriad Pro" font-size="50.9" fill="#009245" transform="matrix(1.20, 0.00, -0.00, -1.20, 586.9, 463.5)">1</text><text xml:space="preserve" font-family="MyriadPro-Regular,Myriad Pro" font-size="50.9" fill="#009245" transform="matrix(1.20, 0.00, -0.00, -1.20, 659.1, 463.5)">1</text><text xml:space="preserve" font-family="MyriadPro-Regular,Myriad Pro" font-size="50.9" fill="#009245" transform="matrix(1.20, 0.00, -0.00, -1.20, 731.4, 463.5)">1</text></g></g><g><clipPath id="clip0x6000012b6440"><path d="M 56.0 684.0 L 912.0 684.0 L 912.0 127.0 L 56.0 127.0 Z M 56.0 684.0 "></path></clipPath><g clip-path="url(#clip0x6000012b6440)"><g><clipPath id="clip0x6000012b65c0"><path d="M 56.0 127.0 L 912.0 127.0 L 912.0 684.0 L 56.0 684.0 Z M 56.0 127.0 "></path></clipPath><g clip-path="url(#clip0x6000012b65c0)"><path d="M 186.0 88.0 L 126.0 88.0 L 126.0 147.0 L 186.0 147.0 Z M 186.0 88.0 " fill="none" stroke="#666666" stroke-width="4.00" transform="matrix(1.20, 0.00, 0.00, 1.20, 56.0, 127.0)"></path><path d="M 63.0 88.0 L 2.0 88.0 L 2.0 147.0 L 63.0 147.0 Z M 63.0 88.0 " fill="none" stroke="#666666" stroke-width="4.00" transform="matrix(1.20, 0.00, 0.00, 1.20, 56.0, 127.0)"></path><path d="M 247.0 88.0 L 186.0 88.0 L 186.0 147.0 L 247.0 147.0 Z M 247.0 88.0 " fill="none" stroke="#666666" stroke-width="4.00" transform="matrix(1.20, 0.00, 0.00, 1.20, 56.0, 127.0)"></path><path d="M 307.0 88.0 L 247.0 88.0 L 247.0 147.0 L 307.0 147.0 Z M 307.0 88.0 " fill="none" stroke="#666666" stroke-width="4.00" transform="matrix(1.20, 0.00, 0.00, 1.20, 56.0, 127.0)"></path><path d="M 367.0 88.0 L 307.0 88.0 L 307.0 147.0 L 367.0 147.0 Z M 367.0 88.0 " fill="none" stroke="#666666" stroke-width="4.00" transform="matrix(1.20, 0.00, 0.00, 1.20, 56.0, 127.0)"></path><path d="M 428.0 88.0 L 367.0 88.0 L 367.0 147.0 L 428.0 147.0 Z M 428.0 88.0 " fill="none" stroke="#666666" stroke-width="4.00" transform="matrix(1.20, 0.00, 0.00, 1.20, 56.0, 127.0)"></path><path d="M 488.0 88.0 L 428.0 88.0 L 428.0 147.0 L 488.0 147.0 Z M 488.0 88.0 " fill="none" stroke="#666666" stroke-width="4.00" transform="matrix(1.20, 0.00, 0.00, 1.20, 56.0, 127.0)"></path><path d="M 549.0 88.0 L 488.0 88.0 L 488.0 147.0 L 549.0 147.0 Z M 549.0 88.0 " fill="none" stroke="#666666" stroke-width="4.00" transform="matrix(1.20, 0.00, 0.00, 1.20, 56.0, 127.0)"></path><path d="M 609.0 88.0 L 549.0 88.0 L 549.0 147.0 L 609.0 147.0 Z M 609.0 88.0 " fill="none" stroke="#666666" stroke-width="4.00" transform="matrix(1.20, 0.00, 0.00, 1.20, 56.0, 127.0)"></path></g></g></g></g><g><clipPath id="clip0x6000012b6b00"><path d="M 56.0 127.0 L 912.0 127.0 L 912.0 684.0 L 56.0 684.0 Z M 56.0 127.0 "></path></clipPath><g clip-path="url(#clip0x6000012b6b00)"><text xml:space="preserve" font-family="MyriadPro-Regular,Myriad Pro" font-size="50.9" fill="#009245" transform="matrix(1.20, 0.00, -0.00, -1.20, 225.5, 246.6)">0</text><text xml:space="preserve" font-family="MyriadPro-Regular,Myriad Pro" font-size="50.9" fill="#009245" transform="matrix(1.20, 0.00, -0.00, -1.20, 78.1, 246.6)">0</text><text xml:space="preserve" font-family="MyriadPro-Regular,Myriad Pro" font-size="50.9" fill="#009245" transform="matrix(1.20, 0.00, -0.00, -1.20, 297.8, 246.6)">0</text><text xml:space="preserve" font-family="MyriadPro-Regular,Myriad Pro" font-size="50.9" fill="#009245" transform="matrix(1.20, 0.00, -0.00, -1.20, 370.1, 246.6)">0</text><text xml:space="preserve" font-family="MyriadPro-Regular,Myriad Pro" font-size="50.9" fill="#009245" transform="matrix(1.20, 0.00, -0.00, -1.20, 442.3, 246.6)">0</text><text xml:space="preserve" font-family="MyriadPro-Regular,Myriad Pro" font-size="50.9" fill="#009245" transform="matrix(1.20, 0.00, -0.00, -1.20, 514.6, 246.6)">1</text><text xml:space="preserve" font-family="MyriadPro-Regular,Myriad Pro" font-size="50.9" fill="#009245" transform="matrix(1.20, 0.00, -0.00, -1.20, 586.9, 246.6)">0</text><text xml:space="preserve" font-family="MyriadPro-Regular,Myriad Pro" font-size="50.9" fill="#009245" transform="matrix(1.20, 0.00, -0.00, -1.20, 659.1, 246.6)">1</text><text xml:space="preserve" font-family="MyriadPro-Regular,Myriad Pro" font-size="50.9" fill="#009245" transform="matrix(1.20, 0.00, -0.00, -1.20, 731.4, 246.6)">1</text><text xml:space="preserve" font-family="MyriadPro-Regular,Myriad Pro" font-size="41.5" fill="#666666" transform="matrix(1.20, 0.00, -0.00, -1.20, 225.5, 540.0)">7</text><text xml:space="preserve" font-family="MyriadPro-Regular,Myriad Pro" font-size="41.5" fill="#666666" transform="matrix(1.20, 0.00, -0.00, -1.20, 304.9, 540.0)">6</text><text xml:space="preserve" font-family="MyriadPro-Regular,Myriad Pro" font-size="41.5" fill="#666666" transform="matrix(1.20, 0.00, -0.00, -1.20, 375.8, 540.0)">5</text><text xml:space="preserve" font-family="MyriadPro-Regular,Myriad Pro" font-size="41.5" fill="#666666" transform="matrix(1.20, 0.00, -0.00, -1.20, 449.5, 540.0)">4</text><text xml:space="preserve" font-family="MyriadPro-Regular,Myriad Pro" font-size="41.5" fill="#666666" transform="matrix(1.20, 0.00, -0.00, -1.20, 526.0, 540.0)">3</text><text xml:space="preserve" font-family="MyriadPro-Regular,Myriad Pro" font-size="41.5" fill="#666666" transform="matrix(1.20, 0.00, -0.00, -1.20, 596.9, 540.0)">2</text><text xml:space="preserve" font-family="MyriadPro-Regular,Myriad Pro" font-size="41.5" fill="#666666" transform="matrix(1.20, 0.00, -0.00, -1.20, 669.1, 540.0)">1</text><text xml:space="preserve" font-family="MyriadPro-Regular,Myriad Pro" font-size="41.5" fill="#666666" transform="matrix(1.20, 0.00, -0.00, -1.20, 738.6, 540.0)">0</text></g></g><g><clipPath id="clip0x6000012b73a0"><path d="M 56.0 684.0 L 912.0 684.0 L 912.0 127.0 L 56.0 127.0 Z M 56.0 684.0 "></path></clipPath><g clip-path="url(#clip0x6000012b73a0)"><g><clipPath id="clip0x6000012b7520"><path d="M 56.0 127.0 L 912.0 127.0 L 912.0 684.0 L 56.0 684.0 Z M 56.0 127.0 "></path></clipPath><g clip-path="url(#clip0x6000012b7520)"><text xml:space="preserve" font-family="MyriadPro-Regular,Myriad Pro" font-size="33.2" fill="#666666" transform="matrix(0.00, 1.20, 1.20, -0.00, 255.7, 611.0)">M</text><text xml:space="preserve" font-family="MyriadPro-Regular,Myriad Pro" font-size="33.2" fill="#666666" transform="matrix(0.00, 1.20, 1.20, -0.00, 287.6, 611.0)">S</text><text xml:space="preserve" font-family="MyriadPro-Regular,Myriad Pro" font-size="33.2" fill="#666666" transform="matrix(0.00, 1.20, 1.20, -0.00, 307.1, 611.0)">B</text></g></g></g></g><g><clipPath id="clip0x6000012b7820"><path d="M 56.0 127.0 L 912.0 127.0 L 912.0 684.0 L 56.0 684.0 Z M 56.0 127.0 "></path></clipPath><g clip-path="url(#clip0x6000012b7820)"><text xml:space="preserve" font-family="MyriadPro-Regular,Myriad Pro" font-size="33.2" fill="#666666" transform="matrix(0.00, 1.20, 1.20, -0.00, 771.6, 611.0)">L</text><text xml:space="preserve" font-family="MyriadPro-Regular,Myriad Pro" font-size="33.2" fill="#666666" transform="matrix(0.00, 1.20, 1.20, -0.00, 790.3, 611.0)">S</text><text xml:space="preserve" font-family="MyriadPro-Regular,Myriad Pro" font-size="33.2" fill="#666666" transform="matrix(0.00, 1.20, 1.20, -0.00, 809.9, 611.0)">B</text></g></g><g><clipPath id="clip0x6000012b7b20"><path d="M 56.0 684.0 L 912.0 684.0 L 912.0 127.0 L 56.0 127.0 Z M 56.0 684.0 "></path></clipPath><g clip-path="url(#clip0x6000012b7b20)"><g><clipPath id="clip0x6000012b7ca0"><path d="M 56.0 127.0 L 912.0 127.0 L 912.0 684.0 L 56.0 684.0 Z M 56.0 127.0 "></path></clipPath><g clip-path="url(#clip0x6000012b7ca0)"><path d="M 0.0 0.0 L 49.9 -99.9 " fill="none" stroke="#666666" stroke-width="4.74" transform="matrix(1.20, 0.00, 0.00, 1.20, 242.5, 447.2)"></path><path d="M 314.8 302.6 L 282.7 330.7 L 301.3 329.5 L 311.6 345.1 Z M 314.8 302.6 " fill="#666666"></path><path d="M 0.0 0.0 L 49.9 -99.9 " fill="none" stroke="#666666" stroke-width="4.74" transform="matrix(1.20, 0.00, 0.00, 1.20, 314.8, 447.2)"></path><path d="M 387.1 302.6 L 355.0 330.7 L 373.6 329.5 L 383.8 345.1 Z M 387.1 302.6 " fill="#666666"></path><path d="M 0.0 0.0 L 49.9 -99.9 " fill="none" stroke="#666666" stroke-width="4.74" transform="matrix(1.20, 0.00, 0.00, 1.20, 387.1, 447.2)"></path><path d="M 459.3 302.6 L 427.3 330.7 L 445.9 329.5 L 456.1 345.1 Z M 459.3 302.6 " fill="#666666"></path><path d="M 0.0 0.0 L 49.9 -99.9 " fill="none" stroke="#666666" stroke-width="4.74" transform="matrix(1.20, 0.00, 0.00, 1.20, 462.2, 447.2)"></path><path d="M 534.5 302.6 L 502.4 330.7 L 521.0 329.5 L 531.2 345.1 Z M 534.5 302.6 " fill="#666666"></path><path d="M 0.0 0.0 L 49.9 -99.9 " fill="none" stroke="#666666" stroke-width="4.74" transform="matrix(1.20, 0.00, 0.00, 1.20, 534.5, 447.2)"></path><path d="M 606.7 302.6 L 574.6 330.7 L 593.3 329.5 L 603.5 345.1 Z M 606.7 302.6 " fill="#666666"></path><path d="M 0.0 0.0 L 49.9 -99.9 " fill="none" stroke="#666666" stroke-width="4.74" transform="matrix(1.20, 0.00, 0.00, 1.20, 606.7, 447.2)"></path><path d="M 679.0 302.6 L 646.9 330.7 L 665.5 329.5 L 675.8 345.1 Z M 679.0 302.6 " fill="#666666"></path><path d="M 0.0 0.0 L 49.9 -99.9 " fill="none" stroke="#666666" stroke-width="4.74" transform="matrix(1.20, 0.00, 0.00, 1.20, 679.0, 447.2)"></path><path d="M 751.3 302.6 L 719.2 330.7 L 737.8 329.5 L 748.1 345.1 Z M 751.3 302.6 " fill="#666666"></path><path d="M 0.0 0.0 L 40.0 0.0 " fill="none" stroke="#666666" stroke-width="5.00" transform="matrix(1.20, 0.00, 0.00, 1.20, 130.2, 266.3)"></path><path d="M 205.7 266.5 L 166.2 250.3 L 175.6 266.5 L 166.2 282.6 Z M 205.7 266.5 " fill="#666666"></path><path d="M 710.0 38.0 L 650.0 38.0 L 650.0 97.0 L 710.0 97.0 Z M 710.0 38.0 " fill="#FFFFFF" stroke="#666666" stroke-width="4.00" transform="matrix(1.20, 0.00, 0.00, 1.20, 56.0, 127.0)"></path></g></g></g></g><g><clipPath id="clip0x6000012b85a0"><path d="M 56.0 127.0 L 912.0 127.0 L 912.0 684.0 L 56.0 684.0 Z M 56.0 127.0 "></path></clipPath><g clip-path="url(#clip0x6000012b85a0)"><text xml:space="preserve" font-family="MyriadPro-Regular,Myriad Pro" font-size="50.9" fill="#009245" transform="matrix(1.20, 0.00, -0.00, -1.20, 853.5, 188.0)">1</text></g></g><g><clipPath id="clip0x6000012b87e0"><path d="M 56.0 684.0 L 912.0 684.0 L 912.0 127.0 L 56.0 127.0 Z M 56.0 684.0 "></path></clipPath><g clip-path="url(#clip0x6000012b87e0)"><g><clipPath id="clip0x6000012b8960"><path d="M 56.0 127.0 L 912.0 127.0 L 912.0 684.0 L 56.0 684.0 Z M 56.0 127.0 "></path></clipPath><g clip-path="url(#clip0x6000012b8960)"><path d="M 0.0 0.0 C 0.0 0.0 -7.0 -6.5 -9.0 -5.3 " fill="none" stroke="#29ABE1" stroke-width="2.00" transform="matrix(1.20, 0.00, 0.00, 1.20, 875.3, 273.3)"></path><path d="M 0.0 0.0 C 0.0 0.0 6.7 -6.8 10.0 -5.5 " fill="none" stroke="#29ABE1" stroke-width="2.00" transform="matrix(1.20, 0.00, 0.00, 1.20, 897.6, 276.9)"></path><path d="M 0.0 0.0 C 0.0 0.0 8.2 6.2 9.5 0.0 " fill="none" stroke="#29ABE1" stroke-width="3.00" transform="matrix(1.20, 0.00, 0.00, 1.20, 887.5, 229.5)"></path></g></g></g></g></g></svg>