<?xml version="1.0" encoding="UTF-8" standalone="no"?><svg xmlns="http://www.w3.org/2000/svg" xmlns:xlink="http://www.w3.org/1999/xlink" clip-rule="evenodd" stroke-miterlimit="10" viewBox="0 0 1024 768"><desc>SVG generated by Keynote</desc><defs></defs><g transform="matrix(1.00, 0.00, -0.00, -1.00, 0.0, 768.0)"><path d="M 0.0 768.0 L 1024.0 768.0 L 1024.0 0.0 L 0.0 0.0 Z M 0.0 768.0 " fill="#FEFFFF"></path><path d="M -11.0 786.0 L 1036.0 786.0 L 1036.0 -11.0 L -11.0 -11.0 Z M -11.0 786.0 " fill="#000000"></path><path d="M 0.0 0.0 L 1047.0 0.0 L 1047.0 797.0 L 0.0 797.0 Z M 0.0 0.0 " fill="none" stroke="#000000" stroke-width="2.00" transform="matrix(1.00, 0.00, 0.00, -1.00, -11.0, 786.0)"></path><text xml:space="preserve" font-family="CourierNewPS-BoldMT,Courier New" font-weight="bold" font-size="72.0" fill="#76BA40" transform="matrix(1.00, 0.00, -0.00, -1.00, 200.2, 691.1)">B</text><text xml:space="preserve" font-family="CourierNewPS-BoldMT,Courier New" font-weight="bold" font-size="72.0" fill="#76BA40" transform="matrix(1.00, 0.00, -0.00, -1.00, 247.0, 691.1)">Y</text><text xml:space="preserve" font-family="CourierNewPS-BoldMT,Courier New" font-weight="bold" font-size="72.0" fill="#76BA40" transform="matrix(1.00, 0.00, -0.00, -1.00, 293.9, 691.1)">T</text><text xml:space="preserve" font-family="CourierNewPS-BoldMT,Courier New" font-weight="bold" font-size="72.0" fill="#76BA40" transform="matrix(1.00, 0.00, -0.00, -1.00, 340.7, 691.1)">E</text><text xml:space="preserve" font-family="CourierNewPS-BoldMT,Courier New" font-weight="bold" font-size="72.0" fill="#76BA40" transform="matrix(1.00, 0.00, -0.00, -1.00, 387.5, 691.1)"> </text><text xml:space="preserve" font-family="CourierNewPS-BoldMT,Courier New" font-weight="bold" font-size="72.0" fill="#76BA40" transform="matrix(1.00, 0.00, -0.00, -1.00, 434.3, 691.1)">C</text><text xml:space="preserve" font-family="CourierNewPS-BoldMT,Courier New" font-weight="bold" font-size="72.0" fill="#76BA40" transform="matrix(1.00, 0.00, -0.00, -1.00, 481.1, 691.1)">U</text><text xml:space="preserve" font-family="CourierNewPS-BoldMT,Courier New" font-weight="bold" font-size="72.0" fill="#76BA40" transform="matrix(1.00, 0.00, -0.00, -1.00, 527.9, 691.1)">R</text><text xml:space="preserve" font-family="CourierNewPS-BoldMT,Courier New" font-weight="bold" font-size="72.0" fill="#76BA40" transform="matrix(1.00, 0.00, -0.00, -1.00, 574.7, 691.1)">A</text><text xml:space="preserve" font-family="CourierNewPS-BoldMT,Courier New" font-weight="bold" font-size="72.0" fill="#76BA40" transform="matrix(1.00, 0.00, -0.00, -1.00, 621.6, 691.1)">T</text><text xml:space="preserve" font-family="CourierNewPS-BoldMT,Courier New" font-weight="bold" font-size="72.0" fill="#76BA40" transform="matrix(1.00, 0.00, -0.00, -1.00, 668.4, 691.1)">I</text><text xml:space="preserve" font-family="CourierNewPS-BoldMT,Courier New" font-weight="bold" font-size="72.0" fill="#76BA40" transform="matrix(1.00, 0.00, -0.00, -1.00, 715.2, 691.1)">O</text><text xml:space="preserve" font-family="CourierNewPS-BoldMT,Courier New" font-weight="bold" font-size="72.0" fill="#76BA40" transform="matrix(1.00, 0.00, -0.00, -1.00, 762.0, 691.1)">N</text><path d="M 0.0 0.0 L 253.4 199.7 " fill="none" stroke="#FEFB00" stroke-width="2.00" transform="matrix(0.79, 0.62, 0.62, -0.79, 348.9, 522.8)"></path><image xlink:href="../../5721A616-07FA-41A5-B824-54266D8D1E5B/assets/3F3AC118243E66B3C677CEF7EE94FC01.png" width="384.00" height="384.00" transform="matrix(0.76, 0.00, -0.00, -0.76, 88.0, 669.0)"></image><image xlink:href="../../CFA82BD5-2C02-4F85-8506-3C83E7961AA4/assets/87F5CEB2D06E44A4CD794CB3EC4DDD84.png" width="667.00" height="398.00" transform="matrix(0.28, 0.00, -0.00, -0.28, 684.0, 579.0)"></image><text xml:space="preserve" font-family="CourierNewPS-BoldMT,Courier New" font-weight="bold" font-size="24.0" fill="#76BA40" transform="matrix(1.00, 0.00, -0.00, -1.00, 392.2, 540.3)">0</text><text xml:space="preserve" font-family="CourierNewPS-BoldMT,Courier New" font-weight="bold" font-size="24.0" fill="#76BA40" transform="matrix(1.00, 0.00, -0.00, -1.00, 407.8, 540.3)">x</text><text xml:space="preserve" font-family="CourierNewPS-BoldMT,Courier New" font-weight="bold" font-size="24.0" fill="#76BA40" transform="matrix(1.00, 0.00, -0.00, -1.00, 423.4, 540.3)">A</text><text xml:space="preserve" font-family="CourierNewPS-BoldMT,Courier New" font-weight="bold" font-size="24.0" fill="#76BA40" transform="matrix(1.00, 0.00, -0.00, -1.00, 439.0, 540.3)">F</text><text xml:space="preserve" font-family="CourierNewPS-BoldMT,Courier New" font-weight="bold" font-size="24.0" fill="#76BA40" transform="matrix(1.00, 0.00, -0.00, -1.00, 454.6, 540.3)"> </text><text xml:space="preserve" font-family="CourierNewPS-BoldMT,Courier New" font-weight="bold" font-size="24.0" fill="#76BA40" transform="matrix(1.00, 0.00, -0.00, -1.00, 470.2, 540.3)">0</text><text xml:space="preserve" font-family="CourierNewPS-BoldMT,Courier New" font-weight="bold" font-size="24.0" fill="#76BA40" transform="matrix(1.00, 0.00, -0.00, -1.00, 485.8, 540.3)">x</text><text xml:space="preserve" font-family="CourierNewPS-BoldMT,Courier New" font-weight="bold" font-size="24.0" fill="#76BA40" transform="matrix(1.00, 0.00, -0.00, -1.00, 501.4, 540.3)">0</text><text xml:space="preserve" font-family="CourierNewPS-BoldMT,Courier New" font-weight="bold" font-size="24.0" fill="#76BA40" transform="matrix(1.00, 0.00, -0.00, -1.00, 517.1, 540.3)">0</text><text xml:space="preserve" font-family="CourierNewPS-BoldMT,Courier New" font-weight="bold" font-size="24.0" fill="#76BA40" transform="matrix(1.00, 0.00, -0.00, -1.00, 532.7, 540.3)"> </text><text xml:space="preserve" font-family="CourierNewPS-BoldMT,Courier New" font-weight="bold" font-size="24.0" fill="#76BA40" transform="matrix(1.00, 0.00, -0.00, -1.00, 548.3, 540.3)">0</text><text xml:space="preserve" font-family="CourierNewPS-BoldMT,Courier New" font-weight="bold" font-size="24.0" fill="#76BA40" transform="matrix(1.00, 0.00, -0.00, -1.00, 563.9, 540.3)">x</text><text xml:space="preserve" font-family="CourierNewPS-BoldMT,Courier New" font-weight="bold" font-size="24.0" fill="#76BA40" transform="matrix(1.00, 0.00, -0.00, -1.00, 579.5, 540.3)">F</text><text xml:space="preserve" font-family="CourierNewPS-BoldMT,Courier New" font-weight="bold" font-size="24.0" fill="#76BA40" transform="matrix(1.00, 0.00, -0.00, -1.00, 595.1, 540.3)">F</text></g></svg>