<?xml version="1.0" encoding="UTF-8" standalone="no"?><svg xmlns="http://www.w3.org/2000/svg" xmlns:xlink="http://www.w3.org/1999/xlink" clip-rule="evenodd" stroke-miterlimit="10" viewBox="0 0 599 49"><desc>SVG generated by Keynote</desc><defs></defs><g transform="matrix(1.00, 0.00, -0.00, -1.00, 0.0, 49.0)"><text xml:space="preserve" font-family="CourierNewPS-BoldMT,Courier New" font-weight="bold" font-size="72.0" fill="#76BA40" transform="matrix(1.00, 0.00, -0.00, -1.00, -2.9, 3.1)">S</text><text xml:space="preserve" font-family="CourierNewPS-BoldMT,Courier New" font-weight="bold" font-size="72.0" fill="#76BA40" transform="matrix(1.00, 0.00, -0.00, -1.00, 40.4, 3.1)">C</text><text xml:space="preserve" font-family="CourierNewPS-BoldMT,Courier New" font-weight="bold" font-size="72.0" fill="#76BA40" transform="matrix(1.00, 0.00, -0.00, -1.00, 83.6, 3.1)">R</text><text xml:space="preserve" font-family="CourierNewPS-BoldMT,Courier New" font-weight="bold" font-size="72.0" fill="#76BA40" transform="matrix(1.00, 0.00, -0.00, -1.00, 126.8, 3.1)">E</text><text xml:space="preserve" font-family="CourierNewPS-BoldMT,Courier New" font-weight="bold" font-size="72.0" fill="#76BA40" transform="matrix(1.00, 0.00, -0.00, -1.00, 170.0, 3.1)">E</text><text xml:space="preserve" font-family="CourierNewPS-BoldMT,Courier New" font-weight="bold" font-size="72.0" fill="#76BA40" transform="matrix(1.00, 0.00, -0.00, -1.00, 213.2, 3.1)">N</text><text xml:space="preserve" font-family="CourierNewPS-BoldMT,Courier New" font-weight="bold" font-size="72.0" fill="#76BA40" transform="matrix(1.00, 0.00, -0.00, -1.00, 256.4, 3.1)"> </text><text xml:space="preserve" font-family="CourierNewPS-BoldMT,Courier New" font-weight="bold" font-size="72.0" fill="#76BA40" transform="matrix(1.00, 0.00, -0.00, -1.00, 299.6, 3.1)">B</text><text xml:space="preserve" font-family="CourierNewPS-BoldMT,Courier New" font-weight="bold" font-size="72.0" fill="#76BA40" transform="matrix(1.00, 0.00, -0.00, -1.00, 342.9, 3.1)">U</text><text xml:space="preserve" font-family="CourierNewPS-BoldMT,Courier New" font-weight="bold" font-size="72.0" fill="#76BA40" transform="matrix(1.00, 0.00, -0.00, -1.00, 386.1, 3.1)">F</text><text xml:space="preserve" font-family="CourierNewPS-BoldMT,Courier New" font-weight="bold" font-size="72.0" fill="#76BA40" transform="matrix(1.00, 0.00, -0.00, -1.00, 429.3, 3.1)">F</text><text xml:space="preserve" font-family="CourierNewPS-BoldMT,Courier New" font-weight="bold" font-size="72.0" fill="#76BA40" transform="matrix(1.00, 0.00, -0.00, -1.00, 472.5, 3.1)">E</text><text xml:space="preserve" font-family="CourierNewPS-BoldMT,Courier New" font-weight="bold" font-size="72.0" fill="#76BA40" transform="matrix(1.00, 0.00, -0.00, -1.00, 515.7, 3.1)">R</text><text xml:space="preserve" font-family="CourierNewPS-BoldMT,Courier New" font-weight="bold" font-size="72.0" fill="#76BA40" transform="matrix(1.00, 0.00, -0.00, -1.00, 558.9, 3.1)">?</text></g></svg>