<?xml version="1.0" encoding="UTF-8" standalone="no"?><svg xmlns="http://www.w3.org/2000/svg" xmlns:xlink="http://www.w3.org/1999/xlink" clip-rule="evenodd" stroke-miterlimit="10" viewBox="0 0 814 37"><desc>SVG generated by Keynote</desc><defs></defs><g transform="matrix(1.00, 0.00, -0.00, -1.00, 0.0, 37.0)"><text xml:space="preserve" font-family="Italic-Bricks,Italic Bricks" font-style="italic" font-size="34.0" fill="#59461D" transform="matrix(1.00, 0.00, -0.00, -1.00, 1.9, 5.5)">J</text><text xml:space="preserve" font-family="Italic-Bricks,Italic Bricks" font-style="italic" font-size="34.0" fill="#59461D" transform="matrix(1.00, 0.00, -0.00, -1.00, 29.5, 5.5)">A</text><text xml:space="preserve" font-family="Italic-Bricks,Italic Bricks" font-style="italic" font-size="34.0" fill="#59461D" transform="matrix(1.00, 0.00, -0.00, -1.00, 57.1, 5.5)">V</text><text xml:space="preserve" font-family="Italic-Bricks,Italic Bricks" font-style="italic" font-size="34.0" fill="#59461D" transform="matrix(1.00, 0.00, -0.00, -1.00, 84.8, 5.5)">A</text><text xml:space="preserve" font-family="Italic-Bricks,Italic Bricks" font-style="italic" font-size="34.0" fill="#59461D" transform="matrix(1.00, 0.00, -0.00, -1.00, 112.4, 5.5)">S</text><text xml:space="preserve" font-family="Italic-Bricks,Italic Bricks" font-style="italic" font-size="34.0" fill="#59461D" transform="matrix(1.00, 0.00, -0.00, -1.00, 140.0, 5.5)">C</text><text xml:space="preserve" font-family="Italic-Bricks,Italic Bricks" font-style="italic" font-size="34.0" fill="#59461D" transform="matrix(1.00, 0.00, -0.00, -1.00, 167.6, 5.5)">R</text><text xml:space="preserve" font-family="Italic-Bricks,Italic Bricks" font-style="italic" font-size="34.0" fill="#59461D" transform="matrix(1.00, 0.00, -0.00, -1.00, 195.2, 5.5)">I</text><text xml:space="preserve" font-family="Italic-Bricks,Italic Bricks" font-style="italic" font-size="34.0" fill="#59461D" transform="matrix(1.00, 0.00, -0.00, -1.00, 207.9, 5.5)">P</text><text xml:space="preserve" font-family="Italic-Bricks,Italic Bricks" font-style="italic" font-size="34.0" fill="#59461D" transform="matrix(1.00, 0.00, -0.00, -1.00, 235.5, 5.5)">T</text><text xml:space="preserve" font-family="Italic-Bricks,Italic Bricks" font-style="italic" font-size="34.0" fill="#59461D" transform="matrix(1.00, 0.00, -0.00, -1.00, 263.2, 5.5)"> </text><text xml:space="preserve" font-family="Italic-Bricks,Italic Bricks" font-style="italic" font-size="34.0" fill="#59461D" transform="matrix(1.00, 0.00, -0.00, -1.00, 282.3, 5.5)"> </text><text xml:space="preserve" font-family="Italic-Bricks,Italic Bricks" font-style="italic" font-size="34.0" fill="#59461D" transform="matrix(1.00, 0.00, -0.00, -1.00, 301.4, 5.5)">H</text><text xml:space="preserve" font-family="Italic-Bricks,Italic Bricks" font-style="italic" font-size="34.0" fill="#59461D" transform="matrix(1.00, 0.00, -0.00, -1.00, 329.0, 5.5)">A</text><text xml:space="preserve" font-family="Italic-Bricks,Italic Bricks" font-style="italic" font-size="34.0" fill="#59461D" transform="matrix(1.00, 0.00, -0.00, -1.00, 356.6, 5.5)">R</text><text xml:space="preserve" font-family="Italic-Bricks,Italic Bricks" font-style="italic" font-size="34.0" fill="#59461D" transform="matrix(1.00, 0.00, -0.00, -1.00, 384.2, 5.5)">D</text><text xml:space="preserve" font-family="Italic-Bricks,Italic Bricks" font-style="italic" font-size="34.0" fill="#59461D" transform="matrix(1.00, 0.00, -0.00, -1.00, 411.8, 5.5)">W</text><text xml:space="preserve" font-family="Italic-Bricks,Italic Bricks" font-style="italic" font-size="34.0" fill="#59461D" transform="matrix(1.00, 0.00, -0.00, -1.00, 452.2, 5.5)">A</text><text xml:space="preserve" font-family="Italic-Bricks,Italic Bricks" font-style="italic" font-size="34.0" fill="#59461D" transform="matrix(1.00, 0.00, -0.00, -1.00, 479.8, 5.5)">R</text><text xml:space="preserve" font-family="Italic-Bricks,Italic Bricks" font-style="italic" font-size="34.0" fill="#59461D" transform="matrix(1.00, 0.00, -0.00, -1.00, 507.4, 5.5)">E</text><text xml:space="preserve" font-family="Italic-Bricks,Italic Bricks" font-style="italic" font-size="34.0" fill="#59461D" transform="matrix(1.00, 0.00, -0.00, -1.00, 535.0, 5.5)"> </text><text xml:space="preserve" font-family="Italic-Bricks,Italic Bricks" font-style="italic" font-size="34.0" fill="#59461D" transform="matrix(1.00, 0.00, -0.00, -1.00, 554.1, 5.5)">A</text><text xml:space="preserve" font-family="Italic-Bricks,Italic Bricks" font-style="italic" font-size="34.0" fill="#59461D" transform="matrix(1.00, 0.00, -0.00, -1.00, 581.7, 5.5)">D</text><text xml:space="preserve" font-family="Italic-Bricks,Italic Bricks" font-style="italic" font-size="34.0" fill="#59461D" transform="matrix(1.00, 0.00, -0.00, -1.00, 609.3, 5.5)">V</text><text xml:space="preserve" font-family="Italic-Bricks,Italic Bricks" font-style="italic" font-size="34.0" fill="#59461D" transform="matrix(1.00, 0.00, -0.00, -1.00, 636.9, 5.5)">E</text><text xml:space="preserve" font-family="Italic-Bricks,Italic Bricks" font-style="italic" font-size="34.0" fill="#59461D" transform="matrix(1.00, 0.00, -0.00, -1.00, 664.5, 5.5)">N</text><text xml:space="preserve" font-family="Italic-Bricks,Italic Bricks" font-style="italic" font-size="34.0" fill="#59461D" transform="matrix(1.00, 0.00, -0.00, -1.00, 692.1, 5.5)">T</text><text xml:space="preserve" font-family="Italic-Bricks,Italic Bricks" font-style="italic" font-size="34.0" fill="#59461D" transform="matrix(1.00, 0.00, -0.00, -1.00, 719.7, 5.5)">U</text><text xml:space="preserve" font-family="Italic-Bricks,Italic Bricks" font-style="italic" font-size="34.0" fill="#59461D" transform="matrix(1.00, 0.00, -0.00, -1.00, 747.3, 5.5)">R</text><text xml:space="preserve" font-family="Italic-Bricks,Italic Bricks" font-style="italic" font-size="34.0" fill="#59461D" transform="matrix(1.00, 0.00, -0.00, -1.00, 775.0, 5.5)">E</text></g></svg>