<?xml version="1.0" encoding="UTF-8" standalone="no"?><svg xmlns="http://www.w3.org/2000/svg" xmlns:xlink="http://www.w3.org/1999/xlink" clip-rule="evenodd" stroke-miterlimit="10" viewBox="0 0 1024 768"><desc>SVG generated by Keynote</desc><defs></defs><g transform="matrix(1.00, 0.00, -0.00, -1.00, 0.0, 768.0)"><path d="M 0.0 768.0 L 1024.0 768.0 L 1024.0 0.0 L 0.0 0.0 Z M 0.0 768.0 " fill="#FEFFFF"></path><path d="M -9.0 783.0 L 1034.0 783.0 L 1034.0 -18.0 L -9.0 -18.0 Z M -9.0 783.0 " fill="#000000"></path><path d="M 0.0 0.0 L 1043.0 0.0 L 1043.0 801.0 L 0.0 801.0 Z M 0.0 0.0 " fill="none" stroke="#000000" stroke-width="2.00" transform="matrix(1.00, 0.00, 0.00, -1.00, -9.0, 783.0)"></path><g><clipPath id="clip0x610000ab7a60"><path d="M 144.6 431.3 L 186.3 687.1 L 289.2 670.3 L 247.5 414.5 Z M 144.6 431.3 "></path></clipPath><g clip-path="url(#clip0x610000ab7a60)"><path d="M 157.2 496.3 C 153.5 473.4 169.0 451.8 191.9 448.0 L 194.9 447.6 C 205.9 445.8 216.6 448.5 225.2 454.4 L 245.9 419.0 L 255.6 559.2 L 267.0 629.3 C 270.8 652.2 255.2 673.8 232.3 677.5 L 229.4 678.0 C 206.5 681.7 184.9 666.2 181.2 643.3 L 157.2 496.3 Z M 157.2 496.3 " fill="#FFFFFF"></path><path d="M 42.0 0.0 C 18.8 0.0 0.0 18.8 0.0 42.0 L 0.0 45.0 C 0.0 56.2 4.5 66.3 11.6 73.8 L -20.0 100.0 L 120.0 87.0 L 191.0 87.0 C 214.2 87.0 233.0 68.2 233.0 45.0 L 233.0 42.0 C 233.0 18.8 214.2 0.0 191.0 0.0 L 42.0 0.0 Z M 42.0 0.0 " fill="none" stroke="#000000" stroke-width="2.00" transform="matrix(0.16, 0.99, 0.99, -0.16, 150.4, 454.8)"></path></g></g><g><clipPath id="clip0x610000ab7dc0"><path d="M 193.0 610.0 L 214.0 610.0 L 214.0 649.0 L 193.0 649.0 Z M 193.0 610.0 "></path></clipPath><g clip-path="url(#clip0x610000ab7dc0)"><path d="M 209.5 641.9 C 212.8 635.0 212.8 624.0 209.5 617.1 C 206.2 610.3 200.8 610.3 197.5 617.1 C 194.2 624.0 194.2 635.0 197.5 641.9 C 200.8 648.7 206.2 648.7 209.5 641.9 " fill="#2E063D"></path><path d="M 14.5 5.1 C 17.8 12.0 17.8 23.0 14.5 29.9 C 11.2 36.7 5.8 36.7 2.5 29.9 C -0.8 23.0 -0.8 12.0 2.5 5.1 C 5.8 -1.7 11.2 -1.7 14.5 5.1 " fill="none" stroke="#000000" stroke-width="2.00" transform="matrix(1.00, 0.00, 0.00, -1.00, 195.0, 647.0)"></path></g></g><g><clipPath id="clip0x610000ab8180"><path d="M 221.0 614.0 L 241.0 614.0 L 241.0 649.0 L 221.0 649.0 Z M 221.0 614.0 "></path></clipPath><g clip-path="url(#clip0x610000ab8180)"><path d="M 236.7 642.5 C 239.8 636.4 239.8 626.6 236.7 620.5 C 233.5 614.5 228.5 614.5 225.3 620.5 C 222.2 626.6 222.2 636.4 225.3 642.5 C 228.5 648.5 233.5 648.5 236.7 642.5 " fill="#2E063D"></path><path d="M 13.7 4.5 C 16.8 10.6 16.8 20.4 13.7 26.5 C 10.5 32.5 5.5 32.5 2.3 26.5 C -0.8 20.4 -0.8 10.6 2.3 4.5 C 5.5 -1.5 10.5 -1.5 13.7 4.5 " fill="none" stroke="#000000" stroke-width="2.00" transform="matrix(1.00, 0.00, 0.00, -1.00, 223.0, 647.0)"></path></g></g><g><clipPath id="clip0x610000ab8360"><path d="M 201.7 581.7 L 237.6 581.7 L 237.6 601.2 L 201.7 601.2 Z M 201.7 581.7 "></path></clipPath><g clip-path="url(#clip0x610000ab8360)"><path d="M 0.0 10.0 C 0.0 10.0 8.5 16.9 16.7 14.5 C 24.9 12.1 25.7 7.2 31.8 0.0 " fill="none" stroke="#000000" stroke-width="3.00" transform="matrix(1.00, 0.00, 0.00, -1.00, 203.6, 599.3)"></path></g></g></g></svg>