<?xml version="1.0" encoding="UTF-8" standalone="no"?><svg xmlns="http://www.w3.org/2000/svg" xmlns:xlink="http://www.w3.org/1999/xlink" clip-rule="evenodd" stroke-miterlimit="10" viewBox="0 0 146 273"><desc>SVG generated by Keynote</desc><defs></defs><g transform="matrix(1.00, 0.00, -0.00, -1.00, 0.0, 273.0)"><path d="M 13.2 82.3 C 9.5 59.4 25.0 37.8 47.9 34.0 L 50.9 33.6 C 61.9 31.8 72.6 34.5 81.2 40.4 L 101.9 5.0 L 111.6 145.2 L 123.0 215.3 C 126.8 238.2 111.2 259.8 88.3 263.5 L 85.4 264.0 C 62.5 267.7 40.9 252.2 37.2 229.3 L 13.2 82.3 Z M 13.2 82.3 " fill="#FFFFFF"></path><path d="M 42.0 0.0 C 18.8 0.0 0.0 18.8 0.0 42.0 L 0.0 45.0 C 0.0 56.2 4.5 66.3 11.6 73.8 L -20.0 100.0 L 120.0 87.0 L 191.0 87.0 C 214.2 87.0 233.0 68.2 233.0 45.0 L 233.0 42.0 C 233.0 18.8 214.2 0.0 191.0 0.0 L 42.0 0.0 Z M 42.0 0.0 " fill="none" stroke="#000000" stroke-width="2.00" transform="matrix(0.16, 0.99, 0.99, -0.16, 6.4, 40.8)"></path></g></svg>