<?xml version="1.0" encoding="UTF-8" standalone="no"?><svg xmlns="http://www.w3.org/2000/svg" xmlns:xlink="http://www.w3.org/1999/xlink" clip-rule="evenodd" stroke-miterlimit="10" viewBox="0 0 1024 768"><desc>SVG generated by Keynote</desc><defs></defs><g transform="matrix(1.00, 0.00, -0.00, -1.00, 0.0, 768.0)"><path d="M 0.0 768.0 L 1024.0 768.0 L 1024.0 0.0 L 0.0 0.0 Z M 0.0 768.0 " fill="#FEFFFF"></path><image xlink:href="../../5721A616-07FA-41A5-B824-54266D8D1E5B/assets/3F3AC118243E66B3C677CEF7EE94FC01.png" width="384.00" height="384.00" transform="matrix(1.65, 0.00, -0.00, -1.65, 169.0, 815.0)"></image><text xml:space="preserve" font-family="GillSans,Gill Sans" font-size="144.0" fill="#FFFFFF" transform="matrix(-0.00, -1.00, -1.00, 0.00, 462.4, 544.1)">:</text><text xml:space="preserve" font-family="GillSans,Gill Sans" font-size="144.0" fill="#FFFFFF" transform="matrix(-0.00, -1.00, -1.00, 0.00, 462.3, 512.5)">|</text><text xml:space="preserve" font-family="Vipond-Octic,Vipond Octic" font-size="72.0" fill="#000000" transform="matrix(1.00, 0.00, -0.00, -1.00, 108.1, 133.5)">“</text><text xml:space="preserve" font-family="Vipond-Octic,Vipond Octic" font-size="72.0" fill="#000000" transform="matrix(1.00, 0.00, -0.00, -1.00, 162.1, 133.5)">h</text><text xml:space="preserve" font-family="Vipond-Octic,Vipond Octic" font-size="72.0" fill="#000000" transform="matrix(1.00, 0.00, -0.00, -1.00, 207.1, 133.5)">o</text><text xml:space="preserve" font-family="Vipond-Octic,Vipond Octic" font-size="72.0" fill="#000000" transform="matrix(1.00, 0.00, -0.00, -1.00, 252.1, 133.5)">w</text><text xml:space="preserve" font-family="Vipond-Octic,Vipond Octic" font-size="72.0" fill="#000000" transform="matrix(1.00, 0.00, -0.00, -1.00, 315.1, 133.5)"> </text><text xml:space="preserve" font-family="Vipond-Octic,Vipond Octic" font-size="72.0" fill="#000000" transform="matrix(1.00, 0.00, -0.00, -1.00, 333.1, 133.5)">m</text><text xml:space="preserve" font-family="Vipond-Octic,Vipond Octic" font-size="72.0" fill="#000000" transform="matrix(1.00, 0.00, -0.00, -1.00, 396.1, 133.5)">a</text><text xml:space="preserve" font-family="Vipond-Octic,Vipond Octic" font-size="72.0" fill="#000000" transform="matrix(1.00, 0.00, -0.00, -1.00, 441.1, 133.5)">n</text><text xml:space="preserve" font-family="Vipond-Octic,Vipond Octic" font-size="72.0" fill="#000000" transform="matrix(1.00, 0.00, -0.00, -1.00, 486.1, 133.5)">y</text><text xml:space="preserve" font-family="Vipond-Octic,Vipond Octic" font-size="72.0" fill="#000000" transform="matrix(1.00, 0.00, -0.00, -1.00, 531.1, 133.5)"> </text><text xml:space="preserve" font-family="Vipond-Octic,Vipond Octic" font-size="72.0" fill="#000000" transform="matrix(1.00, 0.00, -0.00, -1.00, 549.1, 133.5)">b</text><text xml:space="preserve" font-family="Vipond-Octic,Vipond Octic" font-size="72.0" fill="#000000" transform="matrix(1.00, 0.00, -0.00, -1.00, 594.1, 133.5)">i</text><text xml:space="preserve" font-family="Vipond-Octic,Vipond Octic" font-size="72.0" fill="#000000" transform="matrix(1.00, 0.00, -0.00, -1.00, 621.1, 133.5)">t</text><text xml:space="preserve" font-family="Vipond-Octic,Vipond Octic" font-size="72.0" fill="#000000" transform="matrix(1.00, 0.00, -0.00, -1.00, 666.1, 133.5)">s</text><text xml:space="preserve" font-family="Vipond-Octic,Vipond Octic" font-size="72.0" fill="#000000" transform="matrix(1.00, 0.00, -0.00, -1.00, 711.1, 133.5)"> </text><text xml:space="preserve" font-family="Vipond-Octic,Vipond Octic" font-size="72.0" fill="#000000" transform="matrix(1.00, 0.00, -0.00, -1.00, 729.1, 133.5)">a</text><text xml:space="preserve" font-family="Vipond-Octic,Vipond Octic" font-size="72.0" fill="#000000" transform="matrix(1.00, 0.00, -0.00, -1.00, 774.1, 133.5)">r</text><text xml:space="preserve" font-family="Vipond-Octic,Vipond Octic" font-size="72.0" fill="#000000" transform="matrix(1.00, 0.00, -0.00, -1.00, 819.1, 133.5)">e</text><text xml:space="preserve" font-family="Vipond-Octic,Vipond Octic" font-size="72.0" fill="#000000" transform="matrix(1.00, 0.00, -0.00, -1.00, 864.1, 133.5)"> </text><text xml:space="preserve" font-family="Vipond-Octic,Vipond Octic" font-size="72.0" fill="#000000" transform="matrix(1.00, 0.00, -0.00, -1.00, 270.1, 70.5)">i</text><text xml:space="preserve" font-family="Vipond-Octic,Vipond Octic" font-size="72.0" fill="#000000" transform="matrix(1.00, 0.00, -0.00, -1.00, 297.1, 70.5)">n</text><text xml:space="preserve" font-family="Vipond-Octic,Vipond Octic" font-size="72.0" fill="#000000" transform="matrix(1.00, 0.00, -0.00, -1.00, 342.1, 70.5)"> </text><text xml:space="preserve" font-family="Vipond-Octic,Vipond Octic" font-size="72.0" fill="#000000" transform="matrix(1.00, 0.00, -0.00, -1.00, 360.1, 70.5)">a</text><text xml:space="preserve" font-family="Vipond-Octic,Vipond Octic" font-size="72.0" fill="#000000" transform="matrix(1.00, 0.00, -0.00, -1.00, 405.1, 70.5)"> </text><text xml:space="preserve" font-family="Vipond-Octic,Vipond Octic" font-size="72.0" fill="#000000" transform="matrix(1.00, 0.00, -0.00, -1.00, 423.1, 70.5)">b</text><text xml:space="preserve" font-family="Vipond-Octic,Vipond Octic" font-size="72.0" fill="#000000" transform="matrix(1.00, 0.00, -0.00, -1.00, 468.1, 70.5)">y</text><text xml:space="preserve" font-family="Vipond-Octic,Vipond Octic" font-size="72.0" fill="#000000" transform="matrix(1.00, 0.00, -0.00, -1.00, 513.1, 70.5)">t</text><text xml:space="preserve" font-family="Vipond-Octic,Vipond Octic" font-size="72.0" fill="#000000" transform="matrix(1.00, 0.00, -0.00, -1.00, 558.1, 70.5)">e</text><text xml:space="preserve" font-family="Vipond-Octic,Vipond Octic" font-size="72.0" fill="#000000" transform="matrix(1.00, 0.00, -0.00, -1.00, 603.1, 70.5)">?</text><text xml:space="preserve" font-family="Vipond-Octic,Vipond Octic" font-size="72.0" fill="#000000" transform="matrix(1.00, 0.00, -0.00, -1.00, 648.1, 70.5)">”</text><g opacity="0.00"><g><clipPath id="clip0x600000cb2e40"><path d="M 427.0 461.0 L 562.0 461.0 L 562.0 490.0 L 427.0 490.0 Z M 427.0 461.0 "></path></clipPath><g clip-path="url(#clip0x600000cb2e40)"><path d="M 429.0 488.0 L 560.0 488.0 L 560.0 463.0 L 429.0 463.0 Z M 429.0 488.0 " fill="#FFFFFF"></path><path d="M 0.0 0.0 L 131.0 0.0 L 131.0 25.0 L 0.0 25.0 Z M 0.0 0.0 " fill="none" stroke="#000000" stroke-opacity="0.00" stroke-width="2.00" transform="matrix(1.00, 0.00, 0.00, -1.00, 429.0, 488.0)"></path></g></g></g></g></svg>