<?xml version="1.0" encoding="UTF-8" standalone="no"?><svg xmlns="http://www.w3.org/2000/svg" xmlns:xlink="http://www.w3.org/1999/xlink" clip-rule="evenodd" stroke-miterlimit="10" viewBox="0 0 760 111"><desc>SVG generated by Keynote</desc><defs></defs><g transform="matrix(1.00, 0.00, -0.00, -1.00, 0.0, 111.0)"><text xml:space="preserve" font-family="Vipond-Octic,Vipond Octic" font-size="72.0" fill="#000000" transform="matrix(1.00, 0.00, -0.00, -1.00, 1.1, 64.5)">“</text><text xml:space="preserve" font-family="Vipond-Octic,Vipond Octic" font-size="72.0" fill="#000000" transform="matrix(1.00, 0.00, -0.00, -1.00, 55.1, 64.5)">h</text><text xml:space="preserve" font-family="Vipond-Octic,Vipond Octic" font-size="72.0" fill="#000000" transform="matrix(1.00, 0.00, -0.00, -1.00, 100.1, 64.5)">o</text><text xml:space="preserve" font-family="Vipond-Octic,Vipond Octic" font-size="72.0" fill="#000000" transform="matrix(1.00, 0.00, -0.00, -1.00, 145.1, 64.5)">w</text><text xml:space="preserve" font-family="Vipond-Octic,Vipond Octic" font-size="72.0" fill="#000000" transform="matrix(1.00, 0.00, -0.00, -1.00, 208.1, 64.5)"> </text><text xml:space="preserve" font-family="Vipond-Octic,Vipond Octic" font-size="72.0" fill="#000000" transform="matrix(1.00, 0.00, -0.00, -1.00, 226.1, 64.5)">m</text><text xml:space="preserve" font-family="Vipond-Octic,Vipond Octic" font-size="72.0" fill="#000000" transform="matrix(1.00, 0.00, -0.00, -1.00, 289.1, 64.5)">a</text><text xml:space="preserve" font-family="Vipond-Octic,Vipond Octic" font-size="72.0" fill="#000000" transform="matrix(1.00, 0.00, -0.00, -1.00, 334.1, 64.5)">n</text><text xml:space="preserve" font-family="Vipond-Octic,Vipond Octic" font-size="72.0" fill="#000000" transform="matrix(1.00, 0.00, -0.00, -1.00, 379.1, 64.5)">y</text><text xml:space="preserve" font-family="Vipond-Octic,Vipond Octic" font-size="72.0" fill="#000000" transform="matrix(1.00, 0.00, -0.00, -1.00, 424.1, 64.5)"> </text><text xml:space="preserve" font-family="Vipond-Octic,Vipond Octic" font-size="72.0" fill="#000000" transform="matrix(1.00, 0.00, -0.00, -1.00, 442.1, 64.5)">b</text><text xml:space="preserve" font-family="Vipond-Octic,Vipond Octic" font-size="72.0" fill="#000000" transform="matrix(1.00, 0.00, -0.00, -1.00, 487.1, 64.5)">i</text><text xml:space="preserve" font-family="Vipond-Octic,Vipond Octic" font-size="72.0" fill="#000000" transform="matrix(1.00, 0.00, -0.00, -1.00, 514.1, 64.5)">t</text><text xml:space="preserve" font-family="Vipond-Octic,Vipond Octic" font-size="72.0" fill="#000000" transform="matrix(1.00, 0.00, -0.00, -1.00, 559.1, 64.5)">s</text><text xml:space="preserve" font-family="Vipond-Octic,Vipond Octic" font-size="72.0" fill="#000000" transform="matrix(1.00, 0.00, -0.00, -1.00, 604.1, 64.5)"> </text><text xml:space="preserve" font-family="Vipond-Octic,Vipond Octic" font-size="72.0" fill="#000000" transform="matrix(1.00, 0.00, -0.00, -1.00, 622.1, 64.5)">a</text><text xml:space="preserve" font-family="Vipond-Octic,Vipond Octic" font-size="72.0" fill="#000000" transform="matrix(1.00, 0.00, -0.00, -1.00, 667.1, 64.5)">r</text><text xml:space="preserve" font-family="Vipond-Octic,Vipond Octic" font-size="72.0" fill="#000000" transform="matrix(1.00, 0.00, -0.00, -1.00, 712.1, 64.5)">e</text><text xml:space="preserve" font-family="Vipond-Octic,Vipond Octic" font-size="72.0" fill="#000000" transform="matrix(1.00, 0.00, -0.00, -1.00, 757.1, 64.5)"> </text><text xml:space="preserve" font-family="Vipond-Octic,Vipond Octic" font-size="72.0" fill="#000000" transform="matrix(1.00, 0.00, -0.00, -1.00, 163.1, 1.5)">i</text><text xml:space="preserve" font-family="Vipond-Octic,Vipond Octic" font-size="72.0" fill="#000000" transform="matrix(1.00, 0.00, -0.00, -1.00, 190.1, 1.5)">n</text><text xml:space="preserve" font-family="Vipond-Octic,Vipond Octic" font-size="72.0" fill="#000000" transform="matrix(1.00, 0.00, -0.00, -1.00, 235.1, 1.5)"> </text><text xml:space="preserve" font-family="Vipond-Octic,Vipond Octic" font-size="72.0" fill="#000000" transform="matrix(1.00, 0.00, -0.00, -1.00, 253.1, 1.5)">a</text><text xml:space="preserve" font-family="Vipond-Octic,Vipond Octic" font-size="72.0" fill="#000000" transform="matrix(1.00, 0.00, -0.00, -1.00, 298.1, 1.5)"> </text><text xml:space="preserve" font-family="Vipond-Octic,Vipond Octic" font-size="72.0" fill="#000000" transform="matrix(1.00, 0.00, -0.00, -1.00, 316.1, 1.5)">b</text><text xml:space="preserve" font-family="Vipond-Octic,Vipond Octic" font-size="72.0" fill="#000000" transform="matrix(1.00, 0.00, -0.00, -1.00, 361.1, 1.5)">y</text><text xml:space="preserve" font-family="Vipond-Octic,Vipond Octic" font-size="72.0" fill="#000000" transform="matrix(1.00, 0.00, -0.00, -1.00, 406.1, 1.5)">t</text><text xml:space="preserve" font-family="Vipond-Octic,Vipond Octic" font-size="72.0" fill="#000000" transform="matrix(1.00, 0.00, -0.00, -1.00, 451.1, 1.5)">e</text><text xml:space="preserve" font-family="Vipond-Octic,Vipond Octic" font-size="72.0" fill="#000000" transform="matrix(1.00, 0.00, -0.00, -1.00, 496.1, 1.5)">?</text><text xml:space="preserve" font-family="Vipond-Octic,Vipond Octic" font-size="72.0" fill="#000000" transform="matrix(1.00, 0.00, -0.00, -1.00, 541.1, 1.5)">”</text></g></svg>