<?xml version="1.0" encoding="UTF-8" standalone="no"?><svg xmlns="http://www.w3.org/2000/svg" xmlns:xlink="http://www.w3.org/1999/xlink" clip-rule="evenodd" stroke-miterlimit="10" viewBox="0 0 1155 70"><desc>SVG generated by Keynote</desc><defs></defs><g transform="matrix(1.00, 0.00, -0.00, -1.00, 0.0, 70.0)"><path d="M 2.6 68.4 L 1153.9 41.6 L 1153.0 1.6 L 1.7 28.4 Z M 2.6 68.4 " fill="#FEFB40"></path><g><clipPath id="clip0x6080004bf7a0"><path d="M 2.6 68.4 L 1153.9 41.6 L 1153.0 1.6 L 1.7 28.4 Z M 2.6 68.4 "></path></clipPath><g clip-path="url(#clip0x6080004bf7a0)"><text xml:space="preserve" font-family="CourierNewPS-BoldMT,Courier New" font-weight="bold" font-size="14.0" fill="#4E7927" transform="matrix(1.00, -0.02, -0.02, -1.00, 6.3, 52.5)">[</text><text xml:space="preserve" font-family="CourierNewPS-BoldMT,Courier New" font-weight="bold" font-size="14.0" fill="#4E7927" transform="matrix(1.00, -0.02, -0.02, -1.00, 14.7, 52.3)">0</text><text xml:space="preserve" font-family="CourierNewPS-BoldMT,Courier New" font-weight="bold" font-size="14.0" fill="#4E7927" transform="matrix(1.00, -0.02, -0.02, -1.00, 23.1, 52.1)">x</text><text xml:space="preserve" font-family="CourierNewPS-BoldMT,Courier New" font-weight="bold" font-size="14.0" fill="#4E7927" transform="matrix(1.00, -0.02, -0.02, -1.00, 31.5, 51.9)">F</text><text xml:space="preserve" font-family="CourierNewPS-BoldMT,Courier New" font-weight="bold" font-size="14.0" fill="#4E7927" transform="matrix(1.00, -0.02, -0.02, -1.00, 39.9, 51.7)">F</text><text xml:space="preserve" font-family="CourierNewPS-BoldMT,Courier New" font-weight="bold" font-size="14.0" fill="#4E7927" transform="matrix(1.00, -0.02, -0.02, -1.00, 48.3, 51.6)">,</text><text xml:space="preserve" font-family="CourierNewPS-BoldMT,Courier New" font-weight="bold" font-size="14.0" fill="#4E7927" transform="matrix(1.00, -0.02, -0.02, -1.00, 56.7, 51.4)"> </text><text xml:space="preserve" font-family="CourierNewPS-BoldMT,Courier New" font-weight="bold" font-size="14.0" fill="#4E7927" transform="matrix(1.00, -0.02, -0.02, -1.00, 65.3, 51.2)">0</text><text xml:space="preserve" font-family="CourierNewPS-BoldMT,Courier New" font-weight="bold" font-size="14.0" fill="#4E7927" transform="matrix(1.00, -0.02, -0.02, -1.00, 73.7, 51.0)">x</text><text xml:space="preserve" font-family="CourierNewPS-BoldMT,Courier New" font-weight="bold" font-size="14.0" fill="#4E7927" transform="matrix(1.00, -0.02, -0.02, -1.00, 82.1, 50.8)">F</text><text xml:space="preserve" font-family="CourierNewPS-BoldMT,Courier New" font-weight="bold" font-size="14.0" fill="#4E7927" transform="matrix(1.00, -0.02, -0.02, -1.00, 90.5, 50.6)">F</text><text xml:space="preserve" font-family="CourierNewPS-BoldMT,Courier New" font-weight="bold" font-size="14.0" fill="#4E7927" transform="matrix(1.00, -0.02, -0.02, -1.00, 98.9, 50.4)">,</text><text xml:space="preserve" font-family="CourierNewPS-BoldMT,Courier New" font-weight="bold" font-size="14.0" fill="#4E7927" transform="matrix(1.00, -0.02, -0.02, -1.00, 107.3, 50.2)"> </text><text xml:space="preserve" font-family="CourierNewPS-BoldMT,Courier New" font-weight="bold" font-size="14.0" fill="#4E7927" transform="matrix(1.00, -0.02, -0.02, -1.00, 115.9, 50.0)">0</text><text xml:space="preserve" font-family="CourierNewPS-BoldMT,Courier New" font-weight="bold" font-size="14.0" fill="#4E7927" transform="matrix(1.00, -0.02, -0.02, -1.00, 124.3, 49.8)">x</text><text xml:space="preserve" font-family="CourierNewPS-BoldMT,Courier New" font-weight="bold" font-size="14.0" fill="#4E7927" transform="matrix(1.00, -0.02, -0.02, -1.00, 132.7, 49.6)">F</text><text xml:space="preserve" font-family="CourierNewPS-BoldMT,Courier New" font-weight="bold" font-size="14.0" fill="#4E7927" transform="matrix(1.00, -0.02, -0.02, -1.00, 141.1, 49.4)">F</text><text xml:space="preserve" font-family="CourierNewPS-BoldMT,Courier New" font-weight="bold" font-size="14.0" fill="#4E7927" transform="matrix(1.00, -0.02, -0.02, -1.00, 149.5, 49.2)">,</text><text xml:space="preserve" font-family="CourierNewPS-BoldMT,Courier New" font-weight="bold" font-size="14.0" fill="#4E7927" transform="matrix(1.00, -0.02, -0.02, -1.00, 157.9, 49.0)"> </text><text xml:space="preserve" font-family="CourierNewPS-BoldMT,Courier New" font-weight="bold" font-size="14.0" fill="#4E7927" transform="matrix(1.00, -0.02, -0.02, -1.00, 166.5, 48.8)">0</text><text xml:space="preserve" font-family="CourierNewPS-BoldMT,Courier New" font-weight="bold" font-size="14.0" fill="#4E7927" transform="matrix(1.00, -0.02, -0.02, -1.00, 174.9, 48.6)">x</text><text xml:space="preserve" font-family="CourierNewPS-BoldMT,Courier New" font-weight="bold" font-size="14.0" fill="#4E7927" transform="matrix(1.00, -0.02, -0.02, -1.00, 183.3, 48.4)">7</text><text xml:space="preserve" font-family="CourierNewPS-BoldMT,Courier New" font-weight="bold" font-size="14.0" fill="#4E7927" transform="matrix(1.00, -0.02, -0.02, -1.00, 191.7, 48.2)">F</text><text xml:space="preserve" font-family="CourierNewPS-BoldMT,Courier New" font-weight="bold" font-size="14.0" fill="#4E7927" transform="matrix(1.00, -0.02, -0.02, -1.00, 200.1, 48.0)">,</text><text xml:space="preserve" font-family="CourierNewPS-BoldMT,Courier New" font-weight="bold" font-size="14.0" fill="#4E7927" transform="matrix(1.00, -0.02, -0.02, -1.00, 208.5, 47.8)"> </text><text xml:space="preserve" font-family="CourierNewPS-BoldMT,Courier New" font-weight="bold" font-size="14.0" fill="#4E7927" transform="matrix(1.00, -0.02, -0.02, -1.00, 217.1, 47.6)">0</text><text xml:space="preserve" font-family="CourierNewPS-BoldMT,Courier New" font-weight="bold" font-size="14.0" fill="#4E7927" transform="matrix(1.00, -0.02, -0.02, -1.00, 225.5, 47.4)">x</text><text xml:space="preserve" font-family="CourierNewPS-BoldMT,Courier New" font-weight="bold" font-size="14.0" fill="#4E7927" transform="matrix(1.00, -0.02, -0.02, -1.00, 233.9, 47.2)">7</text><text xml:space="preserve" font-family="CourierNewPS-BoldMT,Courier New" font-weight="bold" font-size="14.0" fill="#4E7927" transform="matrix(1.00, -0.02, -0.02, -1.00, 242.3, 47.0)">F</text><text xml:space="preserve" font-family="CourierNewPS-BoldMT,Courier New" font-weight="bold" font-size="14.0" fill="#4E7927" transform="matrix(1.00, -0.02, -0.02, -1.00, 250.7, 46.8)">,</text><text xml:space="preserve" font-family="CourierNewPS-BoldMT,Courier New" font-weight="bold" font-size="14.0" fill="#4E7927" transform="matrix(1.00, -0.02, -0.02, -1.00, 259.1, 46.6)"> </text><text xml:space="preserve" font-family="CourierNewPS-BoldMT,Courier New" font-weight="bold" font-size="14.0" fill="#4E7927" transform="matrix(1.00, -0.02, -0.02, -1.00, 267.7, 46.4)">0</text><text xml:space="preserve" font-family="CourierNewPS-BoldMT,Courier New" font-weight="bold" font-size="14.0" fill="#4E7927" transform="matrix(1.00, -0.02, -0.02, -1.00, 276.1, 46.2)">x</text><text xml:space="preserve" font-family="CourierNewPS-BoldMT,Courier New" font-weight="bold" font-size="14.0" fill="#4E7927" transform="matrix(1.00, -0.02, -0.02, -1.00, 284.5, 46.0)">F</text><text xml:space="preserve" font-family="CourierNewPS-BoldMT,Courier New" font-weight="bold" font-size="14.0" fill="#4E7927" transform="matrix(1.00, -0.02, -0.02, -1.00, 292.9, 45.8)">F</text><text xml:space="preserve" font-family="CourierNewPS-BoldMT,Courier New" font-weight="bold" font-size="14.0" fill="#4E7927" transform="matrix(1.00, -0.02, -0.02, -1.00, 301.3, 45.7)">,</text><text xml:space="preserve" font-family="CourierNewPS-BoldMT,Courier New" font-weight="bold" font-size="14.0" fill="#4E7927" transform="matrix(1.00, -0.02, -0.02, -1.00, 309.7, 45.5)"> </text><text xml:space="preserve" font-family="CourierNewPS-BoldMT,Courier New" font-weight="bold" font-size="14.0" fill="#4E7927" transform="matrix(1.00, -0.02, -0.02, -1.00, 318.3, 45.3)">0</text><text xml:space="preserve" font-family="CourierNewPS-BoldMT,Courier New" font-weight="bold" font-size="14.0" fill="#4E7927" transform="matrix(1.00, -0.02, -0.02, -1.00, 326.7, 45.1)">x</text><text xml:space="preserve" font-family="CourierNewPS-BoldMT,Courier New" font-weight="bold" font-size="14.0" fill="#4E7927" transform="matrix(1.00, -0.02, -0.02, -1.00, 335.1, 44.9)">F</text><text xml:space="preserve" font-family="CourierNewPS-BoldMT,Courier New" font-weight="bold" font-size="14.0" fill="#4E7927" transform="matrix(1.00, -0.02, -0.02, -1.00, 343.5, 44.7)">F</text><text xml:space="preserve" font-family="CourierNewPS-BoldMT,Courier New" font-weight="bold" font-size="14.0" fill="#4E7927" transform="matrix(1.00, -0.02, -0.02, -1.00, 351.9, 44.5)">,</text><text xml:space="preserve" font-family="CourierNewPS-BoldMT,Courier New" font-weight="bold" font-size="14.0" fill="#4E7927" transform="matrix(1.00, -0.02, -0.02, -1.00, 360.3, 44.3)"> </text><text xml:space="preserve" font-family="CourierNewPS-BoldMT,Courier New" font-weight="bold" font-size="14.0" fill="#4E7927" transform="matrix(1.00, -0.02, -0.02, -1.00, 368.9, 44.1)">0</text><text xml:space="preserve" font-family="CourierNewPS-BoldMT,Courier New" font-weight="bold" font-size="14.0" fill="#4E7927" transform="matrix(1.00, -0.02, -0.02, -1.00, 377.3, 43.9)">x</text><text xml:space="preserve" font-family="CourierNewPS-BoldMT,Courier New" font-weight="bold" font-size="14.0" fill="#4E7927" transform="matrix(1.00, -0.02, -0.02, -1.00, 385.7, 43.7)">7</text><text xml:space="preserve" font-family="CourierNewPS-BoldMT,Courier New" font-weight="bold" font-size="14.0" fill="#4E7927" transform="matrix(1.00, -0.02, -0.02, -1.00, 394.1, 43.5)">F</text><text xml:space="preserve" font-family="CourierNewPS-BoldMT,Courier New" font-weight="bold" font-size="14.0" fill="#4E7927" transform="matrix(1.00, -0.02, -0.02, -1.00, 402.5, 43.3)">,</text><text xml:space="preserve" font-family="CourierNewPS-BoldMT,Courier New" font-weight="bold" font-size="14.0" fill="#4E7927" transform="matrix(1.00, -0.02, -0.02, -1.00, 410.9, 43.1)"> </text><text xml:space="preserve" font-family="CourierNewPS-BoldMT,Courier New" font-weight="bold" font-size="14.0" fill="#4E7927" transform="matrix(1.00, -0.02, -0.02, -1.00, 419.6, 42.9)">0</text><text xml:space="preserve" font-family="CourierNewPS-BoldMT,Courier New" font-weight="bold" font-size="14.0" fill="#4E7927" transform="matrix(1.00, -0.02, -0.02, -1.00, 428.0, 42.7)">x</text><text xml:space="preserve" font-family="CourierNewPS-BoldMT,Courier New" font-weight="bold" font-size="14.0" fill="#4E7927" transform="matrix(1.00, -0.02, -0.02, -1.00, 436.4, 42.5)">7</text><text xml:space="preserve" font-family="CourierNewPS-BoldMT,Courier New" font-weight="bold" font-size="14.0" fill="#4E7927" transform="matrix(1.00, -0.02, -0.02, -1.00, 444.8, 42.3)">F</text><text xml:space="preserve" font-family="CourierNewPS-BoldMT,Courier New" font-weight="bold" font-size="14.0" fill="#4E7927" transform="matrix(1.00, -0.02, -0.02, -1.00, 453.2, 42.1)">,</text><text xml:space="preserve" font-family="CourierNewPS-BoldMT,Courier New" font-weight="bold" font-size="14.0" fill="#4E7927" transform="matrix(1.00, -0.02, -0.02, -1.00, 461.6, 41.9)"> </text><text xml:space="preserve" font-family="CourierNewPS-BoldMT,Courier New" font-weight="bold" font-size="14.0" fill="#4E7927" transform="matrix(1.00, -0.02, -0.02, -1.00, 470.2, 41.7)">0</text><text xml:space="preserve" font-family="CourierNewPS-BoldMT,Courier New" font-weight="bold" font-size="14.0" fill="#4E7927" transform="matrix(1.00, -0.02, -0.02, -1.00, 478.6, 41.5)">x</text><text xml:space="preserve" font-family="CourierNewPS-BoldMT,Courier New" font-weight="bold" font-size="14.0" fill="#4E7927" transform="matrix(1.00, -0.02, -0.02, -1.00, 487.0, 41.3)">7</text><text xml:space="preserve" font-family="CourierNewPS-BoldMT,Courier New" font-weight="bold" font-size="14.0" fill="#4E7927" transform="matrix(1.00, -0.02, -0.02, -1.00, 495.4, 41.1)">F</text><text xml:space="preserve" font-family="CourierNewPS-BoldMT,Courier New" font-weight="bold" font-size="14.0" fill="#4E7927" transform="matrix(1.00, -0.02, -0.02, -1.00, 503.8, 40.9)">,</text><text xml:space="preserve" font-family="CourierNewPS-BoldMT,Courier New" font-weight="bold" font-size="14.0" fill="#4E7927" transform="matrix(1.00, -0.02, -0.02, -1.00, 512.2, 40.7)">0</text><text xml:space="preserve" font-family="CourierNewPS-BoldMT,Courier New" font-weight="bold" font-size="14.0" fill="#4E7927" transform="matrix(1.00, -0.02, -0.02, -1.00, 520.6, 40.5)">x</text><text xml:space="preserve" font-family="CourierNewPS-BoldMT,Courier New" font-weight="bold" font-size="14.0" fill="#4E7927" transform="matrix(1.00, -0.02, -0.02, -1.00, 529.0, 40.3)">F</text><text xml:space="preserve" font-family="CourierNewPS-BoldMT,Courier New" font-weight="bold" font-size="14.0" fill="#4E7927" transform="matrix(1.00, -0.02, -0.02, -1.00, 537.4, 40.1)">F</text><text xml:space="preserve" font-family="CourierNewPS-BoldMT,Courier New" font-weight="bold" font-size="14.0" fill="#4E7927" transform="matrix(1.00, -0.02, -0.02, -1.00, 545.8, 40.0)">,</text><text xml:space="preserve" font-family="CourierNewPS-BoldMT,Courier New" font-weight="bold" font-size="14.0" fill="#4E7927" transform="matrix(1.00, -0.02, -0.02, -1.00, 554.2, 39.8)"> </text><text xml:space="preserve" font-family="CourierNewPS-BoldMT,Courier New" font-weight="bold" font-size="14.0" fill="#4E7927" transform="matrix(1.00, -0.02, -0.02, -1.00, 562.8, 39.6)">0</text><text xml:space="preserve" font-family="CourierNewPS-BoldMT,Courier New" font-weight="bold" font-size="14.0" fill="#4E7927" transform="matrix(1.00, -0.02, -0.02, -1.00, 571.2, 39.4)">x</text><text xml:space="preserve" font-family="CourierNewPS-BoldMT,Courier New" font-weight="bold" font-size="14.0" fill="#4E7927" transform="matrix(1.00, -0.02, -0.02, -1.00, 579.6, 39.2)">F</text><text xml:space="preserve" font-family="CourierNewPS-BoldMT,Courier New" font-weight="bold" font-size="14.0" fill="#4E7927" transform="matrix(1.00, -0.02, -0.02, -1.00, 588.0, 39.0)">F</text><text xml:space="preserve" font-family="CourierNewPS-BoldMT,Courier New" font-weight="bold" font-size="14.0" fill="#4E7927" transform="matrix(1.00, -0.02, -0.02, -1.00, 596.4, 38.8)">,</text><text xml:space="preserve" font-family="CourierNewPS-BoldMT,Courier New" font-weight="bold" font-size="14.0" fill="#4E7927" transform="matrix(1.00, -0.02, -0.02, -1.00, 604.8, 38.6)"> </text><text xml:space="preserve" font-family="CourierNewPS-BoldMT,Courier New" font-weight="bold" font-size="14.0" fill="#4E7927" transform="matrix(1.00, -0.02, -0.02, -1.00, 613.4, 38.4)">0</text><text xml:space="preserve" font-family="CourierNewPS-BoldMT,Courier New" font-weight="bold" font-size="14.0" fill="#4E7927" transform="matrix(1.00, -0.02, -0.02, -1.00, 621.8, 38.2)">x</text><text xml:space="preserve" font-family="CourierNewPS-BoldMT,Courier New" font-weight="bold" font-size="14.0" fill="#4E7927" transform="matrix(1.00, -0.02, -0.02, -1.00, 630.2, 38.0)">F</text><text xml:space="preserve" font-family="CourierNewPS-BoldMT,Courier New" font-weight="bold" font-size="14.0" fill="#4E7927" transform="matrix(1.00, -0.02, -0.02, -1.00, 638.6, 37.8)">F</text><text xml:space="preserve" font-family="CourierNewPS-BoldMT,Courier New" font-weight="bold" font-size="14.0" fill="#4E7927" transform="matrix(1.00, -0.02, -0.02, -1.00, 647.0, 37.6)">,</text><text xml:space="preserve" font-family="CourierNewPS-BoldMT,Courier New" font-weight="bold" font-size="14.0" fill="#4E7927" transform="matrix(1.00, -0.02, -0.02, -1.00, 655.4, 37.4)"> </text><text xml:space="preserve" font-family="CourierNewPS-BoldMT,Courier New" font-weight="bold" font-size="14.0" fill="#4E7927" transform="matrix(1.00, -0.02, -0.02, -1.00, 664.0, 37.2)">0</text><text xml:space="preserve" font-family="CourierNewPS-BoldMT,Courier New" font-weight="bold" font-size="14.0" fill="#4E7927" transform="matrix(1.00, -0.02, -0.02, -1.00, 672.4, 37.0)">x</text><text xml:space="preserve" font-family="CourierNewPS-BoldMT,Courier New" font-weight="bold" font-size="14.0" fill="#4E7927" transform="matrix(1.00, -0.02, -0.02, -1.00, 680.8, 36.8)">F</text><text xml:space="preserve" font-family="CourierNewPS-BoldMT,Courier New" font-weight="bold" font-size="14.0" fill="#4E7927" transform="matrix(1.00, -0.02, -0.02, -1.00, 689.2, 36.6)">F</text><text xml:space="preserve" font-family="CourierNewPS-BoldMT,Courier New" font-weight="bold" font-size="14.0" fill="#4E7927" transform="matrix(1.00, -0.02, -0.02, -1.00, 697.6, 36.4)">,</text><text xml:space="preserve" font-family="CourierNewPS-BoldMT,Courier New" font-weight="bold" font-size="14.0" fill="#4E7927" transform="matrix(1.00, -0.02, -0.02, -1.00, 706.0, 36.2)"> </text><text xml:space="preserve" font-family="CourierNewPS-BoldMT,Courier New" font-weight="bold" font-size="14.0" fill="#4E7927" transform="matrix(1.00, -0.02, -0.02, -1.00, 714.6, 36.0)">0</text><text xml:space="preserve" font-family="CourierNewPS-BoldMT,Courier New" font-weight="bold" font-size="14.0" fill="#4E7927" transform="matrix(1.00, -0.02, -0.02, -1.00, 723.0, 35.8)">x</text><text xml:space="preserve" font-family="CourierNewPS-BoldMT,Courier New" font-weight="bold" font-size="14.0" fill="#4E7927" transform="matrix(1.00, -0.02, -0.02, -1.00, 731.4, 35.6)">F</text><text xml:space="preserve" font-family="CourierNewPS-BoldMT,Courier New" font-weight="bold" font-size="14.0" fill="#4E7927" transform="matrix(1.00, -0.02, -0.02, -1.00, 739.8, 35.4)">F</text><text xml:space="preserve" font-family="CourierNewPS-BoldMT,Courier New" font-weight="bold" font-size="14.0" fill="#4E7927" transform="matrix(1.00, -0.02, -0.02, -1.00, 748.2, 35.2)">,</text><text xml:space="preserve" font-family="CourierNewPS-BoldMT,Courier New" font-weight="bold" font-size="14.0" fill="#4E7927" transform="matrix(1.00, -0.02, -0.02, -1.00, 756.6, 35.0)"> </text><text xml:space="preserve" font-family="CourierNewPS-BoldMT,Courier New" font-weight="bold" font-size="14.0" fill="#4E7927" transform="matrix(1.00, -0.02, -0.02, -1.00, 765.2, 34.8)">0</text><text xml:space="preserve" font-family="CourierNewPS-BoldMT,Courier New" font-weight="bold" font-size="14.0" fill="#4E7927" transform="matrix(1.00, -0.02, -0.02, -1.00, 773.6, 34.6)">x</text><text xml:space="preserve" font-family="CourierNewPS-BoldMT,Courier New" font-weight="bold" font-size="14.0" fill="#4E7927" transform="matrix(1.00, -0.02, -0.02, -1.00, 782.0, 34.4)">F</text><text xml:space="preserve" font-family="CourierNewPS-BoldMT,Courier New" font-weight="bold" font-size="14.0" fill="#4E7927" transform="matrix(1.00, -0.02, -0.02, -1.00, 790.4, 34.2)">F</text><text xml:space="preserve" font-family="CourierNewPS-BoldMT,Courier New" font-weight="bold" font-size="14.0" fill="#4E7927" transform="matrix(1.00, -0.02, -0.02, -1.00, 798.8, 34.1)">,</text><text xml:space="preserve" font-family="CourierNewPS-BoldMT,Courier New" font-weight="bold" font-size="14.0" fill="#4E7927" transform="matrix(1.00, -0.02, -0.02, -1.00, 807.2, 33.9)"> </text><text xml:space="preserve" font-family="CourierNewPS-BoldMT,Courier New" font-weight="bold" font-size="14.0" fill="#4E7927" transform="matrix(1.00, -0.02, -0.02, -1.00, 815.8, 33.7)">0</text><text xml:space="preserve" font-family="CourierNewPS-BoldMT,Courier New" font-weight="bold" font-size="14.0" fill="#4E7927" transform="matrix(1.00, -0.02, -0.02, -1.00, 824.2, 33.5)">x</text><text xml:space="preserve" font-family="CourierNewPS-BoldMT,Courier New" font-weight="bold" font-size="14.0" fill="#4E7927" transform="matrix(1.00, -0.02, -0.02, -1.00, 832.6, 33.3)">7</text><text xml:space="preserve" font-family="CourierNewPS-BoldMT,Courier New" font-weight="bold" font-size="14.0" fill="#4E7927" transform="matrix(1.00, -0.02, -0.02, -1.00, 841.1, 33.1)">F</text><text xml:space="preserve" font-family="CourierNewPS-BoldMT,Courier New" font-weight="bold" font-size="14.0" fill="#4E7927" transform="matrix(1.00, -0.02, -0.02, -1.00, 849.5, 32.9)">,</text><text xml:space="preserve" font-family="CourierNewPS-BoldMT,Courier New" font-weight="bold" font-size="14.0" fill="#4E7927" transform="matrix(1.00, -0.02, -0.02, -1.00, 857.9, 32.7)"> </text><text xml:space="preserve" font-family="CourierNewPS-BoldMT,Courier New" font-weight="bold" font-size="14.0" fill="#4E7927" transform="matrix(1.00, -0.02, -0.02, -1.00, 866.5, 32.5)">0</text><text xml:space="preserve" font-family="CourierNewPS-BoldMT,Courier New" font-weight="bold" font-size="14.0" fill="#4E7927" transform="matrix(1.00, -0.02, -0.02, -1.00, 874.9, 32.3)">x</text><text xml:space="preserve" font-family="CourierNewPS-BoldMT,Courier New" font-weight="bold" font-size="14.0" fill="#4E7927" transform="matrix(1.00, -0.02, -0.02, -1.00, 883.3, 32.1)">7</text><text xml:space="preserve" font-family="CourierNewPS-BoldMT,Courier New" font-weight="bold" font-size="14.0" fill="#4E7927" transform="matrix(1.00, -0.02, -0.02, -1.00, 891.7, 31.9)">F</text><text xml:space="preserve" font-family="CourierNewPS-BoldMT,Courier New" font-weight="bold" font-size="14.0" fill="#4E7927" transform="matrix(1.00, -0.02, -0.02, -1.00, 900.1, 31.7)">,</text><text xml:space="preserve" font-family="CourierNewPS-BoldMT,Courier New" font-weight="bold" font-size="14.0" fill="#4E7927" transform="matrix(1.00, -0.02, -0.02, -1.00, 908.5, 31.5)"> </text><text xml:space="preserve" font-family="CourierNewPS-BoldMT,Courier New" font-weight="bold" font-size="14.0" fill="#4E7927" transform="matrix(1.00, -0.02, -0.02, -1.00, 917.1, 31.3)">0</text><text xml:space="preserve" font-family="CourierNewPS-BoldMT,Courier New" font-weight="bold" font-size="14.0" fill="#4E7927" transform="matrix(1.00, -0.02, -0.02, -1.00, 925.5, 31.1)">x</text><text xml:space="preserve" font-family="CourierNewPS-BoldMT,Courier New" font-weight="bold" font-size="14.0" fill="#4E7927" transform="matrix(1.00, -0.02, -0.02, -1.00, 933.9, 30.9)">}</text><text xml:space="preserve" font-family="CourierNewPS-BoldMT,Courier New" font-weight="bold" font-size="14.0" fill="#4E7927" transform="matrix(1.00, -0.02, -0.02, -1.00, 942.3, 30.7)">7</text><text xml:space="preserve" font-family="CourierNewPS-BoldMT,Courier New" font-weight="bold" font-size="14.0" fill="#4E7927" transform="matrix(1.00, -0.02, -0.02, -1.00, 950.7, 30.5)">F</text><text xml:space="preserve" font-family="CourierNewPS-BoldMT,Courier New" font-weight="bold" font-size="14.0" fill="#4E7927" transform="matrix(1.00, -0.02, -0.02, -1.00, 959.1, 30.3)">,</text><text xml:space="preserve" font-family="CourierNewPS-BoldMT,Courier New" font-weight="bold" font-size="14.0" fill="#4E7927" transform="matrix(1.00, -0.02, -0.02, -1.00, 967.5, 30.1)"> </text><text xml:space="preserve" font-family="CourierNewPS-BoldMT,Courier New" font-weight="bold" font-size="14.0" fill="#4E7927" transform="matrix(1.00, -0.02, -0.02, -1.00, 976.1, 29.9)">0</text><text xml:space="preserve" font-family="CourierNewPS-BoldMT,Courier New" font-weight="bold" font-size="14.0" fill="#4E7927" transform="matrix(1.00, -0.02, -0.02, -1.00, 984.5, 29.7)">x</text><text xml:space="preserve" font-family="CourierNewPS-BoldMT,Courier New" font-weight="bold" font-size="14.0" fill="#4E7927" transform="matrix(1.00, -0.02, -0.02, -1.00, 992.9, 29.5)">7</text><text xml:space="preserve" font-family="CourierNewPS-BoldMT,Courier New" font-weight="bold" font-size="14.0" fill="#4E7927" transform="matrix(1.00, -0.02, -0.02, -1.00, 1001.3, 29.3)">F</text><text xml:space="preserve" font-family="CourierNewPS-BoldMT,Courier New" font-weight="bold" font-size="14.0" fill="#4E7927" transform="matrix(1.00, -0.02, -0.02, -1.00, 1009.7, 29.1)">,</text><text xml:space="preserve" font-family="CourierNewPS-BoldMT,Courier New" font-weight="bold" font-size="14.0" fill="#4E7927" transform="matrix(1.00, -0.02, -0.02, -1.00, 5.9, 36.5)">0</text><text xml:space="preserve" font-family="CourierNewPS-BoldMT,Courier New" font-weight="bold" font-size="14.0" fill="#4E7927" transform="matrix(1.00, -0.02, -0.02, -1.00, 14.3, 36.3)">x</text><text xml:space="preserve" font-family="CourierNewPS-BoldMT,Courier New" font-weight="bold" font-size="14.0" fill="#4E7927" transform="matrix(1.00, -0.02, -0.02, -1.00, 22.7, 36.1)">7</text><text xml:space="preserve" font-family="CourierNewPS-BoldMT,Courier New" font-weight="bold" font-size="14.0" fill="#4E7927" transform="matrix(1.00, -0.02, -0.02, -1.00, 31.1, 35.9)">F</text><text xml:space="preserve" font-family="CourierNewPS-BoldMT,Courier New" font-weight="bold" font-size="14.0" fill="#4E7927" transform="matrix(1.00, -0.02, -0.02, -1.00, 39.5, 35.8)">,</text><text xml:space="preserve" font-family="CourierNewPS-BoldMT,Courier New" font-weight="bold" font-size="14.0" fill="#4E7927" transform="matrix(1.00, -0.02, -0.02, -1.00, 47.9, 35.6)"> </text><text xml:space="preserve" font-family="CourierNewPS-BoldMT,Courier New" font-weight="bold" font-size="14.0" fill="#4E7927" transform="matrix(1.00, -0.02, -0.02, -1.00, 56.3, 35.4)">0</text><text xml:space="preserve" font-family="CourierNewPS-BoldMT,Courier New" font-weight="bold" font-size="14.0" fill="#4E7927" transform="matrix(1.00, -0.02, -0.02, -1.00, 64.7, 35.2)">x</text><text xml:space="preserve" font-family="CourierNewPS-BoldMT,Courier New" font-weight="bold" font-size="14.0" fill="#4E7927" transform="matrix(1.00, -0.02, -0.02, -1.00, 73.1, 35.0)">F</text><text xml:space="preserve" font-family="CourierNewPS-BoldMT,Courier New" font-weight="bold" font-size="14.0" fill="#4E7927" transform="matrix(1.00, -0.02, -0.02, -1.00, 81.5, 34.8)">F</text><text xml:space="preserve" font-family="CourierNewPS-BoldMT,Courier New" font-weight="bold" font-size="14.0" fill="#4E7927" transform="matrix(1.00, -0.02, -0.02, -1.00, 89.9, 34.6)">,</text><text xml:space="preserve" font-family="CourierNewPS-BoldMT,Courier New" font-weight="bold" font-size="14.0" fill="#4E7927" transform="matrix(1.00, -0.02, -0.02, -1.00, 98.3, 34.4)"> </text><text xml:space="preserve" font-family="CourierNewPS-BoldMT,Courier New" font-weight="bold" font-size="14.0" fill="#4E7927" transform="matrix(1.00, -0.02, -0.02, -1.00, 106.7, 34.2)">0</text><text xml:space="preserve" font-family="CourierNewPS-BoldMT,Courier New" font-weight="bold" font-size="14.0" fill="#4E7927" transform="matrix(1.00, -0.02, -0.02, -1.00, 115.1, 34.0)">x</text><text xml:space="preserve" font-family="CourierNewPS-BoldMT,Courier New" font-weight="bold" font-size="14.0" fill="#4E7927" transform="matrix(1.00, -0.02, -0.02, -1.00, 123.5, 33.8)">F</text><text xml:space="preserve" font-family="CourierNewPS-BoldMT,Courier New" font-weight="bold" font-size="14.0" fill="#4E7927" transform="matrix(1.00, -0.02, -0.02, -1.00, 131.9, 33.6)">F</text></g></g></g></svg>