<?xml version="1.0" encoding="UTF-8" standalone="no"?><svg xmlns="http://www.w3.org/2000/svg" xmlns:xlink="http://www.w3.org/1999/xlink" clip-rule="evenodd" stroke-miterlimit="10" viewBox="0 0 83 88"><desc>SVG generated by Keynote</desc><defs></defs><g transform="matrix(1.00, 0.00, -0.00, -1.00, 0.0, 88.0)"><path d="M 68.7 72.8 C 83.8 56.6 83.8 30.4 68.7 14.2 C 53.7 -2.1 29.3 -2.1 14.3 14.2 C -0.8 30.4 -0.8 56.6 14.3 72.8 C 29.3 89.1 53.7 89.1 68.7 72.8 " fill="#FFFFFF"></path><path d="M 65.7 12.2 C 80.8 28.4 80.8 54.6 65.7 70.8 C 50.7 87.1 26.3 87.1 11.3 70.8 C -3.8 54.6 -3.8 28.4 11.3 12.2 C 26.3 -4.1 50.7 -4.1 65.7 12.2 " fill="none" stroke="#000000" stroke-width="2.00" transform="matrix(1.00, 0.00, 0.00, -1.00, 3.0, 85.0)"></path></g></svg>