<?xml version="1.0" encoding="UTF-8" standalone="no"?><svg xmlns="http://www.w3.org/2000/svg" xmlns:xlink="http://www.w3.org/1999/xlink" clip-rule="evenodd" stroke-miterlimit="10" viewBox="0 0 1024 768"><desc>SVG generated by Keynote</desc><defs></defs><g transform="matrix(1.00, 0.00, -0.00, -1.00, 0.0, 768.0)"><path d="M 0.0 768.0 L 1024.0 768.0 L 1024.0 0.0 L 0.0 0.0 Z M 0.0 768.0 " fill="#FEFFFF"></path><image xlink:href="../../5721A616-07FA-41A5-B824-54266D8D1E5B/assets/3F3AC118243E66B3C677CEF7EE94FC01.png" width="384.00" height="384.00" transform="matrix(1.65, 0.00, -0.00, -1.65, 169.0, 815.0)"></image><text xml:space="preserve" font-family="GillSans,Gill Sans" font-size="144.0" fill="#FFFFFF" transform="matrix(-0.00, -1.00, -1.00, 0.00, 462.4, 544.1)">:</text><text xml:space="preserve" font-family="GillSans,Gill Sans" font-size="144.0" fill="#FFFFFF" transform="matrix(-0.00, -1.00, -1.00, 0.00, 462.3, 512.5)">|</text><text xml:space="preserve" font-family="Vipond-Octic,Vipond Octic" font-size="72.0" fill="#000000" transform="matrix(1.00, 0.00, -0.00, -1.00, 207.1, 133.5)">“</text><text xml:space="preserve" font-family="Vipond-Octic,Vipond Octic" font-size="72.0" fill="#000000" transform="matrix(1.00, 0.00, -0.00, -1.00, 261.1, 133.5)">a</text><text xml:space="preserve" font-family="Vipond-Octic,Vipond Octic" font-size="72.0" fill="#000000" transform="matrix(1.00, 0.00, -0.00, -1.00, 306.1, 133.5)">f</text><text xml:space="preserve" font-family="Vipond-Octic,Vipond Octic" font-size="72.0" fill="#000000" transform="matrix(1.00, 0.00, -0.00, -1.00, 351.1, 133.5)">f</text><text xml:space="preserve" font-family="Vipond-Octic,Vipond Octic" font-size="72.0" fill="#000000" transform="matrix(1.00, 0.00, -0.00, -1.00, 396.1, 133.5)">i</text><text xml:space="preserve" font-family="Vipond-Octic,Vipond Octic" font-size="72.0" fill="#000000" transform="matrix(1.00, 0.00, -0.00, -1.00, 423.1, 133.5)">r</text><text xml:space="preserve" font-family="Vipond-Octic,Vipond Octic" font-size="72.0" fill="#000000" transform="matrix(1.00, 0.00, -0.00, -1.00, 468.1, 133.5)">m</text><text xml:space="preserve" font-family="Vipond-Octic,Vipond Octic" font-size="72.0" fill="#000000" transform="matrix(1.00, 0.00, -0.00, -1.00, 531.1, 133.5)">a</text><text xml:space="preserve" font-family="Vipond-Octic,Vipond Octic" font-size="72.0" fill="#000000" transform="matrix(1.00, 0.00, -0.00, -1.00, 576.1, 133.5)">t</text><text xml:space="preserve" font-family="Vipond-Octic,Vipond Octic" font-size="72.0" fill="#000000" transform="matrix(1.00, 0.00, -0.00, -1.00, 621.1, 133.5)">i</text><text xml:space="preserve" font-family="Vipond-Octic,Vipond Octic" font-size="72.0" fill="#000000" transform="matrix(1.00, 0.00, -0.00, -1.00, 648.1, 133.5)">v</text><text xml:space="preserve" font-family="Vipond-Octic,Vipond Octic" font-size="72.0" fill="#000000" transform="matrix(1.00, 0.00, -0.00, -1.00, 693.1, 133.5)">e</text><text xml:space="preserve" font-family="Vipond-Octic,Vipond Octic" font-size="72.0" fill="#000000" transform="matrix(1.00, 0.00, -0.00, -1.00, 738.1, 133.5)">.</text><text xml:space="preserve" font-family="Vipond-Octic,Vipond Octic" font-size="72.0" fill="#000000" transform="matrix(1.00, 0.00, -0.00, -1.00, 765.1, 133.5)"> </text><text xml:space="preserve" font-family="Vipond-Octic,Vipond Octic" font-size="72.0" fill="#000000" transform="matrix(1.00, 0.00, -0.00, -1.00, 157.6, 70.5)">r</text><text xml:space="preserve" font-family="Vipond-Octic,Vipond Octic" font-size="72.0" fill="#000000" transform="matrix(1.00, 0.00, -0.00, -1.00, 202.6, 70.5)">e</text><text xml:space="preserve" font-family="Vipond-Octic,Vipond Octic" font-size="72.0" fill="#000000" transform="matrix(1.00, 0.00, -0.00, -1.00, 247.6, 70.5)">m</text><text xml:space="preserve" font-family="Vipond-Octic,Vipond Octic" font-size="72.0" fill="#000000" transform="matrix(1.00, 0.00, -0.00, -1.00, 310.6, 70.5)">e</text><text xml:space="preserve" font-family="Vipond-Octic,Vipond Octic" font-size="72.0" fill="#000000" transform="matrix(1.00, 0.00, -0.00, -1.00, 355.6, 70.5)">m</text><text xml:space="preserve" font-family="Vipond-Octic,Vipond Octic" font-size="72.0" fill="#000000" transform="matrix(1.00, 0.00, -0.00, -1.00, 418.6, 70.5)">b</text><text xml:space="preserve" font-family="Vipond-Octic,Vipond Octic" font-size="72.0" fill="#000000" transform="matrix(1.00, 0.00, -0.00, -1.00, 463.6, 70.5)">e</text><text xml:space="preserve" font-family="Vipond-Octic,Vipond Octic" font-size="72.0" fill="#000000" transform="matrix(1.00, 0.00, -0.00, -1.00, 508.6, 70.5)">r</text><text xml:space="preserve" font-family="Vipond-Octic,Vipond Octic" font-size="72.0" fill="#000000" transform="matrix(1.00, 0.00, -0.00, -1.00, 553.6, 70.5)"> </text><text xml:space="preserve" font-family="Vipond-Octic,Vipond Octic" font-size="72.0" fill="#000000" transform="matrix(1.00, 0.00, -0.00, -1.00, 571.6, 70.5)">t</text><text xml:space="preserve" font-family="Vipond-Octic,Vipond Octic" font-size="72.0" fill="#000000" transform="matrix(1.00, 0.00, -0.00, -1.00, 616.6, 70.5)">h</text><text xml:space="preserve" font-family="Vipond-Octic,Vipond Octic" font-size="72.0" fill="#000000" transform="matrix(1.00, 0.00, -0.00, -1.00, 661.6, 70.5)">i</text><text xml:space="preserve" font-family="Vipond-Octic,Vipond Octic" font-size="72.0" fill="#000000" transform="matrix(1.00, 0.00, -0.00, -1.00, 688.6, 70.5)">s</text><text xml:space="preserve" font-family="Vipond-Octic,Vipond Octic" font-size="72.0" fill="#000000" transform="matrix(1.00, 0.00, -0.00, -1.00, 733.6, 70.5)">.</text><text xml:space="preserve" font-family="Vipond-Octic,Vipond Octic" font-size="72.0" fill="#000000" transform="matrix(1.00, 0.00, -0.00, -1.00, 760.6, 70.5)">”</text><path d="M 429.0 488.0 L 560.0 488.0 L 560.0 463.0 L 429.0 463.0 Z M 429.0 488.0 " fill="#FFFFFF"></path><path d="M 0.0 0.0 L 131.0 0.0 L 131.0 25.0 L 0.0 25.0 Z M 0.0 0.0 " fill="none" stroke="#000000" stroke-opacity="0.00" stroke-width="2.00" transform="matrix(1.00, 0.00, 0.00, -1.00, 429.0, 488.0)"></path></g></svg>