<?xml version="1.0" encoding="UTF-8" standalone="no"?><svg xmlns="http://www.w3.org/2000/svg" xmlns:xlink="http://www.w3.org/1999/xlink" clip-rule="evenodd" stroke-miterlimit="10" viewBox="0 0 1024 768"><desc>SVG generated by Keynote</desc><defs></defs><g transform="matrix(1.00, 0.00, -0.00, -1.00, 0.0, 768.0)"><path d="M 0.0 768.0 L 1024.0 768.0 L 1024.0 0.0 L 0.0 0.0 Z M 0.0 768.0 " fill="#FEFFFF"></path><path d="M -10.0 776.0 L 1045.0 776.0 L 1045.0 -22.0 L -10.0 -22.0 Z M -10.0 776.0 " fill="#000000"></path><path d="M 0.0 0.0 L 1055.0 0.0 L 1055.0 798.0 L 0.0 798.0 Z M 0.0 0.0 " fill="none" stroke="#000000" stroke-width="2.00" transform="matrix(1.00, 0.00, 0.00, -1.00, -10.0, 776.0)"></path><g><clipPath id="clip0x608000cb13a0"><path d="M 128.0 665.0 L 331.0 665.0 L 331.0 289.0 L 128.0 289.0 Z M 128.0 665.0 "></path></clipPath><g clip-path="url(#clip0x608000cb13a0)"><g><clipPath id="clip0x608000cb1520"><path d="M 128.0 289.0 L 331.0 289.0 L 331.0 665.0 L 128.0 665.0 Z M 128.0 289.0 "></path></clipPath><g clip-path="url(#clip0x608000cb1520)"><path d="M 0.0 0.0 L 13.2 -19.0 L -0.5 -31.0 L -0.5 -37.0 " fill="none" stroke="#29ABE1" stroke-width="3.00" transform="matrix(3.01, 0.00, 0.00, 2.98, 206.3, 402.3)"></path><path d="M 0.0 0.0 L 10.0 -18.5 L 0.0 -31.0 L 5.0 -37.0 " fill="none" stroke="#29ABE1" stroke-width="3.00" transform="matrix(3.01, 0.00, 0.00, 2.98, 260.3, 402.3)"></path><path d="M 326.5 609.7 C 326.5 594.0 313.7 581.3 297.9 581.3 C 282.1 581.3 269.3 594.0 269.3 609.7 C 269.3 625.4 282.1 638.0 297.9 638.0 C 313.7 638.0 326.5 625.4 326.5 609.7 " fill="#FFFFFF"></path><path d="M 0.0 0.0 C 0.0 -5.2 -4.3 -9.5 -9.5 -9.5 C -14.7 -9.5 -19.0 -5.2 -19.0 0.0 C -19.0 5.2 -14.7 9.5 -9.5 9.5 C -4.3 9.5 0.0 5.2 0.0 0.0 Z M 0.0 0.0 " fill="none" stroke="#29ABE1" stroke-width="3.00" transform="matrix(3.01, 0.00, 0.00, 2.98, 326.5, 609.7)"></path><path d="M 281.4 606.7 C 281.4 591.0 268.6 578.4 252.8 578.4 C 237.0 578.4 224.2 591.0 224.2 606.7 C 224.2 622.4 237.0 635.1 252.8 635.1 C 268.6 635.1 281.4 622.4 281.4 606.7 " fill="#FFFFFF"></path><path d="M 0.0 0.0 C 0.0 -5.2 -4.3 -9.5 -9.5 -9.5 C -14.7 -9.5 -19.0 -5.2 -19.0 0.0 C -19.0 5.2 -14.7 9.5 -9.5 9.5 C -4.3 9.5 0.0 5.2 0.0 0.0 Z M 0.0 0.0 " fill="none" stroke="#29ABE1" stroke-width="3.00" transform="matrix(3.01, 0.00, 0.00, 2.98, 281.4, 606.7)"></path><path d="M 251.3 615.5 C 251.3 609.6 246.5 604.8 240.5 604.8 C 234.6 604.8 229.8 609.6 229.8 615.5 C 229.8 621.4 234.6 626.2 240.5 626.2 C 246.5 626.2 251.3 621.4 251.3 615.5 " fill="#29ABE1"></path><path d="M 302.4 621.5 C 302.4 615.6 297.6 610.8 291.7 610.8 C 285.7 610.8 280.9 615.6 280.9 621.5 C 280.9 627.4 285.7 632.2 291.7 632.2 C 297.6 632.2 302.4 627.4 302.4 621.5 " fill="#29ABE1"></path><path d="M 62.0 38.0 L 2.0 38.0 L 2.0 97.0 L 62.0 97.0 Z M 62.0 38.0 " fill="#FFFFFF" stroke="#666666" stroke-width="4.00" transform="matrix(3.01, 0.00, 0.00, 2.98, 128.0, 289.0)"></path></g></g></g></g><g><clipPath id="clip0x608000cb1be0"><path d="M 128.0 289.0 L 331.0 289.0 L 331.0 665.0 L 128.0 665.0 Z M 128.0 289.0 "></path></clipPath><g clip-path="url(#clip0x608000cb1be0)"><text xml:space="preserve" font-family="MyriadPro-Regular,Myriad Pro" font-size="50.9" fill="#009245" transform="matrix(3.01, 0.00, -0.00, -2.98, 183.9, 441.2)">1</text></g></g><g><clipPath id="clip0x608000cb1e20"><path d="M 128.0 665.0 L 331.0 665.0 L 331.0 289.0 L 128.0 289.0 Z M 128.0 665.0 "></path></clipPath><g clip-path="url(#clip0x608000cb1e20)"><g><clipPath id="clip0x608000cb1fa0"><path d="M 128.0 289.0 L 331.0 289.0 L 331.0 665.0 L 128.0 665.0 Z M 128.0 289.0 "></path></clipPath><g clip-path="url(#clip0x608000cb1fa0)"><path d="M 0.0 0.0 C 0.0 0.0 -7.0 -6.5 -9.0 -5.3 " fill="none" stroke="#29ABE1" stroke-width="2.00" transform="matrix(3.01, 0.00, 0.00, 2.98, 238.8, 654.0)"></path><path d="M 0.0 0.0 C 0.0 0.0 6.7 -6.8 10.0 -5.5 " fill="none" stroke="#29ABE1" stroke-width="2.00" transform="matrix(3.01, 0.00, 0.00, 2.98, 294.9, 662.9)"></path><path d="M 0.0 0.0 C 0.0 0.0 8.2 6.2 9.5 0.0 " fill="none" stroke="#29ABE1" stroke-width="3.00" transform="matrix(3.01, 0.00, 0.00, 2.98, 269.3, 544.8)"></path></g></g></g></g></g></svg>