<?xml version="1.0" encoding="UTF-8" standalone="no"?><svg xmlns="http://www.w3.org/2000/svg" xmlns:xlink="http://www.w3.org/1999/xlink" clip-rule="evenodd" stroke-miterlimit="10" viewBox="0 0 1024 768"><desc>SVG generated by Keynote</desc><defs></defs><g transform="matrix(1.00, 0.00, -0.00, -1.00, 0.0, 768.0)"><path d="M 0.0 768.0 L 1024.0 768.0 L 1024.0 0.0 L 0.0 0.0 Z M 0.0 768.0 " fill="#FEFFFF"></path><path d="M -11.0 786.0 L 1036.0 786.0 L 1036.0 -11.0 L -11.0 -11.0 Z M -11.0 786.0 " fill="#000000"></path><path d="M 0.0 0.0 L 1047.0 0.0 L 1047.0 797.0 L 0.0 797.0 Z M 0.0 0.0 " fill="none" stroke="#000000" stroke-width="2.00" transform="matrix(1.00, 0.00, 0.00, -1.00, -11.0, 786.0)"></path><text xml:space="preserve" font-family="CourierNewPS-BoldMT,Courier New" font-weight="bold" font-size="72.0" fill="#76BA40" transform="matrix(1.00, 0.00, -0.00, -1.00, 44.4, 683.1)">B</text><text xml:space="preserve" font-family="CourierNewPS-BoldMT,Courier New" font-weight="bold" font-size="72.0" fill="#76BA40" transform="matrix(1.00, 0.00, -0.00, -1.00, 87.6, 683.1)">U</text><text xml:space="preserve" font-family="CourierNewPS-BoldMT,Courier New" font-weight="bold" font-size="72.0" fill="#76BA40" transform="matrix(1.00, 0.00, -0.00, -1.00, 130.8, 683.1)">F</text><text xml:space="preserve" font-family="CourierNewPS-BoldMT,Courier New" font-weight="bold" font-size="72.0" fill="#76BA40" transform="matrix(1.00, 0.00, -0.00, -1.00, 174.0, 683.1)">F</text><text xml:space="preserve" font-family="CourierNewPS-BoldMT,Courier New" font-weight="bold" font-size="72.0" fill="#76BA40" transform="matrix(1.00, 0.00, -0.00, -1.00, 217.2, 683.1)">E</text><text xml:space="preserve" font-family="CourierNewPS-BoldMT,Courier New" font-weight="bold" font-size="72.0" fill="#76BA40" transform="matrix(1.00, 0.00, -0.00, -1.00, 260.4, 683.1)">R</text><text xml:space="preserve" font-family="CourierNewPS-BoldMT,Courier New" font-weight="bold" font-size="72.0" fill="#76BA40" transform="matrix(1.00, 0.00, -0.00, -1.00, 303.6, 683.1)">?</text></g></svg>