<?xml version="1.0" encoding="UTF-8" standalone="no"?><svg xmlns="http://www.w3.org/2000/svg" xmlns:xlink="http://www.w3.org/1999/xlink" clip-rule="evenodd" stroke-miterlimit="10" viewBox="0 0 1024 768"><desc>SVG generated by Keynote</desc><defs></defs><g transform="matrix(1.00, 0.00, -0.00, -1.00, 0.0, 768.0)"><path d="M 0.0 768.0 L 1024.0 768.0 L 1024.0 0.0 L 0.0 0.0 Z M 0.0 768.0 " fill="#FEFFFF"></path><path d="M 492.0 486.0 L 881.0 486.0 L 881.0 344.0 L 492.0 344.0 Z M 492.0 486.0 " fill="#000000"></path><path d="M 0.0 0.0 L 389.0 0.0 L 389.0 142.0 L 0.0 142.0 Z M 0.0 0.0 " fill="none" stroke="#000000" stroke-width="2.00" transform="matrix(1.00, 0.00, 0.00, -1.00, 492.0, 486.0)"></path><path d="M 639.7 597.8 C 654.8 581.6 654.8 555.4 639.7 539.2 C 624.7 522.9 600.3 522.9 585.3 539.2 C 570.2 555.4 570.2 581.6 585.3 597.8 C 600.3 614.1 624.7 614.1 639.7 597.8 " fill="#FFFFFF"></path><path d="M 65.7 12.2 C 80.8 28.4 80.8 54.6 65.7 70.8 C 50.7 87.1 26.3 87.1 11.3 70.8 C -3.8 54.6 -3.8 28.4 11.3 12.2 C 26.3 -4.1 50.7 -4.1 65.7 12.2 " fill="none" stroke="#000000" stroke-width="2.00" transform="matrix(1.00, 0.00, 0.00, -1.00, 574.0, 610.0)"></path><path d="M 632.2 585.2 C 645.3 572.1 645.3 550.9 632.2 537.8 C 619.1 524.7 597.9 524.7 584.8 537.8 C 571.7 550.9 571.7 572.1 584.8 585.2 C 597.9 598.3 619.1 598.3 632.2 585.2 " fill="#000000"></path><path d="M 57.2 9.8 C 70.3 22.9 70.3 44.1 57.2 57.2 C 44.1 70.3 22.9 70.3 9.8 57.2 C -3.3 44.1 -3.3 22.9 9.8 9.8 C 22.9 -3.3 44.1 -3.3 57.2 9.8 " fill="none" stroke="#000000" stroke-width="2.00" transform="matrix(1.00, 0.00, 0.00, -1.00, 575.0, 595.0)"></path><path d="M 747.7 597.8 C 762.8 581.6 762.8 555.4 747.7 539.2 C 732.7 522.9 708.3 522.9 693.3 539.2 C 678.2 555.4 678.2 581.6 693.3 597.8 C 708.3 614.1 732.7 614.1 747.7 597.8 " fill="#FFFFFF"></path><path d="M 65.7 12.2 C 80.8 28.4 80.8 54.6 65.7 70.8 C 50.7 87.1 26.3 87.1 11.3 70.8 C -3.8 54.6 -3.8 28.4 11.3 12.2 C 26.3 -4.1 50.7 -4.1 65.7 12.2 " fill="none" stroke="#000000" stroke-width="2.00" transform="matrix(1.00, 0.00, 0.00, -1.00, 682.0, 610.0)"></path><path d="M 740.2 585.2 C 753.3 572.1 753.3 550.9 740.2 537.8 C 727.1 524.7 705.9 524.7 692.8 537.8 C 679.7 550.9 679.7 572.1 692.8 585.2 C 705.9 598.3 727.1 598.3 740.2 585.2 " fill="#000000"></path><path d="M 57.2 9.8 C 70.3 22.9 70.3 44.1 57.2 57.2 C 44.1 70.3 22.9 70.3 9.8 57.2 C -3.3 44.1 -3.3 22.9 9.8 9.8 C 22.9 -3.3 44.1 -3.3 57.2 9.8 " fill="none" stroke="#000000" stroke-width="2.00" transform="matrix(1.00, 0.00, 0.00, -1.00, 683.0, 595.0)"></path><path d="M 0.0 0.0 L 50.0 31.2 " fill="none" stroke="#000000" stroke-width="6.00" transform="matrix(1.00, 0.00, 0.00, -1.00, 610.0, 618.0)"></path><path d="M 39.2 0.0 L 0.0 38.5 " fill="none" stroke="#000000" stroke-width="6.00" transform="matrix(1.00, 0.00, 0.00, -1.00, 679.0, 622.3)"></path><path d="M 502.0 487.0 L 552.0 487.0 L 527.0 435.0 Z M 502.0 487.0 " fill="#FFFFFF"></path><path d="M 0.0 0.0 L 50.0 0.0 L 25.0 52.0 Z M 0.0 0.0 " fill="none" stroke="#000000" stroke-width="2.00" transform="matrix(1.00, 0.00, 0.00, -1.00, 502.0, 487.0)"></path><path d="M 567.0 485.0 L 617.0 485.0 L 592.0 420.0 Z M 567.0 485.0 " fill="#FFFFFF"></path><path d="M 0.0 0.0 L 50.0 0.0 L 25.0 65.0 Z M 0.0 0.0 " fill="none" stroke="#000000" stroke-width="2.00" transform="matrix(1.00, 0.00, 0.00, -1.00, 567.0, 485.0)"></path><path d="M -926.4 502.4 L 224.9 475.6 L 224.0 435.6 L -927.3 462.4 Z M -926.4 502.4 " fill="#FEFB40"></path><g><clipPath id="clip0x618000ab6b00"><path d="M -926.4 502.4 L 224.9 475.6 L 224.0 435.6 L -927.3 462.4 Z M -926.4 502.4 "></path></clipPath><g clip-path="url(#clip0x618000ab6b00)"><text xml:space="preserve" font-family="CourierNewPS-BoldMT,Courier New" font-weight="bold" font-size="14.0" fill="#4E7927" transform="matrix(1.00, -0.02, -0.02, -1.00, -922.7, 486.5)">[</text><text xml:space="preserve" font-family="CourierNewPS-BoldMT,Courier New" font-weight="bold" font-size="14.0" fill="#4E7927" transform="matrix(1.00, -0.02, -0.02, -1.00, -914.3, 486.3)">0</text><text xml:space="preserve" font-family="CourierNewPS-BoldMT,Courier New" font-weight="bold" font-size="14.0" fill="#4E7927" transform="matrix(1.00, -0.02, -0.02, -1.00, -905.9, 486.1)">x</text><text xml:space="preserve" font-family="CourierNewPS-BoldMT,Courier New" font-weight="bold" font-size="14.0" fill="#4E7927" transform="matrix(1.00, -0.02, -0.02, -1.00, -897.5, 485.9)">F</text><text xml:space="preserve" font-family="CourierNewPS-BoldMT,Courier New" font-weight="bold" font-size="14.0" fill="#4E7927" transform="matrix(1.00, -0.02, -0.02, -1.00, -889.1, 485.7)">F</text><text xml:space="preserve" font-family="CourierNewPS-BoldMT,Courier New" font-weight="bold" font-size="14.0" fill="#4E7927" transform="matrix(1.00, -0.02, -0.02, -1.00, -880.7, 485.6)">,</text><text xml:space="preserve" font-family="CourierNewPS-BoldMT,Courier New" font-weight="bold" font-size="14.0" fill="#4E7927" transform="matrix(1.00, -0.02, -0.02, -1.00, -872.3, 485.4)"> </text><text xml:space="preserve" font-family="CourierNewPS-BoldMT,Courier New" font-weight="bold" font-size="14.0" fill="#4E7927" transform="matrix(1.00, -0.02, -0.02, -1.00, -863.7, 485.2)">0</text><text xml:space="preserve" font-family="CourierNewPS-BoldMT,Courier New" font-weight="bold" font-size="14.0" fill="#4E7927" transform="matrix(1.00, -0.02, -0.02, -1.00, -855.3, 485.0)">x</text><text xml:space="preserve" font-family="CourierNewPS-BoldMT,Courier New" font-weight="bold" font-size="14.0" fill="#4E7927" transform="matrix(1.00, -0.02, -0.02, -1.00, -846.9, 484.8)">F</text><text xml:space="preserve" font-family="CourierNewPS-BoldMT,Courier New" font-weight="bold" font-size="14.0" fill="#4E7927" transform="matrix(1.00, -0.02, -0.02, -1.00, -838.5, 484.6)">F</text><text xml:space="preserve" font-family="CourierNewPS-BoldMT,Courier New" font-weight="bold" font-size="14.0" fill="#4E7927" transform="matrix(1.00, -0.02, -0.02, -1.00, -830.1, 484.4)">,</text><text xml:space="preserve" font-family="CourierNewPS-BoldMT,Courier New" font-weight="bold" font-size="14.0" fill="#4E7927" transform="matrix(1.00, -0.02, -0.02, -1.00, -821.7, 484.2)"> </text><text xml:space="preserve" font-family="CourierNewPS-BoldMT,Courier New" font-weight="bold" font-size="14.0" fill="#4E7927" transform="matrix(1.00, -0.02, -0.02, -1.00, -813.1, 484.0)">0</text><text xml:space="preserve" font-family="CourierNewPS-BoldMT,Courier New" font-weight="bold" font-size="14.0" fill="#4E7927" transform="matrix(1.00, -0.02, -0.02, -1.00, -804.7, 483.8)">x</text><text xml:space="preserve" font-family="CourierNewPS-BoldMT,Courier New" font-weight="bold" font-size="14.0" fill="#4E7927" transform="matrix(1.00, -0.02, -0.02, -1.00, -796.3, 483.6)">F</text><text xml:space="preserve" font-family="CourierNewPS-BoldMT,Courier New" font-weight="bold" font-size="14.0" fill="#4E7927" transform="matrix(1.00, -0.02, -0.02, -1.00, -787.9, 483.4)">F</text><text xml:space="preserve" font-family="CourierNewPS-BoldMT,Courier New" font-weight="bold" font-size="14.0" fill="#4E7927" transform="matrix(1.00, -0.02, -0.02, -1.00, -779.5, 483.2)">,</text><text xml:space="preserve" font-family="CourierNewPS-BoldMT,Courier New" font-weight="bold" font-size="14.0" fill="#4E7927" transform="matrix(1.00, -0.02, -0.02, -1.00, -771.1, 483.0)"> </text><text xml:space="preserve" font-family="CourierNewPS-BoldMT,Courier New" font-weight="bold" font-size="14.0" fill="#4E7927" transform="matrix(1.00, -0.02, -0.02, -1.00, -762.5, 482.8)">0</text><text xml:space="preserve" font-family="CourierNewPS-BoldMT,Courier New" font-weight="bold" font-size="14.0" fill="#4E7927" transform="matrix(1.00, -0.02, -0.02, -1.00, -754.1, 482.6)">x</text><text xml:space="preserve" font-family="CourierNewPS-BoldMT,Courier New" font-weight="bold" font-size="14.0" fill="#4E7927" transform="matrix(1.00, -0.02, -0.02, -1.00, -745.7, 482.4)">7</text><text xml:space="preserve" font-family="CourierNewPS-BoldMT,Courier New" font-weight="bold" font-size="14.0" fill="#4E7927" transform="matrix(1.00, -0.02, -0.02, -1.00, -737.3, 482.2)">F</text><text xml:space="preserve" font-family="CourierNewPS-BoldMT,Courier New" font-weight="bold" font-size="14.0" fill="#4E7927" transform="matrix(1.00, -0.02, -0.02, -1.00, -728.9, 482.0)">,</text><text xml:space="preserve" font-family="CourierNewPS-BoldMT,Courier New" font-weight="bold" font-size="14.0" fill="#4E7927" transform="matrix(1.00, -0.02, -0.02, -1.00, -720.5, 481.8)"> </text><text xml:space="preserve" font-family="CourierNewPS-BoldMT,Courier New" font-weight="bold" font-size="14.0" fill="#4E7927" transform="matrix(1.00, -0.02, -0.02, -1.00, -711.9, 481.6)">0</text><text xml:space="preserve" font-family="CourierNewPS-BoldMT,Courier New" font-weight="bold" font-size="14.0" fill="#4E7927" transform="matrix(1.00, -0.02, -0.02, -1.00, -703.5, 481.4)">x</text><text xml:space="preserve" font-family="CourierNewPS-BoldMT,Courier New" font-weight="bold" font-size="14.0" fill="#4E7927" transform="matrix(1.00, -0.02, -0.02, -1.00, -695.1, 481.2)">7</text><text xml:space="preserve" font-family="CourierNewPS-BoldMT,Courier New" font-weight="bold" font-size="14.0" fill="#4E7927" transform="matrix(1.00, -0.02, -0.02, -1.00, -686.7, 481.0)">F</text><text xml:space="preserve" font-family="CourierNewPS-BoldMT,Courier New" font-weight="bold" font-size="14.0" fill="#4E7927" transform="matrix(1.00, -0.02, -0.02, -1.00, -678.3, 480.8)">,</text><text xml:space="preserve" font-family="CourierNewPS-BoldMT,Courier New" font-weight="bold" font-size="14.0" fill="#4E7927" transform="matrix(1.00, -0.02, -0.02, -1.00, -669.9, 480.6)"> </text><text xml:space="preserve" font-family="CourierNewPS-BoldMT,Courier New" font-weight="bold" font-size="14.0" fill="#4E7927" transform="matrix(1.00, -0.02, -0.02, -1.00, -661.3, 480.4)">0</text><text xml:space="preserve" font-family="CourierNewPS-BoldMT,Courier New" font-weight="bold" font-size="14.0" fill="#4E7927" transform="matrix(1.00, -0.02, -0.02, -1.00, -652.9, 480.2)">x</text><text xml:space="preserve" font-family="CourierNewPS-BoldMT,Courier New" font-weight="bold" font-size="14.0" fill="#4E7927" transform="matrix(1.00, -0.02, -0.02, -1.00, -644.5, 480.0)">F</text><text xml:space="preserve" font-family="CourierNewPS-BoldMT,Courier New" font-weight="bold" font-size="14.0" fill="#4E7927" transform="matrix(1.00, -0.02, -0.02, -1.00, -636.1, 479.8)">F</text><text xml:space="preserve" font-family="CourierNewPS-BoldMT,Courier New" font-weight="bold" font-size="14.0" fill="#4E7927" transform="matrix(1.00, -0.02, -0.02, -1.00, -627.7, 479.7)">,</text><text xml:space="preserve" font-family="CourierNewPS-BoldMT,Courier New" font-weight="bold" font-size="14.0" fill="#4E7927" transform="matrix(1.00, -0.02, -0.02, -1.00, -619.3, 479.5)"> </text><text xml:space="preserve" font-family="CourierNewPS-BoldMT,Courier New" font-weight="bold" font-size="14.0" fill="#4E7927" transform="matrix(1.00, -0.02, -0.02, -1.00, -610.7, 479.3)">0</text><text xml:space="preserve" font-family="CourierNewPS-BoldMT,Courier New" font-weight="bold" font-size="14.0" fill="#4E7927" transform="matrix(1.00, -0.02, -0.02, -1.00, -602.3, 479.1)">x</text><text xml:space="preserve" font-family="CourierNewPS-BoldMT,Courier New" font-weight="bold" font-size="14.0" fill="#4E7927" transform="matrix(1.00, -0.02, -0.02, -1.00, -593.9, 478.9)">F</text><text xml:space="preserve" font-family="CourierNewPS-BoldMT,Courier New" font-weight="bold" font-size="14.0" fill="#4E7927" transform="matrix(1.00, -0.02, -0.02, -1.00, -585.5, 478.7)">F</text><text xml:space="preserve" font-family="CourierNewPS-BoldMT,Courier New" font-weight="bold" font-size="14.0" fill="#4E7927" transform="matrix(1.00, -0.02, -0.02, -1.00, -577.1, 478.5)">,</text><text xml:space="preserve" font-family="CourierNewPS-BoldMT,Courier New" font-weight="bold" font-size="14.0" fill="#4E7927" transform="matrix(1.00, -0.02, -0.02, -1.00, -568.7, 478.3)"> </text><text xml:space="preserve" font-family="CourierNewPS-BoldMT,Courier New" font-weight="bold" font-size="14.0" fill="#4E7927" transform="matrix(1.00, -0.02, -0.02, -1.00, -560.1, 478.1)">0</text><text xml:space="preserve" font-family="CourierNewPS-BoldMT,Courier New" font-weight="bold" font-size="14.0" fill="#4E7927" transform="matrix(1.00, -0.02, -0.02, -1.00, -551.7, 477.9)">x</text><text xml:space="preserve" font-family="CourierNewPS-BoldMT,Courier New" font-weight="bold" font-size="14.0" fill="#4E7927" transform="matrix(1.00, -0.02, -0.02, -1.00, -543.3, 477.7)">7</text><text xml:space="preserve" font-family="CourierNewPS-BoldMT,Courier New" font-weight="bold" font-size="14.0" fill="#4E7927" transform="matrix(1.00, -0.02, -0.02, -1.00, -534.9, 477.5)">F</text><text xml:space="preserve" font-family="CourierNewPS-BoldMT,Courier New" font-weight="bold" font-size="14.0" fill="#4E7927" transform="matrix(1.00, -0.02, -0.02, -1.00, -526.5, 477.3)">,</text><text xml:space="preserve" font-family="CourierNewPS-BoldMT,Courier New" font-weight="bold" font-size="14.0" fill="#4E7927" transform="matrix(1.00, -0.02, -0.02, -1.00, -518.1, 477.1)"> </text><text xml:space="preserve" font-family="CourierNewPS-BoldMT,Courier New" font-weight="bold" font-size="14.0" fill="#4E7927" transform="matrix(1.00, -0.02, -0.02, -1.00, -509.4, 476.9)">0</text><text xml:space="preserve" font-family="CourierNewPS-BoldMT,Courier New" font-weight="bold" font-size="14.0" fill="#4E7927" transform="matrix(1.00, -0.02, -0.02, -1.00, -501.0, 476.7)">x</text><text xml:space="preserve" font-family="CourierNewPS-BoldMT,Courier New" font-weight="bold" font-size="14.0" fill="#4E7927" transform="matrix(1.00, -0.02, -0.02, -1.00, -492.6, 476.5)">7</text><text xml:space="preserve" font-family="CourierNewPS-BoldMT,Courier New" font-weight="bold" font-size="14.0" fill="#4E7927" transform="matrix(1.00, -0.02, -0.02, -1.00, -484.2, 476.3)">F</text><text xml:space="preserve" font-family="CourierNewPS-BoldMT,Courier New" font-weight="bold" font-size="14.0" fill="#4E7927" transform="matrix(1.00, -0.02, -0.02, -1.00, -475.8, 476.1)">,</text><text xml:space="preserve" font-family="CourierNewPS-BoldMT,Courier New" font-weight="bold" font-size="14.0" fill="#4E7927" transform="matrix(1.00, -0.02, -0.02, -1.00, -467.4, 475.9)"> </text><text xml:space="preserve" font-family="CourierNewPS-BoldMT,Courier New" font-weight="bold" font-size="14.0" fill="#4E7927" transform="matrix(1.00, -0.02, -0.02, -1.00, -458.8, 475.7)">0</text><text xml:space="preserve" font-family="CourierNewPS-BoldMT,Courier New" font-weight="bold" font-size="14.0" fill="#4E7927" transform="matrix(1.00, -0.02, -0.02, -1.00, -450.4, 475.5)">x</text><text xml:space="preserve" font-family="CourierNewPS-BoldMT,Courier New" font-weight="bold" font-size="14.0" fill="#4E7927" transform="matrix(1.00, -0.02, -0.02, -1.00, -442.0, 475.3)">7</text><text xml:space="preserve" font-family="CourierNewPS-BoldMT,Courier New" font-weight="bold" font-size="14.0" fill="#4E7927" transform="matrix(1.00, -0.02, -0.02, -1.00, -433.6, 475.1)">F</text><text xml:space="preserve" font-family="CourierNewPS-BoldMT,Courier New" font-weight="bold" font-size="14.0" fill="#4E7927" transform="matrix(1.00, -0.02, -0.02, -1.00, -425.2, 474.9)">,</text><text xml:space="preserve" font-family="CourierNewPS-BoldMT,Courier New" font-weight="bold" font-size="14.0" fill="#4E7927" transform="matrix(1.00, -0.02, -0.02, -1.00, -416.8, 474.7)">0</text><text xml:space="preserve" font-family="CourierNewPS-BoldMT,Courier New" font-weight="bold" font-size="14.0" fill="#4E7927" transform="matrix(1.00, -0.02, -0.02, -1.00, -408.4, 474.5)">x</text><text xml:space="preserve" font-family="CourierNewPS-BoldMT,Courier New" font-weight="bold" font-size="14.0" fill="#4E7927" transform="matrix(1.00, -0.02, -0.02, -1.00, -400.0, 474.3)">F</text><text xml:space="preserve" font-family="CourierNewPS-BoldMT,Courier New" font-weight="bold" font-size="14.0" fill="#4E7927" transform="matrix(1.00, -0.02, -0.02, -1.00, -391.6, 474.1)">F</text><text xml:space="preserve" font-family="CourierNewPS-BoldMT,Courier New" font-weight="bold" font-size="14.0" fill="#4E7927" transform="matrix(1.00, -0.02, -0.02, -1.00, -383.2, 474.0)">,</text><text xml:space="preserve" font-family="CourierNewPS-BoldMT,Courier New" font-weight="bold" font-size="14.0" fill="#4E7927" transform="matrix(1.00, -0.02, -0.02, -1.00, -374.8, 473.8)"> </text><text xml:space="preserve" font-family="CourierNewPS-BoldMT,Courier New" font-weight="bold" font-size="14.0" fill="#4E7927" transform="matrix(1.00, -0.02, -0.02, -1.00, -366.2, 473.6)">0</text><text xml:space="preserve" font-family="CourierNewPS-BoldMT,Courier New" font-weight="bold" font-size="14.0" fill="#4E7927" transform="matrix(1.00, -0.02, -0.02, -1.00, -357.8, 473.4)">x</text><text xml:space="preserve" font-family="CourierNewPS-BoldMT,Courier New" font-weight="bold" font-size="14.0" fill="#4E7927" transform="matrix(1.00, -0.02, -0.02, -1.00, -349.4, 473.2)">F</text><text xml:space="preserve" font-family="CourierNewPS-BoldMT,Courier New" font-weight="bold" font-size="14.0" fill="#4E7927" transform="matrix(1.00, -0.02, -0.02, -1.00, -341.0, 473.0)">F</text><text xml:space="preserve" font-family="CourierNewPS-BoldMT,Courier New" font-weight="bold" font-size="14.0" fill="#4E7927" transform="matrix(1.00, -0.02, -0.02, -1.00, -332.6, 472.8)">,</text><text xml:space="preserve" font-family="CourierNewPS-BoldMT,Courier New" font-weight="bold" font-size="14.0" fill="#4E7927" transform="matrix(1.00, -0.02, -0.02, -1.00, -324.2, 472.6)"> </text><text xml:space="preserve" font-family="CourierNewPS-BoldMT,Courier New" font-weight="bold" font-size="14.0" fill="#4E7927" transform="matrix(1.00, -0.02, -0.02, -1.00, -315.6, 472.4)">0</text><text xml:space="preserve" font-family="CourierNewPS-BoldMT,Courier New" font-weight="bold" font-size="14.0" fill="#4E7927" transform="matrix(1.00, -0.02, -0.02, -1.00, -307.2, 472.2)">x</text><text xml:space="preserve" font-family="CourierNewPS-BoldMT,Courier New" font-weight="bold" font-size="14.0" fill="#4E7927" transform="matrix(1.00, -0.02, -0.02, -1.00, -298.8, 472.0)">F</text><text xml:space="preserve" font-family="CourierNewPS-BoldMT,Courier New" font-weight="bold" font-size="14.0" fill="#4E7927" transform="matrix(1.00, -0.02, -0.02, -1.00, -290.4, 471.8)">F</text><text xml:space="preserve" font-family="CourierNewPS-BoldMT,Courier New" font-weight="bold" font-size="14.0" fill="#4E7927" transform="matrix(1.00, -0.02, -0.02, -1.00, -282.0, 471.6)">,</text><text xml:space="preserve" font-family="CourierNewPS-BoldMT,Courier New" font-weight="bold" font-size="14.0" fill="#4E7927" transform="matrix(1.00, -0.02, -0.02, -1.00, -273.6, 471.4)"> </text><text xml:space="preserve" font-family="CourierNewPS-BoldMT,Courier New" font-weight="bold" font-size="14.0" fill="#4E7927" transform="matrix(1.00, -0.02, -0.02, -1.00, -265.0, 471.2)">0</text><text xml:space="preserve" font-family="CourierNewPS-BoldMT,Courier New" font-weight="bold" font-size="14.0" fill="#4E7927" transform="matrix(1.00, -0.02, -0.02, -1.00, -256.6, 471.0)">x</text><text xml:space="preserve" font-family="CourierNewPS-BoldMT,Courier New" font-weight="bold" font-size="14.0" fill="#4E7927" transform="matrix(1.00, -0.02, -0.02, -1.00, -248.2, 470.8)">F</text><text xml:space="preserve" font-family="CourierNewPS-BoldMT,Courier New" font-weight="bold" font-size="14.0" fill="#4E7927" transform="matrix(1.00, -0.02, -0.02, -1.00, -239.8, 470.6)">F</text><text xml:space="preserve" font-family="CourierNewPS-BoldMT,Courier New" font-weight="bold" font-size="14.0" fill="#4E7927" transform="matrix(1.00, -0.02, -0.02, -1.00, -231.4, 470.4)">,</text><text xml:space="preserve" font-family="CourierNewPS-BoldMT,Courier New" font-weight="bold" font-size="14.0" fill="#4E7927" transform="matrix(1.00, -0.02, -0.02, -1.00, -223.0, 470.2)"> </text><text xml:space="preserve" font-family="CourierNewPS-BoldMT,Courier New" font-weight="bold" font-size="14.0" fill="#4E7927" transform="matrix(1.00, -0.02, -0.02, -1.00, -214.4, 470.0)">0</text><text xml:space="preserve" font-family="CourierNewPS-BoldMT,Courier New" font-weight="bold" font-size="14.0" fill="#4E7927" transform="matrix(1.00, -0.02, -0.02, -1.00, -206.0, 469.8)">x</text><text xml:space="preserve" font-family="CourierNewPS-BoldMT,Courier New" font-weight="bold" font-size="14.0" fill="#4E7927" transform="matrix(1.00, -0.02, -0.02, -1.00, -197.6, 469.6)">F</text><text xml:space="preserve" font-family="CourierNewPS-BoldMT,Courier New" font-weight="bold" font-size="14.0" fill="#4E7927" transform="matrix(1.00, -0.02, -0.02, -1.00, -189.2, 469.4)">F</text><text xml:space="preserve" font-family="CourierNewPS-BoldMT,Courier New" font-weight="bold" font-size="14.0" fill="#4E7927" transform="matrix(1.00, -0.02, -0.02, -1.00, -180.8, 469.2)">,</text><text xml:space="preserve" font-family="CourierNewPS-BoldMT,Courier New" font-weight="bold" font-size="14.0" fill="#4E7927" transform="matrix(1.00, -0.02, -0.02, -1.00, -172.4, 469.0)"> </text><text xml:space="preserve" font-family="CourierNewPS-BoldMT,Courier New" font-weight="bold" font-size="14.0" fill="#4E7927" transform="matrix(1.00, -0.02, -0.02, -1.00, -163.8, 468.8)">0</text><text xml:space="preserve" font-family="CourierNewPS-BoldMT,Courier New" font-weight="bold" font-size="14.0" fill="#4E7927" transform="matrix(1.00, -0.02, -0.02, -1.00, -155.4, 468.6)">x</text><text xml:space="preserve" font-family="CourierNewPS-BoldMT,Courier New" font-weight="bold" font-size="14.0" fill="#4E7927" transform="matrix(1.00, -0.02, -0.02, -1.00, -147.0, 468.4)">F</text><text xml:space="preserve" font-family="CourierNewPS-BoldMT,Courier New" font-weight="bold" font-size="14.0" fill="#4E7927" transform="matrix(1.00, -0.02, -0.02, -1.00, -138.6, 468.2)">F</text><text xml:space="preserve" font-family="CourierNewPS-BoldMT,Courier New" font-weight="bold" font-size="14.0" fill="#4E7927" transform="matrix(1.00, -0.02, -0.02, -1.00, -130.2, 468.1)">,</text><text xml:space="preserve" font-family="CourierNewPS-BoldMT,Courier New" font-weight="bold" font-size="14.0" fill="#4E7927" transform="matrix(1.00, -0.02, -0.02, -1.00, -121.8, 467.9)"> </text><text xml:space="preserve" font-family="CourierNewPS-BoldMT,Courier New" font-weight="bold" font-size="14.0" fill="#4E7927" transform="matrix(1.00, -0.02, -0.02, -1.00, -113.2, 467.7)">0</text><text xml:space="preserve" font-family="CourierNewPS-BoldMT,Courier New" font-weight="bold" font-size="14.0" fill="#4E7927" transform="matrix(1.00, -0.02, -0.02, -1.00, -104.8, 467.5)">x</text><text xml:space="preserve" font-family="CourierNewPS-BoldMT,Courier New" font-weight="bold" font-size="14.0" fill="#4E7927" transform="matrix(1.00, -0.02, -0.02, -1.00, -96.4, 467.3)">7</text><text xml:space="preserve" font-family="CourierNewPS-BoldMT,Courier New" font-weight="bold" font-size="14.0" fill="#4E7927" transform="matrix(1.00, -0.02, -0.02, -1.00, -87.9, 467.1)">F</text><text xml:space="preserve" font-family="CourierNewPS-BoldMT,Courier New" font-weight="bold" font-size="14.0" fill="#4E7927" transform="matrix(1.00, -0.02, -0.02, -1.00, -79.5, 466.9)">,</text><text xml:space="preserve" font-family="CourierNewPS-BoldMT,Courier New" font-weight="bold" font-size="14.0" fill="#4E7927" transform="matrix(1.00, -0.02, -0.02, -1.00, -71.1, 466.7)"> </text><text xml:space="preserve" font-family="CourierNewPS-BoldMT,Courier New" font-weight="bold" font-size="14.0" fill="#4E7927" transform="matrix(1.00, -0.02, -0.02, -1.00, -62.5, 466.5)">0</text><text xml:space="preserve" font-family="CourierNewPS-BoldMT,Courier New" font-weight="bold" font-size="14.0" fill="#4E7927" transform="matrix(1.00, -0.02, -0.02, -1.00, -54.1, 466.3)">x</text><text xml:space="preserve" font-family="CourierNewPS-BoldMT,Courier New" font-weight="bold" font-size="14.0" fill="#4E7927" transform="matrix(1.00, -0.02, -0.02, -1.00, -45.7, 466.1)">7</text><text xml:space="preserve" font-family="CourierNewPS-BoldMT,Courier New" font-weight="bold" font-size="14.0" fill="#4E7927" transform="matrix(1.00, -0.02, -0.02, -1.00, -37.3, 465.9)">F</text><text xml:space="preserve" font-family="CourierNewPS-BoldMT,Courier New" font-weight="bold" font-size="14.0" fill="#4E7927" transform="matrix(1.00, -0.02, -0.02, -1.00, -28.9, 465.7)">,</text><text xml:space="preserve" font-family="CourierNewPS-BoldMT,Courier New" font-weight="bold" font-size="14.0" fill="#4E7927" transform="matrix(1.00, -0.02, -0.02, -1.00, -20.5, 465.5)"> </text><text xml:space="preserve" font-family="CourierNewPS-BoldMT,Courier New" font-weight="bold" font-size="14.0" fill="#4E7927" transform="matrix(1.00, -0.02, -0.02, -1.00, -11.9, 465.3)">0</text><text xml:space="preserve" font-family="CourierNewPS-BoldMT,Courier New" font-weight="bold" font-size="14.0" fill="#4E7927" transform="matrix(1.00, -0.02, -0.02, -1.00, -3.5, 465.1)">x</text><text xml:space="preserve" font-family="CourierNewPS-BoldMT,Courier New" font-weight="bold" font-size="14.0" fill="#4E7927" transform="matrix(1.00, -0.02, -0.02, -1.00, 4.9, 464.9)">}</text><text xml:space="preserve" font-family="CourierNewPS-BoldMT,Courier New" font-weight="bold" font-size="14.0" fill="#4E7927" transform="matrix(1.00, -0.02, -0.02, -1.00, 13.3, 464.7)">7</text><text xml:space="preserve" font-family="CourierNewPS-BoldMT,Courier New" font-weight="bold" font-size="14.0" fill="#4E7927" transform="matrix(1.00, -0.02, -0.02, -1.00, 21.7, 464.5)">F</text><text xml:space="preserve" font-family="CourierNewPS-BoldMT,Courier New" font-weight="bold" font-size="14.0" fill="#4E7927" transform="matrix(1.00, -0.02, -0.02, -1.00, 30.1, 464.3)">,</text><text xml:space="preserve" font-family="CourierNewPS-BoldMT,Courier New" font-weight="bold" font-size="14.0" fill="#4E7927" transform="matrix(1.00, -0.02, -0.02, -1.00, 38.5, 464.1)"> </text><text xml:space="preserve" font-family="CourierNewPS-BoldMT,Courier New" font-weight="bold" font-size="14.0" fill="#4E7927" transform="matrix(1.00, -0.02, -0.02, -1.00, 47.1, 463.9)">0</text><text xml:space="preserve" font-family="CourierNewPS-BoldMT,Courier New" font-weight="bold" font-size="14.0" fill="#4E7927" transform="matrix(1.00, -0.02, -0.02, -1.00, 55.5, 463.7)">x</text><text xml:space="preserve" font-family="CourierNewPS-BoldMT,Courier New" font-weight="bold" font-size="14.0" fill="#4E7927" transform="matrix(1.00, -0.02, -0.02, -1.00, 63.9, 463.5)">7</text><text xml:space="preserve" font-family="CourierNewPS-BoldMT,Courier New" font-weight="bold" font-size="14.0" fill="#4E7927" transform="matrix(1.00, -0.02, -0.02, -1.00, 72.3, 463.3)">F</text><text xml:space="preserve" font-family="CourierNewPS-BoldMT,Courier New" font-weight="bold" font-size="14.0" fill="#4E7927" transform="matrix(1.00, -0.02, -0.02, -1.00, 80.7, 463.1)">,</text><text xml:space="preserve" font-family="CourierNewPS-BoldMT,Courier New" font-weight="bold" font-size="14.0" fill="#4E7927" transform="matrix(1.00, -0.02, -0.02, -1.00, -923.1, 470.5)">0</text><text xml:space="preserve" font-family="CourierNewPS-BoldMT,Courier New" font-weight="bold" font-size="14.0" fill="#4E7927" transform="matrix(1.00, -0.02, -0.02, -1.00, -914.7, 470.3)">x</text><text xml:space="preserve" font-family="CourierNewPS-BoldMT,Courier New" font-weight="bold" font-size="14.0" fill="#4E7927" transform="matrix(1.00, -0.02, -0.02, -1.00, -906.3, 470.1)">7</text><text xml:space="preserve" font-family="CourierNewPS-BoldMT,Courier New" font-weight="bold" font-size="14.0" fill="#4E7927" transform="matrix(1.00, -0.02, -0.02, -1.00, -897.9, 469.9)">F</text><text xml:space="preserve" font-family="CourierNewPS-BoldMT,Courier New" font-weight="bold" font-size="14.0" fill="#4E7927" transform="matrix(1.00, -0.02, -0.02, -1.00, -889.5, 469.8)">,</text><text xml:space="preserve" font-family="CourierNewPS-BoldMT,Courier New" font-weight="bold" font-size="14.0" fill="#4E7927" transform="matrix(1.00, -0.02, -0.02, -1.00, -881.1, 469.6)"> </text><text xml:space="preserve" font-family="CourierNewPS-BoldMT,Courier New" font-weight="bold" font-size="14.0" fill="#4E7927" transform="matrix(1.00, -0.02, -0.02, -1.00, -872.7, 469.4)">0</text><text xml:space="preserve" font-family="CourierNewPS-BoldMT,Courier New" font-weight="bold" font-size="14.0" fill="#4E7927" transform="matrix(1.00, -0.02, -0.02, -1.00, -864.3, 469.2)">x</text><text xml:space="preserve" font-family="CourierNewPS-BoldMT,Courier New" font-weight="bold" font-size="14.0" fill="#4E7927" transform="matrix(1.00, -0.02, -0.02, -1.00, -855.9, 469.0)">F</text><text xml:space="preserve" font-family="CourierNewPS-BoldMT,Courier New" font-weight="bold" font-size="14.0" fill="#4E7927" transform="matrix(1.00, -0.02, -0.02, -1.00, -847.5, 468.8)">F</text><text xml:space="preserve" font-family="CourierNewPS-BoldMT,Courier New" font-weight="bold" font-size="14.0" fill="#4E7927" transform="matrix(1.00, -0.02, -0.02, -1.00, -839.1, 468.6)">,</text><text xml:space="preserve" font-family="CourierNewPS-BoldMT,Courier New" font-weight="bold" font-size="14.0" fill="#4E7927" transform="matrix(1.00, -0.02, -0.02, -1.00, -830.7, 468.4)"> </text><text xml:space="preserve" font-family="CourierNewPS-BoldMT,Courier New" font-weight="bold" font-size="14.0" fill="#4E7927" transform="matrix(1.00, -0.02, -0.02, -1.00, -822.3, 468.2)">0</text><text xml:space="preserve" font-family="CourierNewPS-BoldMT,Courier New" font-weight="bold" font-size="14.0" fill="#4E7927" transform="matrix(1.00, -0.02, -0.02, -1.00, -813.9, 468.0)">x</text><text xml:space="preserve" font-family="CourierNewPS-BoldMT,Courier New" font-weight="bold" font-size="14.0" fill="#4E7927" transform="matrix(1.00, -0.02, -0.02, -1.00, -805.5, 467.8)">F</text><text xml:space="preserve" font-family="CourierNewPS-BoldMT,Courier New" font-weight="bold" font-size="14.0" fill="#4E7927" transform="matrix(1.00, -0.02, -0.02, -1.00, -797.1, 467.6)">F</text></g></g><path d="M 675.0 485.0 L 875.0 485.0 L 875.0 343.0 L 675.0 343.0 Z M 675.0 485.0 " fill="#000000"></path><path d="M 0.0 0.0 L 200.0 0.0 L 200.0 142.0 L 0.0 142.0 Z M 0.0 0.0 " fill="none" stroke="#000000" stroke-width="2.00" transform="matrix(1.00, 0.00, 0.00, -1.00, 675.0, 485.0)"></path><path d="M 646.0 486.0 L 696.0 486.0 L 671.0 421.0 Z M 646.0 486.0 " fill="#FFFFFF"></path><path d="M 0.0 0.0 L 50.0 0.0 L 25.0 65.0 Z M 0.0 0.0 " fill="none" stroke="#000000" stroke-width="2.00" transform="matrix(1.00, 0.00, 0.00, -1.00, 646.0, 486.0)"></path><path d="M 725.0 487.0 L 775.0 487.0 L 750.0 422.0 Z M 725.0 487.0 " fill="#FFFFFF"></path><path d="M 0.0 0.0 L 50.0 0.0 L 25.0 65.0 Z M 0.0 0.0 " fill="none" stroke="#000000" stroke-width="2.00" transform="matrix(1.00, 0.00, 0.00, -1.00, 725.0, 487.0)"></path><path d="M 804.0 486.0 L 854.0 486.0 L 829.0 427.0 Z M 804.0 486.0 " fill="#FFFFFF"></path><path d="M 0.0 0.0 L 50.0 0.0 L 25.0 59.0 Z M 0.0 0.0 " fill="none" stroke="#000000" stroke-width="2.00" transform="matrix(1.00, 0.00, 0.00, -1.00, 804.0, 486.0)"></path><path d="M 512.0 344.0 L 562.0 344.0 L 537.0 384.0 Z M 512.0 344.0 " fill="#FFFFFF"></path><path d="M 0.0 40.0 L 50.0 40.0 L 25.0 0.0 Z M 0.0 40.0 " fill="none" stroke="#000000" stroke-width="2.00" transform="matrix(1.00, 0.00, 0.00, -1.00, 512.0, 384.0)"></path><path d="M 577.0 345.0 L 627.0 345.0 L 602.0 396.0 Z M 577.0 345.0 " fill="#FFFFFF"></path><path d="M 0.0 51.0 L 50.0 51.0 L 25.0 0.0 Z M 0.0 51.0 " fill="none" stroke="#000000" stroke-width="2.00" transform="matrix(1.00, 0.00, 0.00, -1.00, 577.0, 396.0)"></path><path d="M 656.0 346.0 L 706.0 346.0 L 681.0 389.0 Z M 656.0 346.0 " fill="#FFFFFF"></path><path d="M 0.0 43.0 L 50.0 43.0 L 25.0 0.0 Z M 0.0 43.0 " fill="none" stroke="#000000" stroke-width="2.00" transform="matrix(1.00, 0.00, 0.00, -1.00, 656.0, 389.0)"></path><path d="M 735.0 347.0 L 785.0 347.0 L 760.0 379.0 Z M 735.0 347.0 " fill="#FFFFFF"></path><path d="M 0.0 32.0 L 50.0 32.0 L 25.0 0.0 Z M 0.0 32.0 " fill="none" stroke="#000000" stroke-width="2.00" transform="matrix(1.00, 0.00, 0.00, -1.00, 735.0, 379.0)"></path><path d="M 814.0 345.0 L 864.0 345.0 L 839.0 385.0 Z M 814.0 345.0 " fill="#FFFFFF"></path><path d="M 0.0 40.0 L 50.0 40.0 L 25.0 0.0 Z M 0.0 40.0 " fill="none" stroke="#000000" stroke-width="2.00" transform="matrix(1.00, 0.00, 0.00, -1.00, 814.0, 385.0)"></path><path d="M -144.0 576.0 L 252.0 576.0 L 252.0 425.0 L -144.0 425.0 Z M -144.0 576.0 " fill="#FFFFFF"></path><path d="M 0.0 0.0 L 396.0 0.0 L 396.0 151.0 L 0.0 151.0 Z M 0.0 0.0 " fill="none" stroke="#000000" stroke-opacity="0.00" stroke-width="2.00" transform="matrix(1.00, 0.00, 0.00, -1.00, -144.0, 576.0)"></path><path d="M 923.0 608.0 L 1078.0 608.0 L 1078.0 169.0 L 923.0 169.0 Z M 923.0 608.0 " fill="#FFFFFF"></path><path d="M 0.0 0.0 L 155.0 0.0 L 155.0 439.0 L 0.0 439.0 Z M 0.0 0.0 " fill="none" stroke="#000000" stroke-opacity="0.00" stroke-width="2.00" transform="matrix(1.00, 0.00, 0.00, -1.00, 923.0, 608.0)"></path><path d="M 1275.0 669.0 L 1811.0 669.0 L 1811.0 372.0 L 1275.0 372.0 Z M 1275.0 669.0 " fill="#F5EB00"></path></g></svg>