<?xml version="1.0" encoding="UTF-8" standalone="no"?><svg xmlns="http://www.w3.org/2000/svg" xmlns:xlink="http://www.w3.org/1999/xlink" clip-rule="evenodd" stroke-miterlimit="10" viewBox="0 0 805 195"><desc>SVG generated by Keynote</desc><defs></defs><g transform="matrix(1.00, 0.00, -0.00, -1.00, 0.0, 195.0)"><g><clipPath id="clip0x618000ab4040"><path d="M 0.5 0.5 L 804.5 0.5 L 804.5 194.5 L 0.5 194.5 Z M 0.5 0.5 "></path></clipPath><g clip-path="url(#clip0x618000ab4040)"><path d="M 4.5 190.5 L 801.5 190.5 L 801.5 3.5 L 4.5 3.5 Z M 4.0 191.0 " fill="#000000"></path><path d="M 0.5 0.5 L 797.5 0.5 L 797.5 187.5 L 0.5 187.5 Z M 0.0 0.0 " fill="none" stroke="#FFFFFF" stroke-width="5.00" transform="matrix(1.00, 0.00, 0.00, -1.00, 4.0, 191.0)"></path></g></g><g><clipPath id="clip0x618000ab43a0"><path d="M 120.8 2.1 L 662.4 2.1 L 662.4 174.9 L 120.8 174.9 Z M 120.8 2.1 "></path></clipPath><g clip-path="url(#clip0x618000ab43a0)"><text xml:space="preserve" font-family="GENOCIDE,GENOCIDE" font-size="96.0" fill="#FFFFFF" transform="matrix(1.00, 0.00, -0.00, -1.00, 150.2, 50.2)">f</text><text xml:space="preserve" font-family="GENOCIDE,GENOCIDE" font-size="96.0" fill="#FFFFFF" transform="matrix(1.00, 0.00, -0.00, -1.00, 253.6, 50.2)">i</text><text xml:space="preserve" font-family="GENOCIDE,GENOCIDE" font-size="96.0" fill="#FFFFFF" transform="matrix(1.00, 0.00, -0.00, -1.00, 314.3, 50.2)">n</text><text xml:space="preserve" font-family="GENOCIDE,GENOCIDE" font-size="96.0" fill="#FFFFFF" transform="matrix(1.00, 0.00, -0.00, -1.00, 422.6, 50.2)">a</text><text xml:space="preserve" font-family="GENOCIDE,GENOCIDE" font-size="96.0" fill="#FFFFFF" transform="matrix(1.00, 0.00, -0.00, -1.00, 531.4, 50.2)">l</text></g></g></g></svg>