<?xml version="1.0" encoding="UTF-8" standalone="no"?><svg xmlns="http://www.w3.org/2000/svg" xmlns:xlink="http://www.w3.org/1999/xlink" clip-rule="evenodd" stroke-miterlimit="10" viewBox="0 0 805 195"><desc>SVG generated by Keynote</desc><defs></defs><g transform="matrix(1.00, 0.00, -0.00, -1.00, 0.0, 195.0)"><g><clipPath id="clip0x6100010a7620"><path d="M 0.5 0.5 L 804.5 0.5 L 804.5 194.5 L 0.5 194.5 Z M 0.5 0.5 "></path></clipPath><g clip-path="url(#clip0x6100010a7620)"><path d="M 4.5 190.5 L 801.5 190.5 L 801.5 3.5 L 4.5 3.5 Z M 4.0 191.0 " fill="#000000"></path><path d="M 0.5 0.5 L 797.5 0.5 L 797.5 187.5 L 0.5 187.5 Z M 0.0 0.0 " fill="none" stroke="#FFFFFF" stroke-width="5.00" transform="matrix(1.00, 0.00, 0.00, -1.00, 4.0, 191.0)"></path></g></g><g><clipPath id="clip0x6100010a7c80"><path d="M 148.5 2.1 L 634.7 2.1 L 634.7 174.9 L 148.5 174.9 Z M 148.5 2.1 "></path></clipPath><g clip-path="url(#clip0x6100010a7c80)"><text xml:space="preserve" font-family="GENOCIDE,GENOCIDE" font-size="96.0" fill="#FFFFFF" transform="matrix(1.00, 0.00, -0.00, -1.00, 177.8, 50.2)">B</text><text xml:space="preserve" font-family="GENOCIDE,GENOCIDE" font-size="96.0" fill="#FFFFFF" transform="matrix(1.00, 0.00, -0.00, -1.00, 286.4, 50.2)">O</text><text xml:space="preserve" font-family="GENOCIDE,GENOCIDE" font-size="96.0" fill="#FFFFFF" transform="matrix(1.00, 0.00, -0.00, -1.00, 395.1, 50.2)">S</text><text xml:space="preserve" font-family="GENOCIDE,GENOCIDE" font-size="96.0" fill="#FFFFFF" transform="matrix(1.00, 0.00, -0.00, -1.00, 500.2, 50.2)">S</text></g></g></g></svg>