<?xml version="1.0" encoding="UTF-8" standalone="no"?><svg xmlns="http://www.w3.org/2000/svg" xmlns:xlink="http://www.w3.org/1999/xlink" clip-rule="evenodd" stroke-miterlimit="10" viewBox="0 0 1024 768"><desc>SVG generated by Keynote</desc><defs></defs><g transform="matrix(1.00, 0.00, -0.00, -1.00, 0.0, 768.0)"><path d="M 0.0 768.0 L 1024.0 768.0 L 1024.0 0.0 L 0.0 0.0 Z M 0.0 768.0 " fill="#FEFFFF"></path><path d="M 1.0 767.0 L 1030.0 767.0 L 1030.0 -17.0 L 1.0 -17.0 Z M 1.0 767.0 " fill="#B1DEFA"></path><path d="M 0.0 0.0 L 1029.0 0.0 L 1029.0 784.0 L 0.0 784.0 Z M 0.0 0.0 " fill="none" stroke="#000000" stroke-opacity="0.00" stroke-width="2.00" transform="matrix(1.00, 0.00, 0.00, -1.00, 1.0, 767.0)"></path><path d="M -17.0 358.0 L 1043.0 358.0 L 1043.0 -34.0 L -17.0 -34.0 Z M -17.0 358.0 " fill="#A7C5FE"></path><path d="M 0.0 0.0 L 1060.0 0.0 L 1060.0 392.0 L 0.0 392.0 Z M 0.0 0.0 " fill="none" stroke="#000000" stroke-opacity="0.00" stroke-width="2.00" transform="matrix(1.00, 0.00, 0.00, -1.00, -17.0, 358.0)"></path><path d="M -7.0 769.0 L 1042.0 769.0 L 1042.0 669.0 L -7.0 669.0 Z M -7.0 769.0 " fill="#CAF0FE"></path><path d="M 0.0 0.0 L 1049.0 0.0 L 1049.0 100.0 L 0.0 100.0 Z M 0.0 0.0 " fill="none" stroke="#000000" stroke-opacity="0.00" stroke-width="2.00" transform="matrix(1.00, 0.00, 0.00, -1.00, -7.0, 769.0)"></path><path d="M -23.0 97.0 L 1026.0 97.0 L 1026.0 -3.0 L -23.0 -3.0 Z M -23.0 97.0 " fill="#74A7FE"></path><path d="M 0.0 0.0 L 1049.0 0.0 L 1049.0 100.0 L 0.0 100.0 Z M 0.0 0.0 " fill="none" stroke="#000000" stroke-opacity="0.00" stroke-width="2.00" transform="matrix(1.00, 0.00, 0.00, -1.00, -23.0, 97.0)"></path><image xlink:href="../../4B6A2AF3-6FDD-47C2-93B5-FFC58880A765/assets/E3C654C182321EC282AE86BA2E0B25F0.jpeg" width="1920.00" height="1200.00" transform="matrix(1.06, 0.00, -0.00, -1.06, -225.0, 893.0)"></image><path d="M -9.0 734.0 L 1040.0 734.0 L 1040.0 546.0 L -9.0 546.0 Z M -9.0 734.0 " fill="#FFFFFF"></path><path d="M 0.0 0.0 L 1049.0 0.0 L 1049.0 188.0 L 0.0 188.0 Z M 0.0 0.0 " fill="none" stroke="#000000" stroke-opacity="0.00" stroke-width="2.00" transform="matrix(1.00, 0.00, 0.00, -1.00, -9.0, 734.0)"></path><text xml:space="preserve" font-family="GillSans,Gill Sans" font-size="78.0" fill="#000000" transform="matrix(1.00, 0.00, -0.00, -1.00, 76.7, 620.0)">w</text><text xml:space="preserve" font-family="GillSans,Gill Sans" font-size="78.0" fill="#000000" transform="matrix(1.00, 0.00, -0.00, -1.00, 132.8, 620.0)">h</text><text xml:space="preserve" font-family="GillSans,Gill Sans" font-size="78.0" fill="#000000" transform="matrix(1.00, 0.00, -0.00, -1.00, 171.8, 620.0)">a</text><text xml:space="preserve" font-family="GillSans,Gill Sans" font-size="78.0" fill="#000000" transform="matrix(1.00, 0.00, -0.00, -1.00, 205.0, 620.0)">t</text><text xml:space="preserve" font-family="GillSans,Gill Sans" font-size="78.0" fill="#000000" transform="matrix(1.00, 0.00, -0.00, -1.00, 231.0, 620.0)"> </text><text xml:space="preserve" font-family="GillSans,Gill Sans" font-size="78.0" fill="#000000" transform="matrix(1.00, 0.00, -0.00, -1.00, 252.7, 620.0)">I</text><text xml:space="preserve" font-family="GillSans,Gill Sans" font-size="78.0" fill="#000000" transform="matrix(1.00, 0.00, -0.00, -1.00, 272.2, 620.0)"> </text><text xml:space="preserve" font-family="GillSans,Gill Sans" font-size="78.0" fill="#000000" transform="matrix(1.00, 0.00, -0.00, -1.00, 293.8, 620.0)">l</text><text xml:space="preserve" font-family="GillSans,Gill Sans" font-size="78.0" fill="#000000" transform="matrix(1.00, 0.00, -0.00, -1.00, 310.9, 620.0)">e</text><text xml:space="preserve" font-family="GillSans,Gill Sans" font-size="78.0" fill="#000000" transform="matrix(1.00, 0.00, -0.00, -1.00, 348.3, 620.0)">a</text><text xml:space="preserve" font-family="GillSans,Gill Sans" font-size="78.0" fill="#000000" transform="matrix(1.00, 0.00, -0.00, -1.00, 381.6, 620.0)">r</text><text xml:space="preserve" font-family="GillSans,Gill Sans" font-size="78.0" fill="#000000" transform="matrix(1.00, 0.00, -0.00, -1.00, 412.5, 620.0)">n</text><text xml:space="preserve" font-family="GillSans,Gill Sans" font-size="78.0" fill="#000000" transform="matrix(1.00, 0.00, -0.00, -1.00, 451.5, 620.0)">e</text><text xml:space="preserve" font-family="GillSans,Gill Sans" font-size="78.0" fill="#000000" transform="matrix(1.00, 0.00, -0.00, -1.00, 488.8, 620.0)">d</text><text xml:space="preserve" font-family="GillSans,Gill Sans" font-size="78.0" fill="#000000" transform="matrix(1.00, 0.00, -0.00, -1.00, 528.6, 620.0)"> </text><text xml:space="preserve" font-family="GillSans,Gill Sans" font-size="78.0" fill="#000000" transform="matrix(1.00, 0.00, -0.00, -1.00, 550.2, 620.0)">t</text><text xml:space="preserve" font-family="GillSans,Gill Sans" font-size="78.0" fill="#000000" transform="matrix(1.00, 0.00, -0.00, -1.00, 576.2, 620.0)">h</text><text xml:space="preserve" font-family="GillSans,Gill Sans" font-size="78.0" fill="#000000" transform="matrix(1.00, 0.00, -0.00, -1.00, 615.2, 620.0)">e</text><text xml:space="preserve" font-family="GillSans,Gill Sans" font-size="78.0" fill="#000000" transform="matrix(1.00, 0.00, -0.00, -1.00, 652.6, 620.0)"> </text><text xml:space="preserve" font-family="GillSans,Gill Sans" font-size="78.0" fill="#000000" transform="matrix(1.00, 0.00, -0.00, -1.00, 674.2, 620.0)">h</text><text xml:space="preserve" font-family="GillSans,Gill Sans" font-size="78.0" fill="#000000" transform="matrix(1.00, 0.00, -0.00, -1.00, 713.2, 620.0)">a</text><text xml:space="preserve" font-family="GillSans,Gill Sans" font-size="78.0" fill="#000000" transform="matrix(1.00, 0.00, -0.00, -1.00, 746.5, 620.0)">r</text><text xml:space="preserve" font-family="GillSans,Gill Sans" font-size="78.0" fill="#000000" transform="matrix(1.00, 0.00, -0.00, -1.00, 776.2, 620.0)">d</text><text xml:space="preserve" font-family="GillSans,Gill Sans" font-size="78.0" fill="#000000" transform="matrix(1.00, 0.00, -0.00, -1.00, 815.9, 620.0)"> </text><text xml:space="preserve" font-family="GillSans,Gill Sans" font-size="78.0" fill="#000000" transform="matrix(1.00, 0.00, -0.00, -1.00, 837.6, 620.0)">w</text><text xml:space="preserve" font-family="GillSans,Gill Sans" font-size="78.0" fill="#000000" transform="matrix(1.00, 0.00, -0.00, -1.00, 893.7, 620.0)">a</text><text xml:space="preserve" font-family="GillSans,Gill Sans" font-size="78.0" fill="#000000" transform="matrix(1.00, 0.00, -0.00, -1.00, 923.9, 620.0)">y</text></g></svg>