<?xml version="1.0" encoding="UTF-8" standalone="no"?><svg xmlns="http://www.w3.org/2000/svg" xmlns:xlink="http://www.w3.org/1999/xlink" clip-rule="evenodd" stroke-miterlimit="10" viewBox="0 0 1024 768"><desc>SVG generated by Keynote</desc><defs></defs><g transform="matrix(1.00, 0.00, -0.00, -1.00, 0.0, 768.0)"><path d="M 0.0 768.0 L 1024.0 768.0 L 1024.0 0.0 L 0.0 0.0 Z M 0.0 768.0 " fill="#FEFFFF"></path><path d="M -11.0 787.0 L 1035.0 787.0 L 1035.0 -11.0 L -11.0 -11.0 Z M -11.0 787.0 " fill="#000000"></path><path d="M 0.0 0.0 L 1046.0 0.0 L 1046.0 798.0 L 0.0 798.0 Z M 0.0 0.0 " fill="none" stroke="#000000" stroke-width="2.00" transform="matrix(1.00, 0.00, 0.00, -1.00, -11.0, 787.0)"></path><text xml:space="preserve" font-family="GillSans,Gill Sans" font-size="42.0" fill="#FFFFFF" transform="matrix(1.00, 0.00, -0.00, -1.00, 276.2, 419.7)">t</text><text xml:space="preserve" font-family="GillSans,Gill Sans" font-size="42.0" fill="#FFFFFF" transform="matrix(1.00, 0.00, -0.00, -1.00, 290.2, 419.7)">h</text><text xml:space="preserve" font-family="GillSans,Gill Sans" font-size="42.0" fill="#FFFFFF" transform="matrix(1.00, 0.00, -0.00, -1.00, 311.2, 419.7)">i</text><text xml:space="preserve" font-family="GillSans,Gill Sans" font-size="42.0" fill="#FFFFFF" transform="matrix(1.00, 0.00, -0.00, -1.00, 320.4, 419.7)">s</text><text xml:space="preserve" font-family="GillSans,Gill Sans" font-size="42.0" fill="#FFFFFF" transform="matrix(1.00, 0.00, -0.00, -1.00, 336.5, 419.7)"> </text><text xml:space="preserve" font-family="GillSans,Gill Sans" font-size="42.0" fill="#FFFFFF" transform="matrix(1.00, 0.00, -0.00, -1.00, 348.2, 419.7)">i</text><text xml:space="preserve" font-family="GillSans,Gill Sans" font-size="42.0" fill="#FFFFFF" transform="matrix(1.00, 0.00, -0.00, -1.00, 357.4, 419.7)">s</text><text xml:space="preserve" font-family="GillSans,Gill Sans" font-size="42.0" fill="#FFFFFF" transform="matrix(1.00, 0.00, -0.00, -1.00, 373.6, 419.7)"> </text><text xml:space="preserve" font-family="GillSans,Gill Sans" font-size="42.0" fill="#FFFFFF" transform="matrix(1.00, 0.00, -0.00, -1.00, 385.2, 419.7)">l</text><text xml:space="preserve" font-family="GillSans,Gill Sans" font-size="42.0" fill="#FFFFFF" transform="matrix(1.00, 0.00, -0.00, -1.00, 394.4, 419.7)">i</text><text xml:space="preserve" font-family="GillSans,Gill Sans" font-size="42.0" fill="#FFFFFF" transform="matrix(1.00, 0.00, -0.00, -1.00, 403.7, 419.7)">t</text><text xml:space="preserve" font-family="GillSans,Gill Sans" font-size="42.0" fill="#FFFFFF" transform="matrix(1.00, 0.00, -0.00, -1.00, 417.6, 419.7)">e</text><text xml:space="preserve" font-family="GillSans,Gill Sans" font-size="42.0" fill="#FFFFFF" transform="matrix(1.00, 0.00, -0.00, -1.00, 437.8, 419.7)">r</text><text xml:space="preserve" font-family="GillSans,Gill Sans" font-size="42.0" fill="#FFFFFF" transform="matrix(1.00, 0.00, -0.00, -1.00, 454.4, 419.7)">a</text><text xml:space="preserve" font-family="GillSans,Gill Sans" font-size="42.0" fill="#FFFFFF" transform="matrix(1.00, 0.00, -0.00, -1.00, 472.3, 419.7)">l</text><text xml:space="preserve" font-family="GillSans,Gill Sans" font-size="42.0" fill="#FFFFFF" transform="matrix(1.00, 0.00, -0.00, -1.00, 481.5, 419.7)">l</text><text xml:space="preserve" font-family="GillSans,Gill Sans" font-size="42.0" fill="#FFFFFF" transform="matrix(1.00, 0.00, -0.00, -1.00, 490.3, 419.7)">y</text><text xml:space="preserve" font-family="GillSans,Gill Sans" font-size="42.0" fill="#FFFFFF" transform="matrix(1.00, 0.00, -0.00, -1.00, 508.7, 419.7)"> </text><text xml:space="preserve" font-family="GillSans,Gill Sans" font-size="42.0" fill="#FFFFFF" transform="matrix(1.00, 0.00, -0.00, -1.00, 520.4, 419.7)">a</text><text xml:space="preserve" font-family="GillSans,Gill Sans" font-size="42.0" fill="#FFFFFF" transform="matrix(1.00, 0.00, -0.00, -1.00, 538.3, 419.7)"> </text><text xml:space="preserve" font-family="GillSans,Gill Sans" font-size="42.0" fill="#FFFFFF" transform="matrix(1.00, 0.00, -0.00, -1.00, 550.0, 419.7)">t</text><text xml:space="preserve" font-family="GillSans,Gill Sans" font-size="42.0" fill="#FFFFFF" transform="matrix(1.00, 0.00, -0.00, -1.00, 564.0, 419.7)">r</text><text xml:space="preserve" font-family="GillSans,Gill Sans" font-size="42.0" fill="#FFFFFF" transform="matrix(1.00, 0.00, -0.00, -1.00, 580.6, 419.7)">u</text><text xml:space="preserve" font-family="GillSans,Gill Sans" font-size="42.0" fill="#FFFFFF" transform="matrix(1.00, 0.00, -0.00, -1.00, 601.6, 419.7)">e</text><text xml:space="preserve" font-family="GillSans,Gill Sans" font-size="42.0" fill="#FFFFFF" transform="matrix(1.00, 0.00, -0.00, -1.00, 621.7, 419.7)"> </text><text xml:space="preserve" font-family="GillSans,Gill Sans" font-size="42.0" fill="#FFFFFF" transform="matrix(1.00, 0.00, -0.00, -1.00, 633.4, 419.7)">s</text><text xml:space="preserve" font-family="GillSans,Gill Sans" font-size="42.0" fill="#FFFFFF" transform="matrix(1.00, 0.00, -0.00, -1.00, 649.5, 419.7)">t</text><text xml:space="preserve" font-family="GillSans,Gill Sans" font-size="42.0" fill="#FFFFFF" transform="matrix(1.00, 0.00, -0.00, -1.00, 663.5, 419.7)">o</text><text xml:space="preserve" font-family="GillSans,Gill Sans" font-size="42.0" fill="#FFFFFF" transform="matrix(1.00, 0.00, -0.00, -1.00, 686.7, 419.7)">r</text><text xml:space="preserve" font-family="GillSans,Gill Sans" font-size="42.0" fill="#FFFFFF" transform="matrix(1.00, 0.00, -0.00, -1.00, 704.6, 419.7)">y</text></g></svg>