<?xml version="1.0" encoding="UTF-8" standalone="no"?><svg xmlns="http://www.w3.org/2000/svg" xmlns:xlink="http://www.w3.org/1999/xlink" clip-rule="evenodd" stroke-miterlimit="10" viewBox="0 0 1024 768"><desc>SVG generated by Keynote</desc><defs></defs><g transform="matrix(1.00, 0.00, -0.00, -1.00, 0.0, 768.0)"><path d="M 0.0 768.0 L 1024.0 768.0 L 1024.0 0.0 L 0.0 0.0 Z M 0.0 768.0 " fill="#FEFFFF"></path><path d="M -23.0 781.0 L 1047.0 781.0 L 1047.0 -32.0 L -23.0 -32.0 Z M -23.0 781.0 " fill="#F5E100"></path><path d="M 0.0 0.0 L 1070.0 0.0 L 1070.0 813.0 L 0.0 813.0 Z M 0.0 0.0 " fill="none" stroke="#000000" stroke-width="2.00" transform="matrix(1.00, 0.00, 0.00, -1.00, -23.0, 781.0)"></path><text xml:space="preserve" font-family="Arial-Black,Arial Black" font-weight="bold" font-size="96.0" fill="#000000" transform="matrix(1.00, 0.00, -0.00, -1.00, 161.6, 383.2)">H</text><text xml:space="preserve" font-family="Arial-Black,Arial Black" font-weight="bold" font-size="96.0" fill="#000000" transform="matrix(1.00, 0.00, -0.00, -1.00, 241.6, 383.2)">A</text><text xml:space="preserve" font-family="Arial-Black,Arial Black" font-weight="bold" font-size="96.0" fill="#000000" transform="matrix(1.00, 0.00, -0.00, -1.00, 316.2, 383.2)">R</text><text xml:space="preserve" font-family="Arial-Black,Arial Black" font-weight="bold" font-size="96.0" fill="#000000" transform="matrix(1.00, 0.00, -0.00, -1.00, 390.9, 383.2)">D</text><text xml:space="preserve" font-family="Arial-Black,Arial Black" font-weight="bold" font-size="96.0" fill="#000000" transform="matrix(1.00, 0.00, -0.00, -1.00, 463.2, 382.7)">W</text><text xml:space="preserve" font-family="Arial-Black,Arial Black" font-weight="bold" font-size="96.0" fill="#000000" transform="matrix(1.00, 0.00, -0.00, -1.00, 559.2, 382.7)">A</text><text xml:space="preserve" font-family="Arial-Black,Arial Black" font-weight="bold" font-size="96.0" fill="#000000" transform="matrix(1.00, 0.00, -0.00, -1.00, 633.8, 382.7)">R</text><text xml:space="preserve" font-family="Arial-Black,Arial Black" font-weight="bold" font-size="96.0" fill="#000000" transform="matrix(1.00, 0.00, -0.00, -1.00, 708.5, 382.7)">E</text></g></svg>