<?xml version="1.0" encoding="UTF-8" standalone="no"?><svg xmlns="http://www.w3.org/2000/svg" xmlns:xlink="http://www.w3.org/1999/xlink" clip-rule="evenodd" stroke-miterlimit="10" viewBox="0 0 1024 768"><desc>SVG generated by Keynote</desc><defs></defs><g transform="matrix(1.00, 0.00, -0.00, -1.00, 0.0, 768.0)"><path d="M 0.0 768.0 L 1024.0 768.0 L 1024.0 0.0 L 0.0 0.0 Z M 0.0 768.0 " fill="#FEFFFF"></path><path d="M 1027.0 -4.0 L -44.0 -4.0 L 1027.0 830.0 Z M 1027.0 -4.0 " fill="#00C6FC"></path><path d="M 0.0 768.0 L 964.0 768.0 L 0.0 6.0 Z M 0.0 768.0 " fill="#FF4013"></path><image xlink:href="../../CFA82BD5-2C02-4F85-8506-3C83E7961AA4/assets/87F5CEB2D06E44A4CD794CB3EC4DDD84.png" width="667.00" height="398.00" transform="matrix(0.73, 0.00, -0.00, -0.73, 11.0, 743.0)"></image><image xlink:href="../../CFA82BD5-2C02-4F85-8506-3C83E7961AA4/assets/BE5FD13EDFCABA4E9373AD186FAB8CCB.png" width="321.00" height="587.00" transform="matrix(0.88, 0.00, -0.00, -0.88, 669.0, 532.0)"></image><image xlink:href="../../7290D937-1AA7-43DD-A4D5-37888B137306/assets/91ACA9A6277DBA5A46FDBFF8F1BD158C.png" width="183.00" height="111.00" transform="matrix(1.00, 0.00, -0.00, -1.00, 404.0, 427.0)"></image><text xml:space="preserve" font-family="Vipond-Octic,Vipond Octic" font-size="144.0" fill="#FFF76B" transform="matrix(1.00, 0.00, -0.00, -1.00, 410.6, 330.5)">V</text><text xml:space="preserve" font-family="Vipond-Octic,Vipond Octic" font-size="144.0" fill="#FFF76B" transform="matrix(1.00, 0.00, -0.00, -1.00, 500.6, 330.5)">S</text></g></svg>