<?xml version="1.0" encoding="UTF-8" standalone="no"?><svg xmlns="http://www.w3.org/2000/svg" xmlns:xlink="http://www.w3.org/1999/xlink" clip-rule="evenodd" stroke-miterlimit="10" viewBox="0 0 1024 768"><desc>SVG generated by Keynote</desc><defs></defs><g transform="matrix(1.00, 0.00, -0.00, -1.00, 0.0, 768.0)"><path d="M 0.0 768.0 L 1024.0 768.0 L 1024.0 0.0 L 0.0 0.0 Z M 0.0 768.0 " fill="#FEFFFF"></path><image xlink:href="../../CFA82BD5-2C02-4F85-8506-3C83E7961AA4/assets/6B0A691EF79C8525958FDAE386BAA6A5.png" width="4096.00" height="1732.00" transform="matrix(1.72, 0.00, -0.00, -1.72, -3727.0, 1150.0)"></image><image xlink:href="../../CFA82BD5-2C02-4F85-8506-3C83E7961AA4/assets/BE5FD13EDFCABA4E9373AD186FAB8CCB.png" width="321.00" height="587.00" transform="matrix(0.23, 0.00, -0.00, -0.23, 520.5, 665.1)"></image><image xlink:href="../../5721A616-07FA-41A5-B824-54266D8D1E5B/assets/3F3AC118243E66B3C677CEF7EE94FC01.png" width="384.00" height="384.00" transform="matrix(0.28, 0.00, -0.00, -0.28, 460.0, 342.0)"></image><g><clipPath id="clip0x6180008a8820"><path d="M 535.2 490.3 L 547.4 566.1 L 595.1 558.4 L 582.9 482.6 Z M 535.2 490.3 "></path></clipPath><g clip-path="url(#clip0x6180008a8820)"><path d="M 540.4 510.0 C 539.3 503.2 543.9 496.9 550.6 495.8 C 555.6 495.0 560.3 497.3 562.9 501.2 L 580.5 486.3 L 570.5 541.4 L 571.5 547.7 C 572.6 554.4 568.0 560.7 561.3 561.8 C 554.5 562.9 548.2 558.3 547.1 551.6 L 540.4 510.0 Z M 540.4 510.0 " fill="#FFFFFF"></path><path d="M 12.3 0.0 C 5.5 -0.0 0.0 5.5 0.0 12.3 C 0.0 17.4 3.0 21.6 7.3 23.6 L -4.6 43.4 L 48.1 24.7 L 54.5 24.7 C 61.3 24.7 66.8 19.2 66.8 12.3 C 66.8 5.5 61.3 0.0 54.5 0.0 L 12.3 0.0 Z M 12.3 0.0 " fill="none" stroke="#000000" stroke-width="2.00" transform="matrix(0.16, 0.99, 0.99, -0.16, 538.4, 497.8)"></path></g></g><g><clipPath id="clip0x6180008a9840"><path d="M 549.1 540.9 L 557.9 540.9 L 557.9 555.0 L 549.1 555.0 Z M 549.1 540.9 "></path></clipPath><g clip-path="url(#clip0x6180008a9840)"><path d="M 555.2 551.5 C 556.1 549.5 556.1 546.4 555.2 544.4 C 554.3 542.4 552.7 542.4 551.8 544.4 C 550.8 546.4 550.8 549.5 551.8 551.5 C 552.7 553.5 554.3 553.5 555.2 551.5 " fill="#2E063D"></path><path d="M 4.1 1.5 C 5.1 3.4 5.1 6.6 4.1 8.6 C 3.2 10.5 1.6 10.5 0.7 8.6 C -0.2 6.6 -0.2 3.4 0.7 1.5 C 1.6 -0.5 3.2 -0.5 4.1 1.5 " fill="none" stroke="#000000" stroke-width="2.00" transform="matrix(1.00, 0.00, 0.00, -1.00, 551.1, 553.0)"></path></g></g><g><clipPath id="clip0x6180008a9a20"><path d="M 557.0 542.1 L 565.6 542.1 L 565.6 555.0 L 557.0 555.0 Z M 557.0 542.1 "></path></clipPath><g clip-path="url(#clip0x6180008a9a20)"><path d="M 562.9 551.7 C 563.8 549.9 563.8 547.1 562.9 545.4 C 562.0 543.6 560.6 543.6 559.7 545.4 C 558.8 547.1 558.8 549.9 559.7 551.7 C 560.6 553.4 562.0 553.4 562.9 551.7 " fill="#2E063D"></path><path d="M 3.9 1.3 C 4.8 3.0 4.8 5.9 3.9 7.6 C 3.0 9.3 1.6 9.3 0.7 7.6 C -0.2 5.9 -0.2 3.0 0.7 1.3 C 1.6 -0.4 3.0 -0.4 3.9 1.3 " fill="none" stroke="#000000" stroke-width="2.00" transform="matrix(1.00, 0.00, 0.00, -1.00, 559.0, 553.0)"></path></g></g><g><clipPath id="clip0x6180008a9e40"><path d="M 551.6 532.5 L 564.7 532.5 L 564.7 541.2 L 551.6 541.2 Z M 551.6 532.5 "></path></clipPath><g clip-path="url(#clip0x6180008a9e40)"><path d="M 0.0 2.9 C 0.0 2.9 2.4 4.9 4.7 4.2 C 7.1 3.5 7.3 2.1 9.0 0.0 " fill="none" stroke="#000000" stroke-width="3.00" transform="matrix(1.00, 0.00, 0.00, -1.00, 553.5, 539.3)"></path></g></g></g></svg>