<?xml version="1.0" encoding="UTF-8" standalone="no"?><svg xmlns="http://www.w3.org/2000/svg" xmlns:xlink="http://www.w3.org/1999/xlink" clip-rule="evenodd" stroke-miterlimit="10" viewBox="0 0 1024 768"><desc>SVG generated by Keynote</desc><defs></defs><g transform="matrix(1.00, 0.00, -0.00, -1.00, 0.0, 768.0)"><path d="M 0.0 768.0 L 1024.0 768.0 L 1024.0 0.0 L 0.0 0.0 Z M 0.0 768.0 " fill="#FEFFFF"></path><image xlink:href="../../F869E6A8-18AB-4610-A8E2-85BE58725259/assets/D85B1E57943D4841CF20BDFEA5524949.png" width="590.00" height="828.00" transform="matrix(1.38, 0.00, -0.00, -1.38, 114.0, 927.0)"></image><path d="M -120.6 343.1 L 1114.3 626.7 L 1142.9 501.9 L -91.9 218.3 Z M -120.6 343.1 " fill="#E22400"></path><path d="M 0.0 0.0 L 1267.0 0.0 L 1267.0 128.0 L 0.0 128.0 Z M 0.0 0.0 " fill="none" stroke="#F5EB00" stroke-width="10.00" transform="matrix(0.97, 0.22, 0.22, -0.97, -120.6, 343.1)"></path><text xml:space="preserve" font-family="GillSans,Gill Sans" font-size="96.0" fill="#000000" transform="matrix(0.97, 0.22, 0.22, -0.97, 121.4, 299.3)">W</text><text xml:space="preserve" font-family="GillSans,Gill Sans" font-size="96.0" fill="#000000" transform="matrix(0.97, 0.22, 0.22, -0.97, 218.9, 321.7)">T</text><text xml:space="preserve" font-family="GillSans,Gill Sans" font-size="96.0" fill="#000000" transform="matrix(0.97, 0.22, 0.22, -0.97, 275.5, 334.6)">F</text><text xml:space="preserve" font-family="GillSans,Gill Sans" font-size="96.0" fill="#000000" transform="matrix(0.97, 0.22, 0.22, -0.97, 345.4, 350.7)">d</text><text xml:space="preserve" font-family="GillSans,Gill Sans" font-size="96.0" fill="#000000" transform="matrix(0.97, 0.22, 0.22, -0.97, 393.0, 361.6)">o</text><text xml:space="preserve" font-family="GillSans,Gill Sans" font-size="96.0" fill="#000000" transform="matrix(0.97, 0.22, 0.22, -0.97, 444.7, 373.5)">e</text><text xml:space="preserve" font-family="GillSans,Gill Sans" font-size="96.0" fill="#000000" transform="matrix(0.97, 0.22, 0.22, -0.97, 489.5, 383.8)">s</text><text xml:space="preserve" font-family="GillSans,Gill Sans" font-size="96.0" fill="#000000" transform="matrix(0.97, 0.22, 0.22, -0.97, 551.5, 398.0)">t</text><text xml:space="preserve" font-family="GillSans,Gill Sans" font-size="96.0" fill="#000000" transform="matrix(0.97, 0.22, 0.22, -0.97, 582.6, 405.2)">h</text><text xml:space="preserve" font-family="GillSans,Gill Sans" font-size="96.0" fill="#000000" transform="matrix(0.97, 0.22, 0.22, -0.97, 629.4, 415.9)">i</text><text xml:space="preserve" font-family="GillSans,Gill Sans" font-size="96.0" fill="#000000" transform="matrix(0.97, 0.22, 0.22, -0.97, 649.9, 420.6)">s</text><text xml:space="preserve" font-family="GillSans,Gill Sans" font-size="96.0" fill="#000000" transform="matrix(0.97, 0.22, 0.22, -0.97, 711.9, 434.9)">m</text><text xml:space="preserve" font-family="GillSans,Gill Sans" font-size="96.0" fill="#000000" transform="matrix(0.97, 0.22, 0.22, -0.97, 784.1, 451.4)">e</text><text xml:space="preserve" font-family="GillSans,Gill Sans" font-size="96.0" fill="#000000" transform="matrix(0.97, 0.22, 0.22, -0.97, 828.9, 461.7)">a</text><text xml:space="preserve" font-family="GillSans,Gill Sans" font-size="96.0" fill="#000000" transform="matrix(0.97, 0.22, 0.22, -0.97, 868.8, 470.9)">n</text></g></svg>