<?xml version="1.0" encoding="UTF-8" standalone="no"?><svg xmlns="http://www.w3.org/2000/svg" xmlns:xlink="http://www.w3.org/1999/xlink" clip-rule="evenodd" stroke-miterlimit="10" viewBox="0 0 1024 768"><desc>SVG generated by Keynote</desc><defs></defs><g transform="matrix(1.00, 0.00, -0.00, -1.00, 0.0, 768.0)"><path d="M 0.0 768.0 L 1024.0 768.0 L 1024.0 0.0 L 0.0 0.0 Z M 0.0 768.0 " fill="#FEFFFF"></path><path d="M 1.0 767.0 L 1030.0 767.0 L 1030.0 -17.0 L 1.0 -17.0 Z M 1.0 767.0 " fill="#B1DEFA"></path><path d="M 0.0 0.0 L 1029.0 0.0 L 1029.0 784.0 L 0.0 784.0 Z M 0.0 0.0 " fill="none" stroke="#000000" stroke-opacity="0.00" stroke-width="2.00" transform="matrix(1.00, 0.00, 0.00, -1.00, 1.0, 767.0)"></path><path d="M -17.0 358.0 L 1043.0 358.0 L 1043.0 -34.0 L -17.0 -34.0 Z M -17.0 358.0 " fill="#A7C5FE"></path><path d="M 0.0 0.0 L 1060.0 0.0 L 1060.0 392.0 L 0.0 392.0 Z M 0.0 0.0 " fill="none" stroke="#000000" stroke-opacity="0.00" stroke-width="2.00" transform="matrix(1.00, 0.00, 0.00, -1.00, -17.0, 358.0)"></path><path d="M -7.0 769.0 L 1042.0 769.0 L 1042.0 669.0 L -7.0 669.0 Z M -7.0 769.0 " fill="#CAF0FE"></path><path d="M 0.0 0.0 L 1049.0 0.0 L 1049.0 100.0 L 0.0 100.0 Z M 0.0 0.0 " fill="none" stroke="#000000" stroke-opacity="0.00" stroke-width="2.00" transform="matrix(1.00, 0.00, 0.00, -1.00, -7.0, 769.0)"></path><path d="M -23.0 97.0 L 1026.0 97.0 L 1026.0 -3.0 L -23.0 -3.0 Z M -23.0 97.0 " fill="#74A7FE"></path><path d="M 0.0 0.0 L 1049.0 0.0 L 1049.0 100.0 L 0.0 100.0 Z M 0.0 0.0 " fill="none" stroke="#000000" stroke-opacity="0.00" stroke-width="2.00" transform="matrix(1.00, 0.00, 0.00, -1.00, -23.0, 97.0)"></path><image xlink:href="../../4B6A2AF3-6FDD-47C2-93B5-FFC58880A765/assets/E3C654C182321EC282AE86BA2E0B25F0.jpeg" width="1920.00" height="1200.00" transform="matrix(1.06, 0.00, -0.00, -1.06, -225.0, 893.0)"></image><path d="M -9.0 786.0 L 1040.0 786.0 L 1040.0 286.0 L -9.0 286.0 Z M -9.0 786.4 " fill="#FFFFFF"></path><path d="M 0.0 0.4 L 1049.0 0.4 L 1049.0 500.4 L 0.0 500.4 Z M 0.0 0.0 " fill="none" stroke="#000000" stroke-opacity="0.00" stroke-width="2.00" transform="matrix(1.00, 0.00, 0.00, -1.00, -9.0, 786.4)"></path><text xml:space="preserve" font-family="GillSans,Gill Sans" font-size="78.0" fill="#000000" transform="matrix(1.00, 0.00, -0.00, -1.00, 342.6, 671.1)">S</text><text xml:space="preserve" font-family="GillSans,Gill Sans" font-size="78.0" fill="#000000" transform="matrix(1.00, 0.00, -0.00, -1.00, 378.3, 671.1)">u</text><text xml:space="preserve" font-family="GillSans,Gill Sans" font-size="78.0" fill="#000000" transform="matrix(1.00, 0.00, -0.00, -1.00, 417.3, 671.1)">z</text><text xml:space="preserve" font-family="GillSans,Gill Sans" font-size="78.0" fill="#000000" transform="matrix(1.00, 0.00, -0.00, -1.00, 449.8, 671.1)"> </text><text xml:space="preserve" font-family="GillSans,Gill Sans" font-size="78.0" fill="#000000" transform="matrix(1.00, 0.00, -0.00, -1.00, 471.5, 671.1)">H</text><text xml:space="preserve" font-family="GillSans,Gill Sans" font-size="78.0" fill="#000000" transform="matrix(1.00, 0.00, -0.00, -1.00, 528.3, 671.1)">i</text><text xml:space="preserve" font-family="GillSans,Gill Sans" font-size="78.0" fill="#000000" transform="matrix(1.00, 0.00, -0.00, -1.00, 545.4, 671.1)">n</text><text xml:space="preserve" font-family="GillSans,Gill Sans" font-size="78.0" fill="#000000" transform="matrix(1.00, 0.00, -0.00, -1.00, 584.4, 671.1)">t</text><text xml:space="preserve" font-family="GillSans,Gill Sans" font-size="78.0" fill="#000000" transform="matrix(1.00, 0.00, -0.00, -1.00, 610.4, 671.1)">o</text><text xml:space="preserve" font-family="GillSans,Gill Sans" font-size="78.0" fill="#000000" transform="matrix(1.00, 0.00, -0.00, -1.00, 653.4, 671.1)">n</text><text xml:space="preserve" font-family="GillSans,Gill Sans" font-size="78.0" fill="#000000" transform="matrix(1.00, 0.00, -0.00, -1.00, 347.8, 563.1)">@</text><text xml:space="preserve" font-family="GillSans,Gill Sans" font-size="78.0" fill="#000000" transform="matrix(1.00, 0.00, -0.00, -1.00, 426.5, 563.1)">n</text><text xml:space="preserve" font-family="GillSans,Gill Sans" font-size="78.0" fill="#000000" transform="matrix(1.00, 0.00, -0.00, -1.00, 465.5, 563.1)">o</text><text xml:space="preserve" font-family="GillSans,Gill Sans" font-size="78.0" fill="#000000" transform="matrix(1.00, 0.00, -0.00, -1.00, 508.5, 563.1)">o</text><text xml:space="preserve" font-family="GillSans,Gill Sans" font-size="78.0" fill="#000000" transform="matrix(1.00, 0.00, -0.00, -1.00, 551.6, 563.1)">p</text><text xml:space="preserve" font-family="GillSans,Gill Sans" font-size="78.0" fill="#000000" transform="matrix(1.00, 0.00, -0.00, -1.00, 590.6, 563.1)">k</text><text xml:space="preserve" font-family="GillSans,Gill Sans" font-size="78.0" fill="#000000" transform="matrix(1.00, 0.00, -0.00, -1.00, 627.9, 563.1)">a</text><text xml:space="preserve" font-family="GillSans,Gill Sans" font-size="78.0" fill="#000000" transform="matrix(1.00, 0.00, -0.00, -1.00, 661.2, 563.1)">t</text><text xml:space="preserve" font-family="GillSans,Gill Sans" font-size="78.0" fill="#000000" transform="matrix(1.00, 0.00, -0.00, -1.00, 435.9, 455.1)">N</text><text xml:space="preserve" font-family="GillSans,Gill Sans" font-size="78.0" fill="#000000" transform="matrix(1.00, 0.00, -0.00, -1.00, 496.8, 455.1)">Y</text><text xml:space="preserve" font-family="GillSans,Gill Sans" font-size="78.0" fill="#000000" transform="matrix(1.00, 0.00, -0.00, -1.00, 543.9, 455.1)">C</text><text xml:space="preserve" font-family="GillSans,Gill Sans" font-size="78.0" fill="#000000" transform="matrix(1.00, 0.00, -0.00, -1.00, 191.7, 347.1)">I</text><text xml:space="preserve" font-family="GillSans,Gill Sans" font-size="78.0" fill="#000000" transform="matrix(1.00, 0.00, -0.00, -1.00, 211.2, 347.1)"> </text><text xml:space="preserve" font-family="GillSans,Gill Sans" font-size="78.0" fill="#000000" transform="matrix(1.00, 0.00, -0.00, -1.00, 232.9, 347.1)">w</text><text xml:space="preserve" font-family="GillSans,Gill Sans" font-size="78.0" fill="#000000" transform="matrix(1.00, 0.00, -0.00, -1.00, 287.4, 347.1)">o</text><text xml:space="preserve" font-family="GillSans,Gill Sans" font-size="78.0" fill="#000000" transform="matrix(1.00, 0.00, -0.00, -1.00, 330.5, 347.1)">r</text><text xml:space="preserve" font-family="GillSans,Gill Sans" font-size="78.0" fill="#000000" transform="matrix(1.00, 0.00, -0.00, -1.00, 361.4, 347.1)">k</text><text xml:space="preserve" font-family="GillSans,Gill Sans" font-size="78.0" fill="#000000" transform="matrix(1.00, 0.00, -0.00, -1.00, 398.7, 347.1)"> </text><text xml:space="preserve" font-family="GillSans,Gill Sans" font-size="78.0" fill="#000000" transform="matrix(1.00, 0.00, -0.00, -1.00, 420.4, 347.1)">a</text><text xml:space="preserve" font-family="GillSans,Gill Sans" font-size="78.0" fill="#000000" transform="matrix(1.00, 0.00, -0.00, -1.00, 453.6, 347.1)">t</text><text xml:space="preserve" font-family="GillSans,Gill Sans" font-size="78.0" fill="#000000" transform="matrix(1.00, 0.00, -0.00, -1.00, 479.6, 347.1)"> </text><text xml:space="preserve" font-family="GillSans,Gill Sans" font-size="78.0" fill="#000000" transform="matrix(1.00, 0.00, -0.00, -1.00, 501.3, 347.1)">k</text><text xml:space="preserve" font-family="GillSans,Gill Sans" font-size="78.0" fill="#000000" transform="matrix(1.00, 0.00, -0.00, -1.00, 538.6, 347.1)">i</text><text xml:space="preserve" font-family="GillSans,Gill Sans" font-size="78.0" fill="#000000" transform="matrix(1.00, 0.00, -0.00, -1.00, 555.8, 347.1)">c</text><text xml:space="preserve" font-family="GillSans,Gill Sans" font-size="78.0" fill="#000000" transform="matrix(1.00, 0.00, -0.00, -1.00, 589.9, 347.1)">k</text><text xml:space="preserve" font-family="GillSans,Gill Sans" font-size="78.0" fill="#000000" transform="matrix(1.00, 0.00, -0.00, -1.00, 627.3, 347.1)">s</text><text xml:space="preserve" font-family="GillSans,Gill Sans" font-size="78.0" fill="#000000" transform="matrix(1.00, 0.00, -0.00, -1.00, 657.3, 347.1)">t</text><text xml:space="preserve" font-family="GillSans,Gill Sans" font-size="78.0" fill="#000000" transform="matrix(1.00, 0.00, -0.00, -1.00, 683.2, 347.1)">a</text><text xml:space="preserve" font-family="GillSans,Gill Sans" font-size="78.0" fill="#000000" transform="matrix(1.00, 0.00, -0.00, -1.00, 716.5, 347.1)">r</text><text xml:space="preserve" font-family="GillSans,Gill Sans" font-size="78.0" fill="#000000" transform="matrix(1.00, 0.00, -0.00, -1.00, 749.0, 347.1)">t</text><text xml:space="preserve" font-family="GillSans,Gill Sans" font-size="78.0" fill="#000000" transform="matrix(1.00, 0.00, -0.00, -1.00, 774.9, 347.1)">e</text><text xml:space="preserve" font-family="GillSans,Gill Sans" font-size="78.0" fill="#000000" transform="matrix(1.00, 0.00, -0.00, -1.00, 812.3, 347.1)">r</text></g></svg>