<?xml version="1.0" encoding="UTF-8" standalone="no"?><svg xmlns="http://www.w3.org/2000/svg" xmlns:xlink="http://www.w3.org/1999/xlink" clip-rule="evenodd" stroke-miterlimit="10" viewBox="0 0 1024 768"><desc>SVG generated by Keynote</desc><defs></defs><g transform="matrix(1.00, 0.00, -0.00, -1.00, 0.0, 768.0)"><path d="M 0.0 768.0 L 1024.0 768.0 L 1024.0 0.0 L 0.0 0.0 Z M 0.0 768.0 " fill="#FEFFFF"></path><image xlink:href="../../CFA82BD5-2C02-4F85-8506-3C83E7961AA4/assets/6B0A691EF79C8525958FDAE386BAA6A5.png" width="4096.00" height="1732.00" transform="matrix(1.72, 0.00, -0.00, -1.72, -3409.0, 1017.0)"></image><image xlink:href="../../CFA82BD5-2C02-4F85-8506-3C83E7961AA4/assets/BE5FD13EDFCABA4E9373AD186FAB8CCB.png" width="321.00" height="587.00" transform="matrix(0.23, 0.00, -0.00, -0.23, -75.0, 768.0)"></image><text xml:space="preserve" font-family="Italic-Bricks,Italic Bricks" font-style="italic" font-size="34.0" fill="#59461D" transform="matrix(1.00, 0.00, -0.00, -1.00, 3.9, 649.5)">J</text><text xml:space="preserve" font-family="Italic-Bricks,Italic Bricks" font-style="italic" font-size="34.0" fill="#59461D" transform="matrix(1.00, 0.00, -0.00, -1.00, 31.5, 649.5)">A</text><text xml:space="preserve" font-family="Italic-Bricks,Italic Bricks" font-style="italic" font-size="34.0" fill="#59461D" transform="matrix(1.00, 0.00, -0.00, -1.00, 59.1, 649.5)">V</text><text xml:space="preserve" font-family="Italic-Bricks,Italic Bricks" font-style="italic" font-size="34.0" fill="#59461D" transform="matrix(1.00, 0.00, -0.00, -1.00, 86.8, 649.5)">A</text><text xml:space="preserve" font-family="Italic-Bricks,Italic Bricks" font-style="italic" font-size="34.0" fill="#59461D" transform="matrix(1.00, 0.00, -0.00, -1.00, 114.4, 649.5)">S</text><text xml:space="preserve" font-family="Italic-Bricks,Italic Bricks" font-style="italic" font-size="34.0" fill="#59461D" transform="matrix(1.00, 0.00, -0.00, -1.00, 142.0, 649.5)">C</text><text xml:space="preserve" font-family="Italic-Bricks,Italic Bricks" font-style="italic" font-size="34.0" fill="#59461D" transform="matrix(1.00, 0.00, -0.00, -1.00, 169.6, 649.5)">R</text><text xml:space="preserve" font-family="Italic-Bricks,Italic Bricks" font-style="italic" font-size="34.0" fill="#59461D" transform="matrix(1.00, 0.00, -0.00, -1.00, 197.2, 649.5)">I</text><text xml:space="preserve" font-family="Italic-Bricks,Italic Bricks" font-style="italic" font-size="34.0" fill="#59461D" transform="matrix(1.00, 0.00, -0.00, -1.00, 209.9, 649.5)">P</text><text xml:space="preserve" font-family="Italic-Bricks,Italic Bricks" font-style="italic" font-size="34.0" fill="#59461D" transform="matrix(1.00, 0.00, -0.00, -1.00, 237.5, 649.5)">T</text><text xml:space="preserve" font-family="Italic-Bricks,Italic Bricks" font-style="italic" font-size="34.0" fill="#59461D" transform="matrix(1.00, 0.00, -0.00, -1.00, 265.2, 649.5)"> </text><text xml:space="preserve" font-family="Italic-Bricks,Italic Bricks" font-style="italic" font-size="34.0" fill="#59461D" transform="matrix(1.00, 0.00, -0.00, -1.00, 284.3, 649.5)"> </text><text xml:space="preserve" font-family="Italic-Bricks,Italic Bricks" font-style="italic" font-size="34.0" fill="#59461D" transform="matrix(1.00, 0.00, -0.00, -1.00, 303.4, 649.5)">H</text><text xml:space="preserve" font-family="Italic-Bricks,Italic Bricks" font-style="italic" font-size="34.0" fill="#59461D" transform="matrix(1.00, 0.00, -0.00, -1.00, 331.0, 649.5)">A</text><text xml:space="preserve" font-family="Italic-Bricks,Italic Bricks" font-style="italic" font-size="34.0" fill="#59461D" transform="matrix(1.00, 0.00, -0.00, -1.00, 358.6, 649.5)">R</text><text xml:space="preserve" font-family="Italic-Bricks,Italic Bricks" font-style="italic" font-size="34.0" fill="#59461D" transform="matrix(1.00, 0.00, -0.00, -1.00, 386.2, 649.5)">D</text><text xml:space="preserve" font-family="Italic-Bricks,Italic Bricks" font-style="italic" font-size="34.0" fill="#59461D" transform="matrix(1.00, 0.00, -0.00, -1.00, 413.8, 649.5)">W</text><text xml:space="preserve" font-family="Italic-Bricks,Italic Bricks" font-style="italic" font-size="34.0" fill="#59461D" transform="matrix(1.00, 0.00, -0.00, -1.00, 454.2, 649.5)">A</text><text xml:space="preserve" font-family="Italic-Bricks,Italic Bricks" font-style="italic" font-size="34.0" fill="#59461D" transform="matrix(1.00, 0.00, -0.00, -1.00, 481.8, 649.5)">R</text><text xml:space="preserve" font-family="Italic-Bricks,Italic Bricks" font-style="italic" font-size="34.0" fill="#59461D" transform="matrix(1.00, 0.00, -0.00, -1.00, 509.4, 649.5)">E</text><text xml:space="preserve" font-family="Italic-Bricks,Italic Bricks" font-style="italic" font-size="34.0" fill="#59461D" transform="matrix(1.00, 0.00, -0.00, -1.00, 537.0, 649.5)"> </text><text xml:space="preserve" font-family="Italic-Bricks,Italic Bricks" font-style="italic" font-size="34.0" fill="#59461D" transform="matrix(1.00, 0.00, -0.00, -1.00, 556.1, 649.5)">A</text><text xml:space="preserve" font-family="Italic-Bricks,Italic Bricks" font-style="italic" font-size="34.0" fill="#59461D" transform="matrix(1.00, 0.00, -0.00, -1.00, 583.7, 649.5)">D</text><text xml:space="preserve" font-family="Italic-Bricks,Italic Bricks" font-style="italic" font-size="34.0" fill="#59461D" transform="matrix(1.00, 0.00, -0.00, -1.00, 611.3, 649.5)">V</text><text xml:space="preserve" font-family="Italic-Bricks,Italic Bricks" font-style="italic" font-size="34.0" fill="#59461D" transform="matrix(1.00, 0.00, -0.00, -1.00, 638.9, 649.5)">E</text><text xml:space="preserve" font-family="Italic-Bricks,Italic Bricks" font-style="italic" font-size="34.0" fill="#59461D" transform="matrix(1.00, 0.00, -0.00, -1.00, 666.5, 649.5)">N</text><text xml:space="preserve" font-family="Italic-Bricks,Italic Bricks" font-style="italic" font-size="34.0" fill="#59461D" transform="matrix(1.00, 0.00, -0.00, -1.00, 694.1, 649.5)">T</text><text xml:space="preserve" font-family="Italic-Bricks,Italic Bricks" font-style="italic" font-size="34.0" fill="#59461D" transform="matrix(1.00, 0.00, -0.00, -1.00, 721.7, 649.5)">U</text><text xml:space="preserve" font-family="Italic-Bricks,Italic Bricks" font-style="italic" font-size="34.0" fill="#59461D" transform="matrix(1.00, 0.00, -0.00, -1.00, 749.3, 649.5)">R</text><text xml:space="preserve" font-family="Italic-Bricks,Italic Bricks" font-style="italic" font-size="34.0" fill="#59461D" transform="matrix(1.00, 0.00, -0.00, -1.00, 777.0, 649.5)">E</text></g></svg>